  0
SECTION
  2
HEADER
  9
$ACADVER
  1
AC1014
  9
$HANDSEED
  5
FFFF
  9
$MEASUREMENT
 70
     1
  0
ENDSEC
  0
SECTION
  2
TABLES
  0
TABLE
  2
VPORT
  5
8
330
0
100
AcDbSymbolTable
 70
     4
  0
VPORT
  5
2E
330
8
100
AcDbSymbolTableRecord
100
AcDbViewportTableRecord
  2
*ACTIVE
 70
     0
 10
0.0
 20
0.0
 11
1.0
 21
1.0
 12
210.0
 22
148.5
 13
0.0
 23
0.0
 14
10.0
 24
10.0
 15
10.0
 25
10.0
 16
0.0
 26
0.0
 36
1.0
 17
0.0
 27
0.0
 37
0.0
 40
341.0
 41
1.24
 42
50.0
 43
0.0
 44
0.0
 50
0.0
 51
0.0
 71
     0
 72
   100
 73
     1
 74
     3
 75
     0
 76
     0
 77
     0
 78
     0
  0
ENDTAB
  0
TABLE
  2
LTYPE
  5
5
330
0
100
AcDbSymbolTable
 70
     1
  0
LTYPE
  5
14
330
5
100
AcDbSymbolTableRecord
100
AcDbLinetypeTableRecord
  2
BYBLOCK
 70
     0
  3

 72
    65
 73
     0
 40
0.0
  0
LTYPE
  5
15
330
5
100
AcDbSymbolTableRecord
100
AcDbLinetypeTableRecord
  2
BYLAYER
 70
     0
  3

 72
    65
 73
     0
 40
0.0
  0
LTYPE
  5
16
330
5
100
AcDbSymbolTableRecord
100
AcDbLinetypeTableRecord
  2
CONTINUOUS
 70
     0
  3
Solid line
 72
    65
 73
     0
 40
0.0
  0
ENDTAB
  0
TABLE
  2
LAYER
  5
2
100
AcDbSymbolTable
 70
5
  0
LAYER
  5
50
100
AcDbSymbolTableRecord
100
AcDbLayerTableRecord
  2
0
 70
0
  6
CONTINUOUS
  0
LAYER
  5
51
100
AcDbSymbolTableRecord
100
AcDbLayerTableRecord
  2
Logo
 70
0
  6
CONTINUOUS
  0
LAYER
  5
52
100
AcDbSymbolTableRecord
100
AcDbLayerTableRecord
  2
panel
 70
0
  6
CONTINUOUS
  0
LAYER
  5
53
100
AcDbSymbolTableRecord
100
AcDbLayerTableRecord
  2
text
 70
0
  6
CONTINUOUS
  0
LAYER
  5
54
100
AcDbSymbolTableRecord
100
AcDbLayerTableRecord
  2
other
 70
0
  6
CONTINUOUS
  0
ENDTAB
  0
TABLE
  2
STYLE
  5
3
330
0
100
AcDbSymbolTable
 70
     1
  0
STYLE
  5
11
330
3
100
AcDbSymbolTableRecord
100
AcDbTextStyleTableRecord
  2
STANDARD
 70
     0
 40
0.0
 41
1.0
 50
0.0
 71
     0
 42
2.5
  3
txt
  4

  0
ENDTAB
  0
TABLE
  2
VIEW
  5
6
330
0
100
AcDbSymbolTable
 70
     0
  0
ENDTAB
  0
TABLE
  2
UCS
  5
7
330
0
100
AcDbSymbolTable
 70
     0
  0
ENDTAB
  0
TABLE
  2
APPID
  5
9
330
0
100
AcDbSymbolTable
 70
     2
  0
APPID
  5
12
330
9
100
AcDbSymbolTableRecord
100
AcDbRegAppTableRecord
  2
ACAD
 70
     0
  0
ENDTAB
  0
TABLE
  2
DIMSTYLE
  5
A
330
0
100
AcDbSymbolTable
 70
     1
  0
DIMSTYLE
105
27
330
A
100
AcDbSymbolTableRecord
100
AcDbDimStyleTableRecord
  2
ISO-25
 70
     0
  3

  4

  5

  6

  7

 40
1.0
 41
2.5
 42
0.625
 43
3.75
 44
1.25
 45
0.0
 46
0.0
 47
0.0
 48
0.0
140
2.5
141
2.5
142
0.0
143
0.03937007874016
144
1.0
145
0.0
146
1.0
147
0.625
 71
     0
 72
     0
 73
     0
 74
     0
 75
     0
 76
     0
 77
     1
 78
     8
170
     0
171
     3
172
     1
173
     0
174
     0
175
     0
176
     0
177
     0
178
     0
270
     2
271
     2
272
     2
273
     2
274
     3
340
11
275
     0
280
     0
281
     0
282
     0
283
     0
284
     8
285
     0
286
     0
287
     3
288
     0
  0
ENDTAB
  0
TABLE
  2
BLOCK_RECORD
  5
1
330
0
100
AcDbSymbolTable
 70
     1
  0
BLOCK_RECORD
  5
1F
330
1
100
AcDbSymbolTableRecord
100
AcDbBlockTableRecord
  2
*MODEL_SPACE
  0
BLOCK_RECORD
  5
1B
330
1
100
AcDbSymbolTableRecord
100
AcDbBlockTableRecord
  2
*PAPER_SPACE
  0
ENDTAB
  0
ENDSEC
  0
SECTION
  2
BLOCKS
  0
BLOCK
  5
20
330
1F
100
AcDbEntity
  8
0
100
AcDbBlockBegin
  2
*MODEL_SPACE
 70
     0
 10
0.0
 20
0.0
 30
0.0
  3
*MODEL_SPACE
  1

  0
ENDBLK
  5
21
330
1F
100
AcDbEntity
  8
0
100
AcDbBlockEnd
  0
BLOCK
  5
1C
330
1B
100
AcDbEntity
 67
     1
  8
0
100
AcDbBlockBegin
  2
*PAPER_SPACE
  1

  0
ENDBLK
  5
1D
330
1B
100
AcDbEntity
 67
     1
  8
0
100
AcDbBlockEnd
  0
ENDSEC
  0
SECTION
  2
ENTITIES
  0
LINE
  5
100
100
AcDbEntity
  8
Logo
 62
7
100
AcDbLine
 10
5.023201
 20
12.408070
 30
0.0
 11
5.244174
 21
12.297586
 31
0.0
  0
LINE
  5
101
100
AcDbEntity
  8
Logo
 62
7
100
AcDbLine
 10
5.244174
 20
12.297586
 30
0.0
 11
5.317831
 21
12.187101
 31
0.0
  0
LINE
  5
102
100
AcDbEntity
  8
Logo
 62
7
100
AcDbLine
 10
5.317831
 20
12.187101
 30
0.0
 11
5.391489
 21
11.966133
 31
0.0
  0
LINE
  5
103
100
AcDbEntity
  8
Logo
 62
7
100
AcDbLine
 10
5.391489
 20
11.966133
 30
0.0
 11
5.391489
 21
11.634680
 31
0.0
  0
LINE
  5
104
100
AcDbEntity
  8
Logo
 62
7
100
AcDbLine
 10
5.391489
 20
11.634680
 30
0.0
 11
5.317831
 21
11.413711
 31
0.0
  0
LINE
  5
105
100
AcDbEntity
  8
Logo
 62
7
100
AcDbLine
 10
5.317831
 20
11.413711
 30
0.0
 11
5.244174
 21
11.303228
 31
0.0
  0
LINE
  5
106
100
AcDbEntity
  8
Logo
 62
7
100
AcDbLine
 10
5.244174
 20
11.303228
 30
0.0
 11
5.096858
 21
11.192743
 31
0.0
  0
LINE
  5
107
100
AcDbEntity
  8
Logo
 62
7
100
AcDbLine
 10
5.096858
 20
11.192743
 30
0.0
 11
4.507613
 21
11.192743
 31
0.0
  0
LINE
  5
108
100
AcDbEntity
  8
Logo
 62
7
100
AcDbLine
 10
4.507613
 20
11.192743
 30
0.0
 11
4.507613
 21
13.512913
 31
0.0
  0
LINE
  5
109
100
AcDbEntity
  8
Logo
 62
7
100
AcDbLine
 10
4.507613
 20
13.512913
 30
0.0
 11
5.023201
 21
13.512913
 31
0.0
  0
LINE
  5
10a
100
AcDbEntity
  8
Logo
 62
7
100
AcDbLine
 10
5.023201
 20
13.512913
 30
0.0
 11
5.170516
 21
13.402428
 31
0.0
  0
LINE
  5
10b
100
AcDbEntity
  8
Logo
 62
7
100
AcDbLine
 10
5.170516
 20
13.402428
 30
0.0
 11
5.244174
 21
13.291945
 31
0.0
  0
LINE
  5
10c
100
AcDbEntity
  8
Logo
 62
7
100
AcDbLine
 10
5.244174
 20
13.291945
 30
0.0
 11
5.317831
 21
13.070976
 31
0.0
  0
LINE
  5
10d
100
AcDbEntity
  8
Logo
 62
7
100
AcDbLine
 10
5.317831
 20
13.070976
 30
0.0
 11
5.317831
 21
12.850008
 31
0.0
  0
LINE
  5
10e
100
AcDbEntity
  8
Logo
 62
7
100
AcDbLine
 10
5.317831
 20
12.850008
 30
0.0
 11
5.244174
 21
12.629038
 31
0.0
  0
LINE
  5
10f
100
AcDbEntity
  8
Logo
 62
7
100
AcDbLine
 10
5.244174
 20
12.629038
 30
0.0
 11
5.170516
 21
12.518555
 31
0.0
  0
LINE
  5
110
100
AcDbEntity
  8
Logo
 62
7
100
AcDbLine
 10
5.170516
 20
12.518555
 30
0.0
 11
5.023201
 21
12.408070
 31
0.0
  0
LINE
  5
111
100
AcDbEntity
  8
Logo
 62
7
100
AcDbLine
 10
5.023201
 20
12.408070
 30
0.0
 11
4.507613
 21
12.408070
 31
0.0
  0
LINE
  5
112
100
AcDbEntity
  8
Logo
 62
7
100
AcDbLine
 10
6.790954
 20
11.192743
 30
0.0
 11
6.054393
 21
11.192743
 31
0.0
  0
LINE
  5
113
100
AcDbEntity
  8
Logo
 62
7
100
AcDbLine
 10
6.054393
 20
11.192743
 30
0.0
 11
6.054393
 21
13.512913
 31
0.0
  0
LINE
  5
114
100
AcDbEntity
  8
Logo
 62
7
100
AcDbLine
 10
7.306557
 20
12.408070
 30
0.0
 11
7.822145
 21
12.408070
 31
0.0
  0
LINE
  5
115
100
AcDbEntity
  8
Logo
 62
7
100
AcDbLine
 10
8.043118
 20
11.192743
 30
0.0
 11
7.306557
 21
11.192743
 31
0.0
  0
LINE
  5
116
100
AcDbEntity
  8
Logo
 62
7
100
AcDbLine
 10
7.306557
 20
11.192743
 30
0.0
 11
7.306557
 21
13.512913
 31
0.0
  0
LINE
  5
117
100
AcDbEntity
  8
Logo
 62
7
100
AcDbLine
 10
7.306557
 20
13.512913
 30
0.0
 11
8.043118
 21
13.512913
 31
0.0
  0
LINE
  5
118
100
AcDbEntity
  8
Logo
 62
7
100
AcDbLine
 10
8.706022
 20
12.408070
 30
0.0
 11
9.221610
 21
12.408070
 31
0.0
  0
LINE
  5
119
100
AcDbEntity
  8
Logo
 62
7
100
AcDbLine
 10
9.442583
 20
11.192743
 30
0.0
 11
8.706022
 21
11.192743
 31
0.0
  0
LINE
  5
11a
100
AcDbEntity
  8
Logo
 62
7
100
AcDbLine
 10
8.706022
 20
11.192743
 30
0.0
 11
8.706022
 21
13.512913
 31
0.0
  0
LINE
  5
11b
100
AcDbEntity
  8
Logo
 62
7
100
AcDbLine
 10
8.706022
 20
13.512913
 30
0.0
 11
9.442583
 21
13.512913
 31
0.0
  0
LINE
  5
11c
100
AcDbEntity
  8
Logo
 62
7
100
AcDbLine
 10
10.105487
 20
11.192743
 30
0.0
 11
10.105487
 21
13.512913
 31
0.0
  0
LINE
  5
11d
100
AcDbEntity
  8
Logo
 62
7
100
AcDbLine
 10
10.105487
 20
13.512913
 30
0.0
 11
10.694733
 21
13.512913
 31
0.0
  0
LINE
  5
11e
100
AcDbEntity
  8
Logo
 62
7
100
AcDbLine
 10
10.694733
 20
13.512913
 30
0.0
 11
10.842048
 21
13.402428
 31
0.0
  0
LINE
  5
11f
100
AcDbEntity
  8
Logo
 62
7
100
AcDbLine
 10
10.842048
 20
13.402428
 30
0.0
 11
10.915705
 21
13.291945
 31
0.0
  0
LINE
  5
120
100
AcDbEntity
  8
Logo
 62
7
100
AcDbLine
 10
10.915705
 20
13.291945
 30
0.0
 11
10.989363
 21
13.070976
 31
0.0
  0
LINE
  5
121
100
AcDbEntity
  8
Logo
 62
7
100
AcDbLine
 10
10.989363
 20
13.070976
 30
0.0
 11
10.989363
 21
12.739523
 31
0.0
  0
LINE
  5
122
100
AcDbEntity
  8
Logo
 62
7
100
AcDbLine
 10
10.989363
 20
12.739523
 30
0.0
 11
10.915705
 21
12.518555
 31
0.0
  0
LINE
  5
123
100
AcDbEntity
  8
Logo
 62
7
100
AcDbLine
 10
10.915705
 20
12.518555
 30
0.0
 11
10.842048
 21
12.408070
 31
0.0
  0
LINE
  5
124
100
AcDbEntity
  8
Logo
 62
7
100
AcDbLine
 10
10.842048
 20
12.408070
 30
0.0
 11
10.694733
 21
12.297586
 31
0.0
  0
LINE
  5
125
100
AcDbEntity
  8
Logo
 62
7
100
AcDbLine
 10
10.694733
 20
12.297586
 30
0.0
 11
10.105487
 21
12.297586
 31
0.0
  0
LINE
  5
126
100
AcDbEntity
  8
Logo
 62
7
100
AcDbLine
 10
4.802243
 20
9.469188
 30
0.0
 11
5.023201
 21
9.358704
 31
0.0
  0
LINE
  5
127
100
AcDbEntity
  8
Logo
 62
7
100
AcDbLine
 10
5.023201
 20
9.358704
 30
0.0
 11
5.096858
 21
9.248219
 31
0.0
  0
LINE
  5
128
100
AcDbEntity
  8
Logo
 62
7
100
AcDbLine
 10
5.096858
 20
9.248219
 30
0.0
 11
5.170516
 21
9.027251
 31
0.0
  0
LINE
  5
129
100
AcDbEntity
  8
Logo
 62
7
100
AcDbLine
 10
5.170516
 20
9.027251
 30
0.0
 11
5.170516
 21
8.695798
 31
0.0
  0
LINE
  5
12a
100
AcDbEntity
  8
Logo
 62
7
100
AcDbLine
 10
5.170516
 20
8.695798
 30
0.0
 11
5.096858
 21
8.474829
 31
0.0
  0
LINE
  5
12b
100
AcDbEntity
  8
Logo
 62
7
100
AcDbLine
 10
5.096858
 20
8.474829
 30
0.0
 11
5.023201
 21
8.364346
 31
0.0
  0
LINE
  5
12c
100
AcDbEntity
  8
Logo
 62
7
100
AcDbLine
 10
5.023201
 20
8.364346
 30
0.0
 11
4.875901
 21
8.253861
 31
0.0
  0
LINE
  5
12d
100
AcDbEntity
  8
Logo
 62
7
100
AcDbLine
 10
4.875901
 20
8.253861
 30
0.0
 11
4.286640
 21
8.253861
 31
0.0
  0
LINE
  5
12e
100
AcDbEntity
  8
Logo
 62
7
100
AcDbLine
 10
4.286640
 20
8.253861
 30
0.0
 11
4.286640
 21
10.574031
 31
0.0
  0
LINE
  5
12f
100
AcDbEntity
  8
Logo
 62
7
100
AcDbLine
 10
4.286640
 20
10.574031
 30
0.0
 11
4.802243
 21
10.574031
 31
0.0
  0
LINE
  5
130
100
AcDbEntity
  8
Logo
 62
7
100
AcDbLine
 10
4.802243
 20
10.574031
 30
0.0
 11
4.949558
 21
10.463546
 31
0.0
  0
LINE
  5
131
100
AcDbEntity
  8
Logo
 62
7
100
AcDbLine
 10
4.949558
 20
10.463546
 30
0.0
 11
5.023201
 21
10.353063
 31
0.0
  0
LINE
  5
132
100
AcDbEntity
  8
Logo
 62
7
100
AcDbLine
 10
5.023201
 20
10.353063
 30
0.0
 11
5.096858
 21
10.132094
 31
0.0
  0
LINE
  5
133
100
AcDbEntity
  8
Logo
 62
7
100
AcDbLine
 10
5.096858
 20
10.132094
 30
0.0
 11
5.096858
 21
9.911126
 31
0.0
  0
LINE
  5
134
100
AcDbEntity
  8
Logo
 62
7
100
AcDbLine
 10
5.096858
 20
9.911126
 30
0.0
 11
5.023201
 21
9.690156
 31
0.0
  0
LINE
  5
135
100
AcDbEntity
  8
Logo
 62
7
100
AcDbLine
 10
5.023201
 20
9.690156
 30
0.0
 11
4.949558
 21
9.579673
 31
0.0
  0
LINE
  5
136
100
AcDbEntity
  8
Logo
 62
7
100
AcDbLine
 10
4.949558
 20
9.579673
 30
0.0
 11
4.802243
 21
9.469188
 31
0.0
  0
LINE
  5
137
100
AcDbEntity
  8
Logo
 62
7
100
AcDbLine
 10
4.802243
 20
9.469188
 30
0.0
 11
4.286640
 21
9.469188
 31
0.0
  0
LINE
  5
138
100
AcDbEntity
  8
Logo
 62
7
100
AcDbLine
 10
6.569981
 20
8.253861
 30
0.0
 11
5.833420
 21
8.253861
 31
0.0
  0
LINE
  5
139
100
AcDbEntity
  8
Logo
 62
7
100
AcDbLine
 10
5.833420
 20
8.253861
 30
0.0
 11
5.833420
 21
10.574031
 31
0.0
  0
LINE
  5
13a
100
AcDbEntity
  8
Logo
 62
7
100
AcDbLine
 10
7.380200
 20
10.574031
 30
0.0
 11
7.674830
 21
10.574031
 31
0.0
  0
LINE
  5
13b
100
AcDbEntity
  8
Logo
 62
7
100
AcDbLine
 10
7.674830
 20
10.574031
 30
0.0
 11
7.822145
 21
10.463546
 31
0.0
  0
LINE
  5
13c
100
AcDbEntity
  8
Logo
 62
7
100
AcDbLine
 10
7.822145
 20
10.463546
 30
0.0
 11
7.969461
 21
10.242578
 31
0.0
  0
LINE
  5
13d
100
AcDbEntity
  8
Logo
 62
7
100
AcDbLine
 10
7.969461
 20
10.242578
 30
0.0
 11
8.043118
 21
9.800641
 31
0.0
  0
LINE
  5
13e
100
AcDbEntity
  8
Logo
 62
7
100
AcDbLine
 10
8.043118
 20
9.800641
 30
0.0
 11
8.043118
 21
9.027251
 31
0.0
  0
LINE
  5
13f
100
AcDbEntity
  8
Logo
 62
7
100
AcDbLine
 10
8.043118
 20
9.027251
 30
0.0
 11
7.969461
 21
8.585314
 31
0.0
  0
LINE
  5
140
100
AcDbEntity
  8
Logo
 62
7
100
AcDbLine
 10
7.969461
 20
8.585314
 30
0.0
 11
7.822145
 21
8.364346
 31
0.0
  0
LINE
  5
141
100
AcDbEntity
  8
Logo
 62
7
100
AcDbLine
 10
7.822145
 20
8.364346
 30
0.0
 11
7.674830
 21
8.253861
 31
0.0
  0
LINE
  5
142
100
AcDbEntity
  8
Logo
 62
7
100
AcDbLine
 10
7.674830
 20
8.253861
 30
0.0
 11
7.380200
 21
8.253861
 31
0.0
  0
LINE
  5
143
100
AcDbEntity
  8
Logo
 62
7
100
AcDbLine
 10
7.380200
 20
8.253861
 30
0.0
 11
7.232900
 21
8.364346
 31
0.0
  0
LINE
  5
144
100
AcDbEntity
  8
Logo
 62
7
100
AcDbLine
 10
7.232900
 20
8.364346
 30
0.0
 11
7.085584
 21
8.585314
 31
0.0
  0
LINE
  5
145
100
AcDbEntity
  8
Logo
 62
7
100
AcDbLine
 10
7.085584
 20
8.585314
 30
0.0
 11
7.011927
 21
9.027251
 31
0.0
  0
LINE
  5
146
100
AcDbEntity
  8
Logo
 62
7
100
AcDbLine
 10
7.011927
 20
9.027251
 30
0.0
 11
7.011927
 21
9.800641
 31
0.0
  0
LINE
  5
147
100
AcDbEntity
  8
Logo
 62
7
100
AcDbLine
 10
7.011927
 20
9.800641
 30
0.0
 11
7.085584
 21
10.242578
 31
0.0
  0
LINE
  5
148
100
AcDbEntity
  8
Logo
 62
7
100
AcDbLine
 10
7.085584
 20
10.242578
 30
0.0
 11
7.232900
 21
10.463546
 31
0.0
  0
LINE
  5
149
100
AcDbEntity
  8
Logo
 62
7
100
AcDbLine
 10
7.232900
 20
10.463546
 30
0.0
 11
7.380200
 21
10.574031
 31
0.0
  0
LINE
  5
14a
100
AcDbEntity
  8
Logo
 62
7
100
AcDbLine
 10
9.000637
 20
10.574031
 30
0.0
 11
9.295268
 21
10.574031
 31
0.0
  0
LINE
  5
14b
100
AcDbEntity
  8
Logo
 62
7
100
AcDbLine
 10
9.295268
 20
10.574031
 30
0.0
 11
9.442583
 21
10.463546
 31
0.0
  0
LINE
  5
14c
100
AcDbEntity
  8
Logo
 62
7
100
AcDbLine
 10
9.442583
 20
10.463546
 30
0.0
 11
9.589898
 21
10.242578
 31
0.0
  0
LINE
  5
14d
100
AcDbEntity
  8
Logo
 62
7
100
AcDbLine
 10
9.589898
 20
10.242578
 30
0.0
 11
9.663541
 21
9.800641
 31
0.0
  0
LINE
  5
14e
100
AcDbEntity
  8
Logo
 62
7
100
AcDbLine
 10
9.663541
 20
9.800641
 30
0.0
 11
9.663541
 21
9.027251
 31
0.0
  0
LINE
  5
14f
100
AcDbEntity
  8
Logo
 62
7
100
AcDbLine
 10
9.663541
 20
9.027251
 30
0.0
 11
9.589898
 21
8.585314
 31
0.0
  0
LINE
  5
150
100
AcDbEntity
  8
Logo
 62
7
100
AcDbLine
 10
9.589898
 20
8.585314
 30
0.0
 11
9.442583
 21
8.364346
 31
0.0
  0
LINE
  5
151
100
AcDbEntity
  8
Logo
 62
7
100
AcDbLine
 10
9.442583
 20
8.364346
 30
0.0
 11
9.295268
 21
8.253861
 31
0.0
  0
LINE
  5
152
100
AcDbEntity
  8
Logo
 62
7
100
AcDbLine
 10
9.295268
 20
8.253861
 30
0.0
 11
9.000637
 21
8.253861
 31
0.0
  0
LINE
  5
153
100
AcDbEntity
  8
Logo
 62
7
100
AcDbLine
 10
9.000637
 20
8.253861
 30
0.0
 11
8.853337
 21
8.364346
 31
0.0
  0
LINE
  5
154
100
AcDbEntity
  8
Logo
 62
7
100
AcDbLine
 10
8.853337
 20
8.364346
 30
0.0
 11
8.706022
 21
8.585314
 31
0.0
  0
LINE
  5
155
100
AcDbEntity
  8
Logo
 62
7
100
AcDbLine
 10
8.706022
 20
8.585314
 30
0.0
 11
8.632364
 21
9.027251
 31
0.0
  0
LINE
  5
156
100
AcDbEntity
  8
Logo
 62
7
100
AcDbLine
 10
8.632364
 20
9.027251
 30
0.0
 11
8.632364
 21
9.800641
 31
0.0
  0
LINE
  5
157
100
AcDbEntity
  8
Logo
 62
7
100
AcDbLine
 10
8.632364
 20
9.800641
 30
0.0
 11
8.706022
 21
10.242578
 31
0.0
  0
LINE
  5
158
100
AcDbEntity
  8
Logo
 62
7
100
AcDbLine
 10
8.706022
 20
10.242578
 30
0.0
 11
8.853337
 21
10.463546
 31
0.0
  0
LINE
  5
159
100
AcDbEntity
  8
Logo
 62
7
100
AcDbLine
 10
8.853337
 20
10.463546
 30
0.0
 11
9.000637
 21
10.574031
 31
0.0
  0
LINE
  5
15a
100
AcDbEntity
  8
Logo
 62
7
100
AcDbLine
 10
10.326460
 20
8.253861
 30
0.0
 11
10.326460
 21
10.574031
 31
0.0
  0
LINE
  5
15b
100
AcDbEntity
  8
Logo
 62
7
100
AcDbLine
 10
10.326460
 20
10.574031
 30
0.0
 11
10.915705
 21
10.574031
 31
0.0
  0
LINE
  5
15c
100
AcDbEntity
  8
Logo
 62
7
100
AcDbLine
 10
10.915705
 20
10.574031
 30
0.0
 11
11.063021
 21
10.463546
 31
0.0
  0
LINE
  5
15d
100
AcDbEntity
  8
Logo
 62
7
100
AcDbLine
 10
11.063021
 20
10.463546
 30
0.0
 11
11.136678
 21
10.353063
 31
0.0
  0
LINE
  5
15e
100
AcDbEntity
  8
Logo
 62
7
100
AcDbLine
 10
11.136678
 20
10.353063
 30
0.0
 11
11.210321
 21
10.132094
 31
0.0
  0
LINE
  5
15f
100
AcDbEntity
  8
Logo
 62
7
100
AcDbLine
 10
11.210321
 20
10.132094
 30
0.0
 11
11.210321
 21
9.800641
 31
0.0
  0
LINE
  5
160
100
AcDbEntity
  8
Logo
 62
7
100
AcDbLine
 10
11.210321
 20
9.800641
 30
0.0
 11
11.136678
 21
9.579673
 31
0.0
  0
LINE
  5
161
100
AcDbEntity
  8
Logo
 62
7
100
AcDbLine
 10
11.136678
 20
9.579673
 30
0.0
 11
11.063021
 21
9.469188
 31
0.0
  0
LINE
  5
162
100
AcDbEntity
  8
Logo
 62
7
100
AcDbLine
 10
11.063021
 20
9.469188
 30
0.0
 11
10.915705
 21
9.358704
 31
0.0
  0
LINE
  5
163
100
AcDbEntity
  8
Logo
 62
7
100
AcDbLine
 10
10.915705
 20
9.358704
 30
0.0
 11
10.326460
 21
9.358704
 31
0.0
  0
LINE
  5
164
100
AcDbEntity
  8
Logo
 62
7
100
AcDbLine
 10
3.211612
 20
13.738373
 30
0.0
 11
3.728298
 21
14.070889
 31
0.0
  0
LINE
  5
165
100
AcDbEntity
  8
Logo
 62
7
100
AcDbLine
 10
2.798003
 20
8.759941
 30
0.0
 11
2.761437
 21
9.277528
 31
0.0
  0
LINE
  5
166
100
AcDbEntity
  8
Logo
 62
7
100
AcDbLine
 10
2.757477
 20
7.640532
 30
0.0
 11
3.053964
 21
8.278148
 31
0.0
  0
LINE
  5
167
100
AcDbEntity
  8
Logo
 62
7
100
AcDbLine
 10
12.465826
 20
8.607377
 30
0.0
 11
12.133300
 21
8.090697
 31
0.0
  0
LINE
  5
168
100
AcDbEntity
  8
Logo
 62
7
100
AcDbLine
 10
2.761437
 20
12.551543
 30
0.0
 11
2.879101
 21
13.221693
 31
0.0
  0
LINE
  5
169
100
AcDbEntity
  8
Logo
 62
7
100
AcDbLine
 10
12.133300
 20
13.738373
 30
0.0
 11
12.465826
 21
13.221693
 31
0.0
  0
LINE
  5
16a
100
AcDbEntity
  8
Logo
 62
7
100
AcDbLine
 10
11.616629
 20
14.070892
 30
0.0
 11
12.133300
 21
13.738373
 31
0.0
  0
LINE
  5
16b
100
AcDbEntity
  8
Logo
 62
7
100
AcDbLine
 10
12.583490
 20
12.551546
 30
0.0
 11
12.583475
 21
9.277528
 31
0.0
  0
LINE
  5
16c
100
AcDbEntity
  8
Logo
 62
7
100
AcDbLine
 10
2.879101
 20
13.221693
 30
0.0
 11
3.211612
 21
13.738373
 31
0.0
  0
LINE
  5
16d
100
AcDbEntity
  8
Logo
 62
7
100
AcDbLine
 10
3.886951
 20
7.675368
 30
0.0
 11
3.418911
 21
7.919316
 31
0.0
  0
LINE
  5
16e
100
AcDbEntity
  8
Logo
 62
7
100
AcDbLine
 10
3.418911
 20
7.919316
 30
0.0
 11
2.757477
 21
7.640532
 31
0.0
  0
LINE
  5
16f
100
AcDbEntity
  8
Logo
 62
7
100
AcDbLine
 10
4.398441
 20
14.188549
 30
0.0
 11
10.946471
 21
14.188554
 31
0.0
  0
LINE
  5
170
100
AcDbEntity
  8
Logo
 62
7
100
AcDbLine
 10
10.946471
 20
14.188554
 30
0.0
 11
11.616629
 21
14.070892
 31
0.0
  0
LINE
  5
171
100
AcDbEntity
  8
Logo
 62
7
100
AcDbLine
 10
11.616629
 20
7.758180
 30
0.0
 11
10.946471
 21
7.640519
 31
0.0
  0
LINE
  5
172
100
AcDbEntity
  8
Logo
 62
7
100
AcDbLine
 10
12.583475
 20
9.277528
 30
0.0
 11
12.465826
 21
8.607377
 31
0.0
  0
LINE
  5
173
100
AcDbEntity
  8
Logo
 62
7
100
AcDbLine
 10
10.946471
 20
7.640519
 30
0.0
 11
4.398441
 21
7.640519
 31
0.0
  0
LINE
  5
174
100
AcDbEntity
  8
Logo
 62
7
100
AcDbLine
 10
4.398441
 20
7.640519
 30
0.0
 11
3.886951
 21
7.675368
 31
0.0
  0
LINE
  5
175
100
AcDbEntity
  8
Logo
 62
7
100
AcDbLine
 10
12.133300
 20
8.090697
 30
0.0
 11
11.616629
 21
7.758180
 31
0.0
  0
LINE
  5
176
100
AcDbEntity
  8
Logo
 62
7
100
AcDbLine
 10
3.053964
 20
8.278148
 30
0.0
 11
2.798003
 21
8.759941
 31
0.0
  0
LINE
  5
177
100
AcDbEntity
  8
Logo
 62
7
100
AcDbLine
 10
3.728298
 20
14.070889
 30
0.0
 11
4.398441
 21
14.188549
 31
0.0
  0
LINE
  5
178
100
AcDbEntity
  8
Logo
 62
7
100
AcDbLine
 10
12.465826
 20
13.221693
 30
0.0
 11
12.583490
 21
12.551546
 31
0.0
  0
LINE
  5
179
100
AcDbEntity
  8
Logo
 62
7
100
AcDbLine
 10
2.761437
 20
9.277528
 30
0.0
 11
2.761437
 21
12.551543
 31
0.0
  0
LINE
  5
17a
100
AcDbEntity
  8
panel
 62
7
100
AcDbLine
 10
0.049477
 20
0.050485
 30
0.0
 11
15.189819
 21
0.050485
 31
0.0
  0
LINE
  5
17b
100
AcDbEntity
  8
panel
 62
7
100
AcDbLine
 10
0.049477
 20
128.450402
 30
0.0
 11
0.049477
 21
0.050485
 31
0.0
  0
LINE
  5
17c
100
AcDbEntity
  8
panel
 62
7
100
AcDbLine
 10
15.189819
 20
0.050485
 30
0.0
 11
15.189819
 21
128.450402
 31
0.0
  0
LINE
  5
17d
100
AcDbEntity
  8
panel
 62
7
100
AcDbLine
 10
15.189819
 20
128.450402
 30
0.0
 11
0.049477
 21
128.450402
 31
0.0
  0
SPLINE
  5
17e
100
AcDbEntity
  8
panel
 62
7
100
AcDbSpline
 70
8
 71
3
 72
8
 73
4
 74
0
 40
0
 40
0
 40
0
 40
0
 40
1
 40
1
 40
1
 40
1
 10
6.129416
 20
4.596960
 30
0.0
 10
5.279581
 20
4.596095
 30
0.0
 10
4.591110
 20
3.902930
 30
0.0
 10
4.591110
 20
3.048167
 30
0.0
  0
SPLINE
  5
17f
100
AcDbEntity
  8
panel
 62
7
100
AcDbSpline
 70
8
 71
3
 72
8
 73
4
 74
0
 40
0
 40
0
 40
0
 40
0
 40
1
 40
1
 40
1
 40
1
 10
4.591110
 20
3.048167
 30
0.0
 10
4.591110
 20
2.193404
 30
0.0
 10
5.279581
 20
1.500239
 30
0.0
 10
6.129416
 20
1.499374
 30
0.0
  0
LINE
  5
180
100
AcDbEntity
  8
panel
 62
7
100
AcDbLine
 10
6.129534
 20
1.499274
 30
0.0
 11
9.109763
 21
1.499274
 31
0.0
  0
SPLINE
  5
181
100
AcDbEntity
  8
panel
 62
7
100
AcDbSpline
 70
8
 71
3
 72
8
 73
4
 74
0
 40
0
 40
0
 40
0
 40
0
 40
1
 40
1
 40
1
 40
1
 10
9.109797
 20
1.499374
 30
0.0
 10
9.959632
 20
1.500239
 30
0.0
 10
10.648103
 20
2.193404
 30
0.0
 10
10.648103
 20
3.048167
 30
0.0
  0
SPLINE
  5
182
100
AcDbEntity
  8
panel
 62
7
100
AcDbSpline
 70
8
 71
3
 72
8
 73
4
 74
0
 40
0
 40
0
 40
0
 40
0
 40
1
 40
1
 40
1
 40
1
 10
10.648103
 20
3.048167
 30
0.0
 10
10.648103
 20
3.902930
 30
0.0
 10
9.959632
 20
4.596095
 30
0.0
 10
9.109797
 20
4.596960
 30
0.0
  0
LINE
  5
183
100
AcDbEntity
  8
panel
 62
7
100
AcDbLine
 10
6.129534
 20
4.596984
 30
0.0
 11
9.109763
 21
4.596984
 31
0.0
  0
SPLINE
  5
184
100
AcDbEntity
  8
panel
 62
7
100
AcDbSpline
 70
8
 71
3
 72
8
 73
4
 74
0
 40
0
 40
0
 40
0
 40
0
 40
1
 40
1
 40
1
 40
1
 10
10.749007
 20
20.964214
 30
0.0
 10
10.748006
 20
22.701845
 30
0.0
 10
9.347219
 20
24.109939
 30
0.0
 10
7.619606
 20
24.109939
 30
0.0
  0
SPLINE
  5
185
100
AcDbEntity
  8
panel
 62
7
100
AcDbSpline
 70
8
 71
3
 72
8
 73
4
 74
0
 40
0
 40
0
 40
0
 40
0
 40
1
 40
1
 40
1
 40
1
 10
7.619606
 20
24.109939
 30
0.0
 10
5.891994
 20
24.109939
 30
0.0
 10
4.491207
 20
22.701845
 30
0.0
 10
4.490205
 20
20.964214
 30
0.0
  0
SPLINE
  5
186
100
AcDbEntity
  8
panel
 62
7
100
AcDbSpline
 70
8
 71
3
 72
8
 73
4
 74
0
 40
0
 40
0
 40
0
 40
0
 40
1
 40
1
 40
1
 40
1
 10
4.490205
 20
20.964214
 30
0.0
 10
4.491207
 20
19.226584
 30
0.0
 10
5.891994
 20
17.818490
 30
0.0
 10
7.619606
 20
17.818490
 30
0.0
  0
SPLINE
  5
187
100
AcDbEntity
  8
panel
 62
7
100
AcDbSpline
 70
8
 71
3
 72
8
 73
4
 74
0
 40
0
 40
0
 40
0
 40
0
 40
1
 40
1
 40
1
 40
1
 10
7.619606
 20
17.818490
 30
0.0
 10
9.347219
 20
17.818490
 30
0.0
 10
10.748006
 20
19.226584
 30
0.0
 10
10.749007
 20
20.964214
 30
0.0
  0
LINE
  5
188
100
AcDbEntity
  8
panel
 62
7
100
AcDbLine
 10
10.749007
 20
20.964214
 30
0.0
 11
10.749007
 21
20.964214
 31
0.0
  0
SPLINE
  5
189
100
AcDbEntity
  8
panel
 62
7
100
AcDbSpline
 70
8
 71
3
 72
8
 73
4
 74
0
 40
0
 40
0
 40
0
 40
0
 40
1
 40
1
 40
1
 40
1
 10
13.262464
 20
27.432176
 30
0.0
 10
13.262464
 20
27.985507
 30
0.0
 10
12.968968
 20
28.496806
 30
0.0
 10
12.492532
 20
28.773472
 30
0.0
  0
SPLINE
  5
18a
100
AcDbEntity
  8
panel
 62
7
100
AcDbSpline
 70
8
 71
3
 72
8
 73
4
 74
0
 40
0
 40
0
 40
0
 40
0
 40
1
 40
1
 40
1
 40
1
 10
12.492532
 20
28.773472
 30
0.0
 10
12.016096
 20
29.050137
 30
0.0
 10
11.429103
 20
29.050137
 30
0.0
 10
10.952667
 20
28.773472
 30
0.0
  0
SPLINE
  5
18b
100
AcDbEntity
  8
panel
 62
7
100
AcDbSpline
 70
8
 71
3
 72
8
 73
4
 74
0
 40
0
 40
0
 40
0
 40
0
 40
1
 40
1
 40
1
 40
1
 10
10.952667
 20
28.773472
 30
0.0
 10
10.476231
 20
28.496806
 30
0.0
 10
10.182735
 20
27.985507
 30
0.0
 10
10.182735
 20
27.432176
 30
0.0
  0
SPLINE
  5
18c
100
AcDbEntity
  8
panel
 62
7
100
AcDbSpline
 70
8
 71
3
 72
8
 73
4
 74
0
 40
0
 40
0
 40
0
 40
0
 40
1
 40
1
 40
1
 40
1
 10
10.182735
 20
27.432176
 30
0.0
 10
10.182735
 20
26.576801
 30
0.0
 10
10.872156
 20
25.883382
 30
0.0
 10
11.722600
 20
25.883382
 30
0.0
  0
SPLINE
  5
18d
100
AcDbEntity
  8
panel
 62
7
100
AcDbSpline
 70
8
 71
3
 72
8
 73
4
 74
0
 40
0
 40
0
 40
0
 40
0
 40
1
 40
1
 40
1
 40
1
 10
11.722600
 20
25.883382
 30
0.0
 10
12.573043
 20
25.883382
 30
0.0
 10
13.262464
 20
26.576801
 30
0.0
 10
13.262464
 20
27.432176
 30
0.0
  0
LINE
  5
18e
100
AcDbEntity
  8
panel
 62
7
100
AcDbLine
 10
13.262464
 20
27.432176
 30
0.0
 11
13.262464
 21
27.432176
 31
0.0
  0
SPLINE
  5
18f
100
AcDbEntity
  8
panel
 62
7
100
AcDbSpline
 70
8
 71
3
 72
8
 73
4
 74
0
 40
0
 40
0
 40
0
 40
0
 40
1
 40
1
 40
1
 40
1
 10
13.262464
 20
32.428283
 30
0.0
 10
13.262464
 20
32.981614
 30
0.0
 10
12.968968
 20
33.492913
 30
0.0
 10
12.492532
 20
33.769578
 30
0.0
  0
SPLINE
  5
190
100
AcDbEntity
  8
panel
 62
7
100
AcDbSpline
 70
8
 71
3
 72
8
 73
4
 74
0
 40
0
 40
0
 40
0
 40
0
 40
1
 40
1
 40
1
 40
1
 10
12.492532
 20
33.769578
 30
0.0
 10
12.016096
 20
34.046244
 30
0.0
 10
11.429103
 20
34.046244
 30
0.0
 10
10.952667
 20
33.769578
 30
0.0
  0
SPLINE
  5
191
100
AcDbEntity
  8
panel
 62
7
100
AcDbSpline
 70
8
 71
3
 72
8
 73
4
 74
0
 40
0
 40
0
 40
0
 40
0
 40
1
 40
1
 40
1
 40
1
 10
10.952667
 20
33.769578
 30
0.0
 10
10.476231
 20
33.492913
 30
0.0
 10
10.182735
 20
32.981614
 30
0.0
 10
10.182735
 20
32.428283
 30
0.0
  0
SPLINE
  5
192
100
AcDbEntity
  8
panel
 62
7
100
AcDbSpline
 70
8
 71
3
 72
8
 73
4
 74
0
 40
0
 40
0
 40
0
 40
0
 40
1
 40
1
 40
1
 40
1
 10
10.182735
 20
32.428283
 30
0.0
 10
10.182735
 20
31.572908
 30
0.0
 10
10.872156
 20
30.879489
 30
0.0
 10
11.722600
 20
30.879489
 30
0.0
  0
SPLINE
  5
193
100
AcDbEntity
  8
panel
 62
7
100
AcDbSpline
 70
8
 71
3
 72
8
 73
4
 74
0
 40
0
 40
0
 40
0
 40
0
 40
1
 40
1
 40
1
 40
1
 10
11.722600
 20
30.879489
 30
0.0
 10
12.573043
 20
30.879489
 30
0.0
 10
13.262464
 20
31.572908
 30
0.0
 10
13.262464
 20
32.428283
 30
0.0
  0
LINE
  5
194
100
AcDbEntity
  8
panel
 62
7
100
AcDbLine
 10
13.262464
 20
32.428283
 30
0.0
 11
13.262464
 21
32.428283
 31
0.0
  0
SPLINE
  5
195
100
AcDbEntity
  8
panel
 62
7
100
AcDbSpline
 70
8
 71
3
 72
8
 73
4
 74
0
 40
0
 40
0
 40
0
 40
0
 40
1
 40
1
 40
1
 40
1
 10
13.262464
 20
37.424392
 30
0.0
 10
13.262464
 20
37.977723
 30
0.0
 10
12.968968
 20
38.489022
 30
0.0
 10
12.492532
 20
38.765687
 30
0.0
  0
SPLINE
  5
196
100
AcDbEntity
  8
panel
 62
7
100
AcDbSpline
 70
8
 71
3
 72
8
 73
4
 74
0
 40
0
 40
0
 40
0
 40
0
 40
1
 40
1
 40
1
 40
1
 10
12.492532
 20
38.765687
 30
0.0
 10
12.016096
 20
39.042353
 30
0.0
 10
11.429103
 20
39.042353
 30
0.0
 10
10.952667
 20
38.765687
 30
0.0
  0
SPLINE
  5
197
100
AcDbEntity
  8
panel
 62
7
100
AcDbSpline
 70
8
 71
3
 72
8
 73
4
 74
0
 40
0
 40
0
 40
0
 40
0
 40
1
 40
1
 40
1
 40
1
 10
10.952667
 20
38.765687
 30
0.0
 10
10.476231
 20
38.489022
 30
0.0
 10
10.182735
 20
37.977723
 30
0.0
 10
10.182735
 20
37.424392
 30
0.0
  0
SPLINE
  5
198
100
AcDbEntity
  8
panel
 62
7
100
AcDbSpline
 70
8
 71
3
 72
8
 73
4
 74
0
 40
0
 40
0
 40
0
 40
0
 40
1
 40
1
 40
1
 40
1
 10
10.182735
 20
37.424392
 30
0.0
 10
10.182735
 20
36.569017
 30
0.0
 10
10.872156
 20
35.875598
 30
0.0
 10
11.722600
 20
35.875598
 30
0.0
  0
SPLINE
  5
199
100
AcDbEntity
  8
panel
 62
7
100
AcDbSpline
 70
8
 71
3
 72
8
 73
4
 74
0
 40
0
 40
0
 40
0
 40
0
 40
1
 40
1
 40
1
 40
1
 10
11.722600
 20
35.875598
 30
0.0
 10
12.573043
 20
35.875598
 30
0.0
 10
13.262464
 20
36.569017
 30
0.0
 10
13.262464
 20
37.424392
 30
0.0
  0
LINE
  5
19a
100
AcDbEntity
  8
panel
 62
7
100
AcDbLine
 10
13.262464
 20
37.424392
 30
0.0
 11
13.262464
 21
37.424392
 31
0.0
  0
SPLINE
  5
19b
100
AcDbEntity
  8
panel
 62
7
100
AcDbSpline
 70
8
 71
3
 72
8
 73
4
 74
0
 40
0
 40
0
 40
0
 40
0
 40
1
 40
1
 40
1
 40
1
 10
13.262464
 20
42.420502
 30
0.0
 10
13.262464
 20
42.973832
 30
0.0
 10
12.968968
 20
43.485131
 30
0.0
 10
12.492532
 20
43.761797
 30
0.0
  0
SPLINE
  5
19c
100
AcDbEntity
  8
panel
 62
7
100
AcDbSpline
 70
8
 71
3
 72
8
 73
4
 74
0
 40
0
 40
0
 40
0
 40
0
 40
1
 40
1
 40
1
 40
1
 10
12.492532
 20
43.761797
 30
0.0
 10
12.016096
 20
44.038462
 30
0.0
 10
11.429103
 20
44.038462
 30
0.0
 10
10.952667
 20
43.761797
 30
0.0
  0
SPLINE
  5
19d
100
AcDbEntity
  8
panel
 62
7
100
AcDbSpline
 70
8
 71
3
 72
8
 73
4
 74
0
 40
0
 40
0
 40
0
 40
0
 40
1
 40
1
 40
1
 40
1
 10
10.952667
 20
43.761797
 30
0.0
 10
10.476231
 20
43.485131
 30
0.0
 10
10.182735
 20
42.973832
 30
0.0
 10
10.182735
 20
42.420502
 30
0.0
  0
SPLINE
  5
19e
100
AcDbEntity
  8
panel
 62
7
100
AcDbSpline
 70
8
 71
3
 72
8
 73
4
 74
0
 40
0
 40
0
 40
0
 40
0
 40
1
 40
1
 40
1
 40
1
 10
10.182735
 20
42.420502
 30
0.0
 10
10.182735
 20
41.565126
 30
0.0
 10
10.872156
 20
40.871707
 30
0.0
 10
11.722600
 20
40.871707
 30
0.0
  0
SPLINE
  5
19f
100
AcDbEntity
  8
panel
 62
7
100
AcDbSpline
 70
8
 71
3
 72
8
 73
4
 74
0
 40
0
 40
0
 40
0
 40
0
 40
1
 40
1
 40
1
 40
1
 10
11.722600
 20
40.871707
 30
0.0
 10
12.573043
 20
40.871707
 30
0.0
 10
13.262464
 20
41.565126
 30
0.0
 10
13.262464
 20
42.420502
 30
0.0
  0
LINE
  5
1a0
100
AcDbEntity
  8
panel
 62
7
100
AcDbLine
 10
13.262464
 20
42.420502
 30
0.0
 11
13.262464
 21
42.420502
 31
0.0
  0
SPLINE
  5
1a1
100
AcDbEntity
  8
panel
 62
7
100
AcDbSpline
 70
8
 71
3
 72
8
 73
4
 74
0
 40
0
 40
0
 40
0
 40
0
 40
1
 40
1
 40
1
 40
1
 10
13.262464
 20
47.416611
 30
0.0
 10
13.262464
 20
47.969942
 30
0.0
 10
12.968968
 20
48.481241
 30
0.0
 10
12.492532
 20
48.757906
 30
0.0
  0
SPLINE
  5
1a2
100
AcDbEntity
  8
panel
 62
7
100
AcDbSpline
 70
8
 71
3
 72
8
 73
4
 74
0
 40
0
 40
0
 40
0
 40
0
 40
1
 40
1
 40
1
 40
1
 10
12.492532
 20
48.757906
 30
0.0
 10
12.016096
 20
49.034571
 30
0.0
 10
11.429103
 20
49.034571
 30
0.0
 10
10.952667
 20
48.757906
 30
0.0
  0
SPLINE
  5
1a3
100
AcDbEntity
  8
panel
 62
7
100
AcDbSpline
 70
8
 71
3
 72
8
 73
4
 74
0
 40
0
 40
0
 40
0
 40
0
 40
1
 40
1
 40
1
 40
1
 10
10.952667
 20
48.757906
 30
0.0
 10
10.476231
 20
48.481241
 30
0.0
 10
10.182735
 20
47.969942
 30
0.0
 10
10.182735
 20
47.416611
 30
0.0
  0
SPLINE
  5
1a4
100
AcDbEntity
  8
panel
 62
7
100
AcDbSpline
 70
8
 71
3
 72
8
 73
4
 74
0
 40
0
 40
0
 40
0
 40
0
 40
1
 40
1
 40
1
 40
1
 10
10.182735
 20
47.416611
 30
0.0
 10
10.182735
 20
46.561235
 30
0.0
 10
10.872156
 20
45.867817
 30
0.0
 10
11.722600
 20
45.867817
 30
0.0
  0
SPLINE
  5
1a5
100
AcDbEntity
  8
panel
 62
7
100
AcDbSpline
 70
8
 71
3
 72
8
 73
4
 74
0
 40
0
 40
0
 40
0
 40
0
 40
1
 40
1
 40
1
 40
1
 10
11.722600
 20
45.867817
 30
0.0
 10
12.573043
 20
45.867817
 30
0.0
 10
13.262464
 20
46.561235
 30
0.0
 10
13.262464
 20
47.416611
 30
0.0
  0
LINE
  5
1a6
100
AcDbEntity
  8
panel
 62
7
100
AcDbLine
 10
13.262464
 20
47.416611
 30
0.0
 11
13.262464
 21
47.416611
 31
0.0
  0
SPLINE
  5
1a7
100
AcDbEntity
  8
panel
 62
7
100
AcDbSpline
 70
8
 71
3
 72
8
 73
4
 74
0
 40
0
 40
0
 40
0
 40
0
 40
1
 40
1
 40
1
 40
1
 10
13.262464
 20
52.412720
 30
0.0
 10
13.262464
 20
52.966051
 30
0.0
 10
12.968968
 20
53.477350
 30
0.0
 10
12.492532
 20
53.754015
 30
0.0
  0
SPLINE
  5
1a8
100
AcDbEntity
  8
panel
 62
7
100
AcDbSpline
 70
8
 71
3
 72
8
 73
4
 74
0
 40
0
 40
0
 40
0
 40
0
 40
1
 40
1
 40
1
 40
1
 10
12.492532
 20
53.754015
 30
0.0
 10
12.016096
 20
54.030681
 30
0.0
 10
11.429103
 20
54.030681
 30
0.0
 10
10.952667
 20
53.754015
 30
0.0
  0
SPLINE
  5
1a9
100
AcDbEntity
  8
panel
 62
7
100
AcDbSpline
 70
8
 71
3
 72
8
 73
4
 74
0
 40
0
 40
0
 40
0
 40
0
 40
1
 40
1
 40
1
 40
1
 10
10.952667
 20
53.754015
 30
0.0
 10
10.476231
 20
53.477350
 30
0.0
 10
10.182735
 20
52.966051
 30
0.0
 10
10.182735
 20
52.412720
 30
0.0
  0
SPLINE
  5
1aa
100
AcDbEntity
  8
panel
 62
7
100
AcDbSpline
 70
8
 71
3
 72
8
 73
4
 74
0
 40
0
 40
0
 40
0
 40
0
 40
1
 40
1
 40
1
 40
1
 10
10.182735
 20
52.412720
 30
0.0
 10
10.182735
 20
51.557345
 30
0.0
 10
10.872156
 20
50.863926
 30
0.0
 10
11.722600
 20
50.863926
 30
0.0
  0
SPLINE
  5
1ab
100
AcDbEntity
  8
panel
 62
7
100
AcDbSpline
 70
8
 71
3
 72
8
 73
4
 74
0
 40
0
 40
0
 40
0
 40
0
 40
1
 40
1
 40
1
 40
1
 10
11.722600
 20
50.863926
 30
0.0
 10
12.573043
 20
50.863926
 30
0.0
 10
13.262464
 20
51.557345
 30
0.0
 10
13.262464
 20
52.412720
 30
0.0
  0
LINE
  5
1ac
100
AcDbEntity
  8
panel
 62
7
100
AcDbLine
 10
13.262464
 20
52.412720
 30
0.0
 11
13.262464
 21
52.412720
 31
0.0
  0
SPLINE
  5
1ad
100
AcDbEntity
  8
panel
 62
7
100
AcDbSpline
 70
8
 71
3
 72
8
 73
4
 74
0
 40
0
 40
0
 40
0
 40
0
 40
1
 40
1
 40
1
 40
1
 10
13.262464
 20
57.408827
 30
0.0
 10
13.262464
 20
57.962158
 30
0.0
 10
12.968968
 20
58.473457
 30
0.0
 10
12.492532
 20
58.750122
 30
0.0
  0
SPLINE
  5
1ae
100
AcDbEntity
  8
panel
 62
7
100
AcDbSpline
 70
8
 71
3
 72
8
 73
4
 74
0
 40
0
 40
0
 40
0
 40
0
 40
1
 40
1
 40
1
 40
1
 10
12.492532
 20
58.750122
 30
0.0
 10
12.016096
 20
59.026787
 30
0.0
 10
11.429103
 20
59.026787
 30
0.0
 10
10.952667
 20
58.750122
 30
0.0
  0
SPLINE
  5
1af
100
AcDbEntity
  8
panel
 62
7
100
AcDbSpline
 70
8
 71
3
 72
8
 73
4
 74
0
 40
0
 40
0
 40
0
 40
0
 40
1
 40
1
 40
1
 40
1
 10
10.952667
 20
58.750122
 30
0.0
 10
10.476231
 20
58.473457
 30
0.0
 10
10.182735
 20
57.962158
 30
0.0
 10
10.182735
 20
57.408827
 30
0.0
  0
SPLINE
  5
1b0
100
AcDbEntity
  8
panel
 62
7
100
AcDbSpline
 70
8
 71
3
 72
8
 73
4
 74
0
 40
0
 40
0
 40
0
 40
0
 40
1
 40
1
 40
1
 40
1
 10
10.182735
 20
57.408827
 30
0.0
 10
10.182735
 20
56.553451
 30
0.0
 10
10.872156
 20
55.860033
 30
0.0
 10
11.722600
 20
55.860033
 30
0.0
  0
SPLINE
  5
1b1
100
AcDbEntity
  8
panel
 62
7
100
AcDbSpline
 70
8
 71
3
 72
8
 73
4
 74
0
 40
0
 40
0
 40
0
 40
0
 40
1
 40
1
 40
1
 40
1
 10
11.722600
 20
55.860033
 30
0.0
 10
12.573043
 20
55.860033
 30
0.0
 10
13.262464
 20
56.553451
 30
0.0
 10
13.262464
 20
57.408827
 30
0.0
  0
LINE
  5
1b2
100
AcDbEntity
  8
panel
 62
7
100
AcDbLine
 10
13.262464
 20
57.408827
 30
0.0
 11
13.262464
 21
57.408827
 31
0.0
  0
SPLINE
  5
1b3
100
AcDbEntity
  8
panel
 62
7
100
AcDbSpline
 70
8
 71
3
 72
8
 73
4
 74
0
 40
0
 40
0
 40
0
 40
0
 40
1
 40
1
 40
1
 40
1
 10
13.262464
 20
62.404936
 30
0.0
 10
13.262464
 20
62.958267
 30
0.0
 10
12.968968
 20
63.469566
 30
0.0
 10
12.492532
 20
63.746231
 30
0.0
  0
SPLINE
  5
1b4
100
AcDbEntity
  8
panel
 62
7
100
AcDbSpline
 70
8
 71
3
 72
8
 73
4
 74
0
 40
0
 40
0
 40
0
 40
0
 40
1
 40
1
 40
1
 40
1
 10
12.492532
 20
63.746231
 30
0.0
 10
12.016096
 20
64.022897
 30
0.0
 10
11.429103
 20
64.022897
 30
0.0
 10
10.952667
 20
63.746231
 30
0.0
  0
SPLINE
  5
1b5
100
AcDbEntity
  8
panel
 62
7
100
AcDbSpline
 70
8
 71
3
 72
8
 73
4
 74
0
 40
0
 40
0
 40
0
 40
0
 40
1
 40
1
 40
1
 40
1
 10
10.952667
 20
63.746231
 30
0.0
 10
10.476231
 20
63.469566
 30
0.0
 10
10.182735
 20
62.958267
 30
0.0
 10
10.182735
 20
62.404936
 30
0.0
  0
SPLINE
  5
1b6
100
AcDbEntity
  8
panel
 62
7
100
AcDbSpline
 70
8
 71
3
 72
8
 73
4
 74
0
 40
0
 40
0
 40
0
 40
0
 40
1
 40
1
 40
1
 40
1
 10
10.182735
 20
62.404936
 30
0.0
 10
10.182735
 20
61.549561
 30
0.0
 10
10.872156
 20
60.856142
 30
0.0
 10
11.722600
 20
60.856142
 30
0.0
  0
SPLINE
  5
1b7
100
AcDbEntity
  8
panel
 62
7
100
AcDbSpline
 70
8
 71
3
 72
8
 73
4
 74
0
 40
0
 40
0
 40
0
 40
0
 40
1
 40
1
 40
1
 40
1
 10
11.722600
 20
60.856142
 30
0.0
 10
12.573043
 20
60.856142
 30
0.0
 10
13.262464
 20
61.549561
 30
0.0
 10
13.262464
 20
62.404936
 30
0.0
  0
LINE
  5
1b8
100
AcDbEntity
  8
panel
 62
7
100
AcDbLine
 10
13.262464
 20
62.404936
 30
0.0
 11
13.262464
 21
62.404936
 31
0.0
  0
SPLINE
  5
1b9
100
AcDbEntity
  8
panel
 62
7
100
AcDbSpline
 70
8
 71
3
 72
8
 73
4
 74
0
 40
0
 40
0
 40
0
 40
0
 40
1
 40
1
 40
1
 40
1
 10
10.749007
 20
108.715865
 30
0.0
 10
10.748006
 20
110.453495
 30
0.0
 10
9.347219
 20
111.861589
 30
0.0
 10
7.619606
 20
111.861589
 30
0.0
  0
SPLINE
  5
1ba
100
AcDbEntity
  8
panel
 62
7
100
AcDbSpline
 70
8
 71
3
 72
8
 73
4
 74
0
 40
0
 40
0
 40
0
 40
0
 40
1
 40
1
 40
1
 40
1
 10
7.619606
 20
111.861589
 30
0.0
 10
5.891994
 20
111.861589
 30
0.0
 10
4.491207
 20
110.453495
 30
0.0
 10
4.490205
 20
108.715865
 30
0.0
  0
SPLINE
  5
1bb
100
AcDbEntity
  8
panel
 62
7
100
AcDbSpline
 70
8
 71
3
 72
8
 73
4
 74
0
 40
0
 40
0
 40
0
 40
0
 40
1
 40
1
 40
1
 40
1
 10
4.490205
 20
108.715865
 30
0.0
 10
4.491207
 20
106.978235
 30
0.0
 10
5.891994
 20
105.570141
 30
0.0
 10
7.619606
 20
105.570141
 30
0.0
  0
SPLINE
  5
1bc
100
AcDbEntity
  8
panel
 62
7
100
AcDbSpline
 70
8
 71
3
 72
8
 73
4
 74
0
 40
0
 40
0
 40
0
 40
0
 40
1
 40
1
 40
1
 40
1
 10
7.619606
 20
105.570141
 30
0.0
 10
9.347219
 20
105.570141
 30
0.0
 10
10.748006
 20
106.978235
 30
0.0
 10
10.749007
 20
108.715865
 30
0.0
  0
LINE
  5
1bd
100
AcDbEntity
  8
panel
 62
7
100
AcDbLine
 10
10.749007
 20
108.715865
 30
0.0
 11
10.749007
 21
108.715865
 31
0.0
  0
SPLINE
  5
1be
100
AcDbEntity
  8
panel
 62
7
100
AcDbSpline
 70
8
 71
3
 72
8
 73
4
 74
0
 40
0
 40
0
 40
0
 40
0
 40
1
 40
1
 40
1
 40
1
 10
6.129416
 20
127.001624
 30
0.0
 10
5.579275
 20
127.001624
 30
0.0
 10
5.070924
 20
126.706426
 30
0.0
 10
4.795854
 20
126.227227
 30
0.0
  0
SPLINE
  5
1bf
100
AcDbEntity
  8
panel
 62
7
100
AcDbSpline
 70
8
 71
3
 72
8
 73
4
 74
0
 40
0
 40
0
 40
0
 40
0
 40
1
 40
1
 40
1
 40
1
 10
4.795854
 20
126.227227
 30
0.0
 10
4.520783
 20
125.748029
 30
0.0
 10
4.520783
 20
125.157632
 30
0.0
 10
4.795854
 20
124.678433
 30
0.0
  0
SPLINE
  5
1c0
100
AcDbEntity
  8
panel
 62
7
100
AcDbSpline
 70
8
 71
3
 72
8
 73
4
 74
0
 40
0
 40
0
 40
0
 40
0
 40
1
 40
1
 40
1
 40
1
 10
4.795854
 20
124.678433
 30
0.0
 10
5.070924
 20
124.199234
 30
0.0
 10
5.579275
 20
123.904036
 30
0.0
 10
6.129416
 20
123.904036
 30
0.0
  0
LINE
  5
1c1
100
AcDbEntity
  8
panel
 62
7
100
AcDbLine
 10
6.129534
 20
123.904168
 30
0.0
 11
9.109763
 21
123.904168
 31
0.0
  0
SPLINE
  5
1c2
100
AcDbEntity
  8
panel
 62
7
100
AcDbSpline
 70
8
 71
3
 72
8
 73
4
 74
0
 40
0
 40
0
 40
0
 40
0
 40
1
 40
1
 40
1
 40
1
 10
9.109797
 20
123.904036
 30
0.0
 10
9.659938
 20
123.904036
 30
0.0
 10
10.168289
 20
124.199234
 30
0.0
 10
10.443359
 20
124.678433
 30
0.0
  0
SPLINE
  5
1c3
100
AcDbEntity
  8
panel
 62
7
100
AcDbSpline
 70
8
 71
3
 72
8
 73
4
 74
0
 40
0
 40
0
 40
0
 40
0
 40
1
 40
1
 40
1
 40
1
 10
10.443359
 20
124.678433
 30
0.0
 10
10.718429
 20
125.157632
 30
0.0
 10
10.718429
 20
125.748029
 30
0.0
 10
10.443359
 20
126.227227
 30
0.0
  0
SPLINE
  5
1c4
100
AcDbEntity
  8
panel
 62
7
100
AcDbSpline
 70
8
 71
3
 72
8
 73
4
 74
0
 40
0
 40
0
 40
0
 40
0
 40
1
 40
1
 40
1
 40
1
 10
10.443359
 20
126.227227
 30
0.0
 10
10.168289
 20
126.706426
 30
0.0
 10
9.659938
 20
127.001624
 30
0.0
 10
9.109797
 20
127.001624
 30
0.0
  0
LINE
  5
1c5
100
AcDbEntity
  8
panel
 62
7
100
AcDbLine
 10
6.129534
 20
127.001614
 30
0.0
 11
9.109763
 21
127.001614
 31
0.0
  0
SPLINE
  5
1c6
100
AcDbEntity
  8
panel
 62
7
100
AcDbSpline
 70
8
 71
3
 72
8
 73
4
 74
0
 40
0
 40
0
 40
0
 40
0
 40
1
 40
1
 40
1
 40
1
 10
13.262464
 20
67.401045
 30
0.0
 10
13.262464
 20
67.954376
 30
0.0
 10
12.968968
 20
68.465675
 30
0.0
 10
12.492532
 20
68.742341
 30
0.0
  0
SPLINE
  5
1c7
100
AcDbEntity
  8
panel
 62
7
100
AcDbSpline
 70
8
 71
3
 72
8
 73
4
 74
0
 40
0
 40
0
 40
0
 40
0
 40
1
 40
1
 40
1
 40
1
 10
12.492532
 20
68.742341
 30
0.0
 10
12.016096
 20
69.019006
 30
0.0
 10
11.429103
 20
69.019006
 30
0.0
 10
10.952667
 20
68.742341
 30
0.0
  0
SPLINE
  5
1c8
100
AcDbEntity
  8
panel
 62
7
100
AcDbSpline
 70
8
 71
3
 72
8
 73
4
 74
0
 40
0
 40
0
 40
0
 40
0
 40
1
 40
1
 40
1
 40
1
 10
10.952667
 20
68.742341
 30
0.0
 10
10.476231
 20
68.465675
 30
0.0
 10
10.182735
 20
67.954376
 30
0.0
 10
10.182735
 20
67.401045
 30
0.0
  0
SPLINE
  5
1c9
100
AcDbEntity
  8
panel
 62
7
100
AcDbSpline
 70
8
 71
3
 72
8
 73
4
 74
0
 40
0
 40
0
 40
0
 40
0
 40
1
 40
1
 40
1
 40
1
 10
10.182735
 20
67.401045
 30
0.0
 10
10.182735
 20
66.545670
 30
0.0
 10
10.872156
 20
65.852251
 30
0.0
 10
11.722600
 20
65.852251
 30
0.0
  0
SPLINE
  5
1ca
100
AcDbEntity
  8
panel
 62
7
100
AcDbSpline
 70
8
 71
3
 72
8
 73
4
 74
0
 40
0
 40
0
 40
0
 40
0
 40
1
 40
1
 40
1
 40
1
 10
11.722600
 20
65.852251
 30
0.0
 10
12.573043
 20
65.852251
 30
0.0
 10
13.262464
 20
66.545670
 30
0.0
 10
13.262464
 20
67.401045
 30
0.0
  0
LINE
  5
1cb
100
AcDbEntity
  8
panel
 62
7
100
AcDbLine
 10
13.262464
 20
67.401045
 30
0.0
 11
13.262464
 21
67.401045
 31
0.0
  0
SPLINE
  5
1cc
100
AcDbEntity
  8
panel
 62
7
100
AcDbSpline
 70
8
 71
3
 72
8
 73
4
 74
0
 40
0
 40
0
 40
0
 40
0
 40
1
 40
1
 40
1
 40
1
 10
13.262464
 20
72.397155
 30
0.0
 10
13.262464
 20
72.950486
 30
0.0
 10
12.968968
 20
73.461784
 30
0.0
 10
12.492532
 20
73.738450
 30
0.0
  0
SPLINE
  5
1cd
100
AcDbEntity
  8
panel
 62
7
100
AcDbSpline
 70
8
 71
3
 72
8
 73
4
 74
0
 40
0
 40
0
 40
0
 40
0
 40
1
 40
1
 40
1
 40
1
 10
12.492532
 20
73.738450
 30
0.0
 10
12.016096
 20
74.015115
 30
0.0
 10
11.429103
 20
74.015115
 30
0.0
 10
10.952667
 20
73.738450
 30
0.0
  0
SPLINE
  5
1ce
100
AcDbEntity
  8
panel
 62
7
100
AcDbSpline
 70
8
 71
3
 72
8
 73
4
 74
0
 40
0
 40
0
 40
0
 40
0
 40
1
 40
1
 40
1
 40
1
 10
10.952667
 20
73.738450
 30
0.0
 10
10.476231
 20
73.461784
 30
0.0
 10
10.182735
 20
72.950486
 30
0.0
 10
10.182735
 20
72.397155
 30
0.0
  0
SPLINE
  5
1cf
100
AcDbEntity
  8
panel
 62
7
100
AcDbSpline
 70
8
 71
3
 72
8
 73
4
 74
0
 40
0
 40
0
 40
0
 40
0
 40
1
 40
1
 40
1
 40
1
 10
10.182735
 20
72.397155
 30
0.0
 10
10.182735
 20
71.541779
 30
0.0
 10
10.872156
 20
70.848360
 30
0.0
 10
11.722600
 20
70.848360
 30
0.0
  0
SPLINE
  5
1d0
100
AcDbEntity
  8
panel
 62
7
100
AcDbSpline
 70
8
 71
3
 72
8
 73
4
 74
0
 40
0
 40
0
 40
0
 40
0
 40
1
 40
1
 40
1
 40
1
 10
11.722600
 20
70.848360
 30
0.0
 10
12.573043
 20
70.848360
 30
0.0
 10
13.262464
 20
71.541779
 30
0.0
 10
13.262464
 20
72.397155
 30
0.0
  0
LINE
  5
1d1
100
AcDbEntity
  8
panel
 62
7
100
AcDbLine
 10
13.262464
 20
72.397155
 30
0.0
 11
13.262464
 21
72.397155
 31
0.0
  0
SPLINE
  5
1d2
100
AcDbEntity
  8
panel
 62
7
100
AcDbSpline
 70
8
 71
3
 72
8
 73
4
 74
0
 40
0
 40
0
 40
0
 40
0
 40
1
 40
1
 40
1
 40
1
 10
13.262464
 20
77.393261
 30
0.0
 10
13.262464
 20
77.946592
 30
0.0
 10
12.968968
 20
78.457891
 30
0.0
 10
12.492532
 20
78.734556
 30
0.0
  0
SPLINE
  5
1d3
100
AcDbEntity
  8
panel
 62
7
100
AcDbSpline
 70
8
 71
3
 72
8
 73
4
 74
0
 40
0
 40
0
 40
0
 40
0
 40
1
 40
1
 40
1
 40
1
 10
12.492532
 20
78.734556
 30
0.0
 10
12.016096
 20
79.011222
 30
0.0
 10
11.429103
 20
79.011222
 30
0.0
 10
10.952667
 20
78.734556
 30
0.0
  0
SPLINE
  5
1d4
100
AcDbEntity
  8
panel
 62
7
100
AcDbSpline
 70
8
 71
3
 72
8
 73
4
 74
0
 40
0
 40
0
 40
0
 40
0
 40
1
 40
1
 40
1
 40
1
 10
10.952667
 20
78.734556
 30
0.0
 10
10.476231
 20
78.457891
 30
0.0
 10
10.182735
 20
77.946592
 30
0.0
 10
10.182735
 20
77.393261
 30
0.0
  0
SPLINE
  5
1d5
100
AcDbEntity
  8
panel
 62
7
100
AcDbSpline
 70
8
 71
3
 72
8
 73
4
 74
0
 40
0
 40
0
 40
0
 40
0
 40
1
 40
1
 40
1
 40
1
 10
10.182735
 20
77.393261
 30
0.0
 10
10.182735
 20
76.537886
 30
0.0
 10
10.872156
 20
75.844467
 30
0.0
 10
11.722600
 20
75.844467
 30
0.0
  0
SPLINE
  5
1d6
100
AcDbEntity
  8
panel
 62
7
100
AcDbSpline
 70
8
 71
3
 72
8
 73
4
 74
0
 40
0
 40
0
 40
0
 40
0
 40
1
 40
1
 40
1
 40
1
 10
11.722600
 20
75.844467
 30
0.0
 10
12.573043
 20
75.844467
 30
0.0
 10
13.262464
 20
76.537886
 30
0.0
 10
13.262464
 20
77.393261
 30
0.0
  0
LINE
  5
1d7
100
AcDbEntity
  8
panel
 62
7
100
AcDbLine
 10
13.262464
 20
77.393261
 30
0.0
 11
13.262464
 21
77.393261
 31
0.0
  0
SPLINE
  5
1d8
100
AcDbEntity
  8
panel
 62
7
100
AcDbSpline
 70
8
 71
3
 72
8
 73
4
 74
0
 40
0
 40
0
 40
0
 40
0
 40
1
 40
1
 40
1
 40
1
 10
13.262464
 20
82.389371
 30
0.0
 10
13.262464
 20
82.942701
 30
0.0
 10
12.968968
 20
83.454000
 30
0.0
 10
12.492532
 20
83.730666
 30
0.0
  0
SPLINE
  5
1d9
100
AcDbEntity
  8
panel
 62
7
100
AcDbSpline
 70
8
 71
3
 72
8
 73
4
 74
0
 40
0
 40
0
 40
0
 40
0
 40
1
 40
1
 40
1
 40
1
 10
12.492532
 20
83.730666
 30
0.0
 10
12.016096
 20
84.007331
 30
0.0
 10
11.429103
 20
84.007331
 30
0.0
 10
10.952667
 20
83.730666
 30
0.0
  0
SPLINE
  5
1da
100
AcDbEntity
  8
panel
 62
7
100
AcDbSpline
 70
8
 71
3
 72
8
 73
4
 74
0
 40
0
 40
0
 40
0
 40
0
 40
1
 40
1
 40
1
 40
1
 10
10.952667
 20
83.730666
 30
0.0
 10
10.476231
 20
83.454000
 30
0.0
 10
10.182735
 20
82.942701
 30
0.0
 10
10.182735
 20
82.389371
 30
0.0
  0
SPLINE
  5
1db
100
AcDbEntity
  8
panel
 62
7
100
AcDbSpline
 70
8
 71
3
 72
8
 73
4
 74
0
 40
0
 40
0
 40
0
 40
0
 40
1
 40
1
 40
1
 40
1
 10
10.182735
 20
82.389371
 30
0.0
 10
10.182735
 20
81.533995
 30
0.0
 10
10.872156
 20
80.840576
 30
0.0
 10
11.722600
 20
80.840576
 30
0.0
  0
SPLINE
  5
1dc
100
AcDbEntity
  8
panel
 62
7
100
AcDbSpline
 70
8
 71
3
 72
8
 73
4
 74
0
 40
0
 40
0
 40
0
 40
0
 40
1
 40
1
 40
1
 40
1
 10
11.722600
 20
80.840576
 30
0.0
 10
12.573043
 20
80.840576
 30
0.0
 10
13.262464
 20
81.533995
 30
0.0
 10
13.262464
 20
82.389371
 30
0.0
  0
LINE
  5
1dd
100
AcDbEntity
  8
panel
 62
7
100
AcDbLine
 10
13.262464
 20
82.389371
 30
0.0
 11
13.262464
 21
82.389371
 31
0.0
  0
SPLINE
  5
1de
100
AcDbEntity
  8
panel
 62
7
100
AcDbSpline
 70
8
 71
3
 72
8
 73
4
 74
0
 40
0
 40
0
 40
0
 40
0
 40
1
 40
1
 40
1
 40
1
 10
13.262464
 20
87.385480
 30
0.0
 10
13.262464
 20
87.938811
 30
0.0
 10
12.968968
 20
88.450110
 30
0.0
 10
12.492532
 20
88.726775
 30
0.0
  0
SPLINE
  5
1df
100
AcDbEntity
  8
panel
 62
7
100
AcDbSpline
 70
8
 71
3
 72
8
 73
4
 74
0
 40
0
 40
0
 40
0
 40
0
 40
1
 40
1
 40
1
 40
1
 10
12.492532
 20
88.726775
 30
0.0
 10
12.016096
 20
89.003441
 30
0.0
 10
11.429103
 20
89.003441
 30
0.0
 10
10.952667
 20
88.726775
 30
0.0
  0
SPLINE
  5
1e0
100
AcDbEntity
  8
panel
 62
7
100
AcDbSpline
 70
8
 71
3
 72
8
 73
4
 74
0
 40
0
 40
0
 40
0
 40
0
 40
1
 40
1
 40
1
 40
1
 10
10.952667
 20
88.726775
 30
0.0
 10
10.476231
 20
88.450110
 30
0.0
 10
10.182735
 20
87.938811
 30
0.0
 10
10.182735
 20
87.385480
 30
0.0
  0
SPLINE
  5
1e1
100
AcDbEntity
  8
panel
 62
7
100
AcDbSpline
 70
8
 71
3
 72
8
 73
4
 74
0
 40
0
 40
0
 40
0
 40
0
 40
1
 40
1
 40
1
 40
1
 10
10.182735
 20
87.385480
 30
0.0
 10
10.182735
 20
86.530104
 30
0.0
 10
10.872156
 20
85.836686
 30
0.0
 10
11.722600
 20
85.836686
 30
0.0
  0
SPLINE
  5
1e2
100
AcDbEntity
  8
panel
 62
7
100
AcDbSpline
 70
8
 71
3
 72
8
 73
4
 74
0
 40
0
 40
0
 40
0
 40
0
 40
1
 40
1
 40
1
 40
1
 10
11.722600
 20
85.836686
 30
0.0
 10
12.573043
 20
85.836686
 30
0.0
 10
13.262464
 20
86.530104
 30
0.0
 10
13.262464
 20
87.385480
 30
0.0
  0
LINE
  5
1e3
100
AcDbEntity
  8
panel
 62
7
100
AcDbLine
 10
13.262464
 20
87.385480
 30
0.0
 11
13.262464
 21
87.385480
 31
0.0
  0
SPLINE
  5
1e4
100
AcDbEntity
  8
panel
 62
7
100
AcDbSpline
 70
8
 71
3
 72
8
 73
4
 74
0
 40
0
 40
0
 40
0
 40
0
 40
1
 40
1
 40
1
 40
1
 10
13.262464
 20
92.381589
 30
0.0
 10
13.262464
 20
92.934920
 30
0.0
 10
12.968968
 20
93.446219
 30
0.0
 10
12.492532
 20
93.722884
 30
0.0
  0
SPLINE
  5
1e5
100
AcDbEntity
  8
panel
 62
7
100
AcDbSpline
 70
8
 71
3
 72
8
 73
4
 74
0
 40
0
 40
0
 40
0
 40
0
 40
1
 40
1
 40
1
 40
1
 10
12.492532
 20
93.722884
 30
0.0
 10
12.016096
 20
93.999550
 30
0.0
 10
11.429103
 20
93.999550
 30
0.0
 10
10.952667
 20
93.722884
 30
0.0
  0
SPLINE
  5
1e6
100
AcDbEntity
  8
panel
 62
7
100
AcDbSpline
 70
8
 71
3
 72
8
 73
4
 74
0
 40
0
 40
0
 40
0
 40
0
 40
1
 40
1
 40
1
 40
1
 10
10.952667
 20
93.722884
 30
0.0
 10
10.476231
 20
93.446219
 30
0.0
 10
10.182735
 20
92.934920
 30
0.0
 10
10.182735
 20
92.381589
 30
0.0
  0
SPLINE
  5
1e7
100
AcDbEntity
  8
panel
 62
7
100
AcDbSpline
 70
8
 71
3
 72
8
 73
4
 74
0
 40
0
 40
0
 40
0
 40
0
 40
1
 40
1
 40
1
 40
1
 10
10.182735
 20
92.381589
 30
0.0
 10
10.182735
 20
91.526214
 30
0.0
 10
10.872156
 20
90.832795
 30
0.0
 10
11.722600
 20
90.832795
 30
0.0
  0
SPLINE
  5
1e8
100
AcDbEntity
  8
panel
 62
7
100
AcDbSpline
 70
8
 71
3
 72
8
 73
4
 74
0
 40
0
 40
0
 40
0
 40
0
 40
1
 40
1
 40
1
 40
1
 10
11.722600
 20
90.832795
 30
0.0
 10
12.573043
 20
90.832795
 30
0.0
 10
13.262464
 20
91.526214
 30
0.0
 10
13.262464
 20
92.381589
 30
0.0
  0
LINE
  5
1e9
100
AcDbEntity
  8
panel
 62
7
100
AcDbLine
 10
13.262464
 20
92.381589
 30
0.0
 11
13.262464
 21
92.381589
 31
0.0
  0
SPLINE
  5
1ea
100
AcDbEntity
  8
panel
 62
7
100
AcDbSpline
 70
8
 71
3
 72
8
 73
4
 74
0
 40
0
 40
0
 40
0
 40
0
 40
1
 40
1
 40
1
 40
1
 10
13.262464
 20
97.377698
 30
0.0
 10
13.262464
 20
97.931029
 30
0.0
 10
12.968968
 20
98.442328
 30
0.0
 10
12.492532
 20
98.718994
 30
0.0
  0
SPLINE
  5
1eb
100
AcDbEntity
  8
panel
 62
7
100
AcDbSpline
 70
8
 71
3
 72
8
 73
4
 74
0
 40
0
 40
0
 40
0
 40
0
 40
1
 40
1
 40
1
 40
1
 10
12.492532
 20
98.718994
 30
0.0
 10
12.016096
 20
98.995659
 30
0.0
 10
11.429103
 20
98.995659
 30
0.0
 10
10.952667
 20
98.718994
 30
0.0
  0
SPLINE
  5
1ec
100
AcDbEntity
  8
panel
 62
7
100
AcDbSpline
 70
8
 71
3
 72
8
 73
4
 74
0
 40
0
 40
0
 40
0
 40
0
 40
1
 40
1
 40
1
 40
1
 10
10.952667
 20
98.718994
 30
0.0
 10
10.476231
 20
98.442328
 30
0.0
 10
10.182735
 20
97.931029
 30
0.0
 10
10.182735
 20
97.377698
 30
0.0
  0
SPLINE
  5
1ed
100
AcDbEntity
  8
panel
 62
7
100
AcDbSpline
 70
8
 71
3
 72
8
 73
4
 74
0
 40
0
 40
0
 40
0
 40
0
 40
1
 40
1
 40
1
 40
1
 10
10.182735
 20
97.377698
 30
0.0
 10
10.182735
 20
96.522323
 30
0.0
 10
10.872156
 20
95.828904
 30
0.0
 10
11.722600
 20
95.828904
 30
0.0
  0
SPLINE
  5
1ee
100
AcDbEntity
  8
panel
 62
7
100
AcDbSpline
 70
8
 71
3
 72
8
 73
4
 74
0
 40
0
 40
0
 40
0
 40
0
 40
1
 40
1
 40
1
 40
1
 10
11.722600
 20
95.828904
 30
0.0
 10
12.573043
 20
95.828904
 30
0.0
 10
13.262464
 20
96.522323
 30
0.0
 10
13.262464
 20
97.377698
 30
0.0
  0
LINE
  5
1ef
100
AcDbEntity
  8
panel
 62
7
100
AcDbLine
 10
13.262464
 20
97.377698
 30
0.0
 11
13.262464
 21
97.377698
 31
0.0
  0
SPLINE
  5
1f0
100
AcDbEntity
  8
panel
 62
7
100
AcDbSpline
 70
8
 71
3
 72
8
 73
4
 74
0
 40
0
 40
0
 40
0
 40
0
 40
1
 40
1
 40
1
 40
1
 10
13.262464
 20
102.373805
 30
0.0
 10
13.262464
 20
102.927136
 30
0.0
 10
12.968968
 20
103.438435
 30
0.0
 10
12.492532
 20
103.715100
 30
0.0
  0
SPLINE
  5
1f1
100
AcDbEntity
  8
panel
 62
7
100
AcDbSpline
 70
8
 71
3
 72
8
 73
4
 74
0
 40
0
 40
0
 40
0
 40
0
 40
1
 40
1
 40
1
 40
1
 10
12.492532
 20
103.715100
 30
0.0
 10
12.016096
 20
103.991766
 30
0.0
 10
11.429103
 20
103.991766
 30
0.0
 10
10.952667
 20
103.715100
 30
0.0
  0
SPLINE
  5
1f2
100
AcDbEntity
  8
panel
 62
7
100
AcDbSpline
 70
8
 71
3
 72
8
 73
4
 74
0
 40
0
 40
0
 40
0
 40
0
 40
1
 40
1
 40
1
 40
1
 10
10.952667
 20
103.715100
 30
0.0
 10
10.476231
 20
103.438435
 30
0.0
 10
10.182735
 20
102.927136
 30
0.0
 10
10.182735
 20
102.373805
 30
0.0
  0
SPLINE
  5
1f3
100
AcDbEntity
  8
panel
 62
7
100
AcDbSpline
 70
8
 71
3
 72
8
 73
4
 74
0
 40
0
 40
0
 40
0
 40
0
 40
1
 40
1
 40
1
 40
1
 10
10.182735
 20
102.373805
 30
0.0
 10
10.182735
 20
101.518430
 30
0.0
 10
10.872156
 20
100.825011
 30
0.0
 10
11.722600
 20
100.825011
 30
0.0
  0
SPLINE
  5
1f4
100
AcDbEntity
  8
panel
 62
7
100
AcDbSpline
 70
8
 71
3
 72
8
 73
4
 74
0
 40
0
 40
0
 40
0
 40
0
 40
1
 40
1
 40
1
 40
1
 10
11.722600
 20
100.825011
 30
0.0
 10
12.573043
 20
100.825011
 30
0.0
 10
13.262464
 20
101.518430
 30
0.0
 10
13.262464
 20
102.373805
 30
0.0
  0
LINE
  5
1f5
100
AcDbEntity
  8
panel
 62
7
100
AcDbLine
 10
13.262464
 20
102.373805
 30
0.0
 11
13.262464
 21
102.373805
 31
0.0
  0
LINE
  5
1f6
100
AcDbEntity
  8
text
 62
7
100
AcDbLine
 10
2.380704
 20
103.039294
 30
0.0
 11
2.380704
 21
101.439090
 31
0.0
  0
LINE
  5
1f7
100
AcDbEntity
  8
text
 62
7
100
AcDbLine
 10
1.579191
 20
102.240603
 30
0.0
 11
3.182217
 21
102.240603
 31
0.0
  0
LINE
  5
1f8
100
AcDbEntity
  8
text
 62
7
100
AcDbLine
 10
4.071223
 20
102.951805
 30
0.0
 11
4.246202
 21
103.039294
 31
0.0
  0
LINE
  5
1f9
100
AcDbEntity
  8
text
 62
7
100
AcDbLine
 10
4.246202
 20
103.039294
 30
0.0
 11
4.514313
 21
103.307406
 31
0.0
  0
LINE
  5
1fa
100
AcDbEntity
  8
text
 62
7
100
AcDbLine
 10
4.514313
 20
103.307406
 30
0.0
 11
4.514313
 21
101.439090
 31
0.0
  0
LINE
  5
1fb
100
AcDbEntity
  8
text
 62
7
100
AcDbLine
 10
6.114513
 20
103.307406
 30
0.0
 11
5.849223
 21
103.217095
 31
0.0
  0
LINE
  5
1fc
100
AcDbEntity
  8
text
 62
7
100
AcDbLine
 10
5.849223
 20
103.217095
 30
0.0
 11
5.668601
 21
102.951805
 31
0.0
  0
LINE
  5
1fd
100
AcDbEntity
  8
text
 62
7
100
AcDbLine
 10
5.668601
 20
102.951805
 30
0.0
 11
5.581111
 21
102.505893
 31
0.0
  0
LINE
  5
1fe
100
AcDbEntity
  8
text
 62
7
100
AcDbLine
 10
5.581111
 20
102.505893
 30
0.0
 11
5.581111
 21
102.240603
 31
0.0
  0
LINE
  5
1ff
100
AcDbEntity
  8
text
 62
7
100
AcDbLine
 10
5.581111
 20
102.240603
 30
0.0
 11
5.668601
 21
101.794691
 31
0.0
  0
LINE
  5
200
100
AcDbEntity
  8
text
 62
7
100
AcDbLine
 10
5.668601
 20
101.794691
 30
0.0
 11
5.849223
 21
101.527990
 31
0.0
  0
LINE
  5
201
100
AcDbEntity
  8
text
 62
7
100
AcDbLine
 10
5.849223
 20
101.527990
 30
0.0
 11
6.114513
 21
101.439090
 31
0.0
  0
LINE
  5
202
100
AcDbEntity
  8
text
 62
7
100
AcDbLine
 10
6.114513
 20
101.439090
 30
0.0
 11
6.292313
 21
101.439090
 31
0.0
  0
LINE
  5
203
100
AcDbEntity
  8
text
 62
7
100
AcDbLine
 10
6.292313
 20
101.439090
 30
0.0
 11
6.560425
 21
101.527990
 31
0.0
  0
LINE
  5
204
100
AcDbEntity
  8
text
 62
7
100
AcDbLine
 10
6.560425
 20
101.527990
 30
0.0
 11
6.735404
 21
101.794691
 31
0.0
  0
LINE
  5
205
100
AcDbEntity
  8
text
 62
7
100
AcDbLine
 10
6.735404
 20
101.794691
 30
0.0
 11
6.825715
 21
102.240603
 31
0.0
  0
LINE
  5
206
100
AcDbEntity
  8
text
 62
7
100
AcDbLine
 10
6.825715
 20
102.240603
 30
0.0
 11
6.825715
 21
102.505893
 31
0.0
  0
LINE
  5
207
100
AcDbEntity
  8
text
 62
7
100
AcDbLine
 10
6.825715
 20
102.505893
 30
0.0
 11
6.735404
 21
102.951805
 31
0.0
  0
LINE
  5
208
100
AcDbEntity
  8
text
 62
7
100
AcDbLine
 10
6.735404
 20
102.951805
 30
0.0
 11
6.560425
 21
103.217095
 31
0.0
  0
LINE
  5
209
100
AcDbEntity
  8
text
 62
7
100
AcDbLine
 10
6.560425
 20
103.217095
 30
0.0
 11
6.292313
 21
103.307406
 31
0.0
  0
LINE
  5
20a
100
AcDbEntity
  8
text
 62
7
100
AcDbLine
 10
6.292313
 20
103.307406
 30
0.0
 11
6.114513
 21
103.307406
 31
0.0
  0
LINE
  5
20b
100
AcDbEntity
  8
text
 62
7
100
AcDbLine
 10
7.181321
 20
103.307406
 30
0.0
 11
7.892523
 21
101.439090
 31
0.0
  0
LINE
  5
20c
100
AcDbEntity
  8
text
 62
7
100
AcDbLine
 10
8.603725
 20
103.307406
 30
0.0
 11
7.892523
 21
101.439090
 31
0.0
  0
LINE
  5
20d
100
AcDbEntity
  8
text
 62
7
100
AcDbLine
 10
2.330704
 20
98.043184
 30
0.0
 11
2.330704
 21
96.442980
 31
0.0
  0
LINE
  5
20e
100
AcDbEntity
  8
text
 62
7
100
AcDbLine
 10
1.529191
 20
97.244493
 30
0.0
 11
3.132217
 21
97.244493
 31
0.0
  0
LINE
  5
20f
100
AcDbEntity
  8
text
 62
7
100
AcDbLine
 10
4.819914
 20
98.311296
 30
0.0
 11
3.930912
 21
98.311296
 31
0.0
  0
LINE
  5
210
100
AcDbEntity
  8
text
 62
7
100
AcDbLine
 10
3.930912
 20
98.311296
 30
0.0
 11
3.840601
 21
97.509783
 31
0.0
  0
LINE
  5
211
100
AcDbEntity
  8
text
 62
7
100
AcDbLine
 10
3.840601
 20
97.509783
 30
0.0
 11
3.930912
 21
97.600094
 31
0.0
  0
LINE
  5
212
100
AcDbEntity
  8
text
 62
7
100
AcDbLine
 10
3.930912
 20
97.600094
 30
0.0
 11
4.196202
 21
97.687583
 31
0.0
  0
LINE
  5
213
100
AcDbEntity
  8
text
 62
7
100
AcDbLine
 10
4.196202
 20
97.687583
 30
0.0
 11
4.464313
 21
97.687583
 31
0.0
  0
LINE
  5
214
100
AcDbEntity
  8
text
 62
7
100
AcDbLine
 10
4.464313
 20
97.687583
 30
0.0
 11
4.732425
 21
97.600094
 31
0.0
  0
LINE
  5
215
100
AcDbEntity
  8
text
 62
7
100
AcDbLine
 10
4.732425
 20
97.600094
 30
0.0
 11
4.907404
 21
97.419472
 31
0.0
  0
LINE
  5
216
100
AcDbEntity
  8
text
 62
7
100
AcDbLine
 10
4.907404
 20
97.419472
 30
0.0
 11
4.997715
 21
97.154182
 31
0.0
  0
LINE
  5
217
100
AcDbEntity
  8
text
 62
7
100
AcDbLine
 10
4.997715
 20
97.154182
 30
0.0
 11
4.997715
 21
96.976381
 31
0.0
  0
LINE
  5
218
100
AcDbEntity
  8
text
 62
7
100
AcDbLine
 10
4.997715
 20
96.976381
 30
0.0
 11
4.907404
 21
96.709681
 31
0.0
  0
LINE
  5
219
100
AcDbEntity
  8
text
 62
7
100
AcDbLine
 10
4.907404
 20
96.709681
 30
0.0
 11
4.732425
 21
96.531880
 31
0.0
  0
LINE
  5
21a
100
AcDbEntity
  8
text
 62
7
100
AcDbLine
 10
4.732425
 20
96.531880
 30
0.0
 11
4.464313
 21
96.442980
 31
0.0
  0
LINE
  5
21b
100
AcDbEntity
  8
text
 62
7
100
AcDbLine
 10
4.464313
 20
96.442980
 30
0.0
 11
4.196202
 21
96.442980
 31
0.0
  0
LINE
  5
21c
100
AcDbEntity
  8
text
 62
7
100
AcDbLine
 10
4.196202
 20
96.442980
 30
0.0
 11
3.930912
 21
96.531880
 31
0.0
  0
LINE
  5
21d
100
AcDbEntity
  8
text
 62
7
100
AcDbLine
 10
3.930912
 20
96.531880
 30
0.0
 11
3.840601
 21
96.620780
 31
0.0
  0
LINE
  5
21e
100
AcDbEntity
  8
text
 62
7
100
AcDbLine
 10
3.840601
 20
96.620780
 30
0.0
 11
3.753111
 21
96.798581
 31
0.0
  0
LINE
  5
21f
100
AcDbEntity
  8
text
 62
7
100
AcDbLine
 10
5.353311
 20
98.311296
 30
0.0
 11
6.064513
 21
96.442980
 31
0.0
  0
LINE
  5
220
100
AcDbEntity
  8
text
 62
7
100
AcDbLine
 10
6.775715
 20
98.311296
 30
0.0
 11
6.064513
 21
96.442980
 31
0.0
  0
LINE
  5
221
100
AcDbEntity
  8
text
 62
7
100
AcDbLine
 10
2.330704
 20
93.047074
 30
0.0
 11
2.330704
 21
91.446870
 31
0.0
  0
LINE
  5
222
100
AcDbEntity
  8
text
 62
7
100
AcDbLine
 10
1.529191
 20
92.248383
 30
0.0
 11
3.132217
 21
92.248383
 31
0.0
  0
LINE
  5
223
100
AcDbEntity
  8
text
 62
7
100
AcDbLine
 10
3.930912
 20
93.315186
 30
0.0
 11
4.907404
 21
93.315186
 31
0.0
  0
LINE
  5
224
100
AcDbEntity
  8
text
 62
7
100
AcDbLine
 10
4.907404
 20
93.315186
 30
0.0
 11
4.376824
 21
92.603984
 31
0.0
  0
LINE
  5
225
100
AcDbEntity
  8
text
 62
7
100
AcDbLine
 10
4.376824
 20
92.603984
 30
0.0
 11
4.642114
 21
92.603984
 31
0.0
  0
LINE
  5
226
100
AcDbEntity
  8
text
 62
7
100
AcDbLine
 10
4.642114
 20
92.603984
 30
0.0
 11
4.819914
 21
92.513673
 31
0.0
  0
LINE
  5
227
100
AcDbEntity
  8
text
 62
7
100
AcDbLine
 10
4.819914
 20
92.513673
 30
0.0
 11
4.907404
 21
92.423362
 31
0.0
  0
LINE
  5
228
100
AcDbEntity
  8
text
 62
7
100
AcDbLine
 10
4.907404
 20
92.423362
 30
0.0
 11
4.997715
 21
92.158072
 31
0.0
  0
LINE
  5
229
100
AcDbEntity
  8
text
 62
7
100
AcDbLine
 10
4.997715
 20
92.158072
 30
0.0
 11
4.997715
 21
91.980271
 31
0.0
  0
LINE
  5
22a
100
AcDbEntity
  8
text
 62
7
100
AcDbLine
 10
4.997715
 20
91.980271
 30
0.0
 11
4.907404
 21
91.713571
 31
0.0
  0
LINE
  5
22b
100
AcDbEntity
  8
text
 62
7
100
AcDbLine
 10
4.907404
 20
91.713571
 30
0.0
 11
4.732425
 21
91.535770
 31
0.0
  0
LINE
  5
22c
100
AcDbEntity
  8
text
 62
7
100
AcDbLine
 10
4.732425
 20
91.535770
 30
0.0
 11
4.464313
 21
91.446870
 31
0.0
  0
LINE
  5
22d
100
AcDbEntity
  8
text
 62
7
100
AcDbLine
 10
4.464313
 20
91.446870
 30
0.0
 11
4.196202
 21
91.446870
 31
0.0
  0
LINE
  5
22e
100
AcDbEntity
  8
text
 62
7
100
AcDbLine
 10
4.196202
 20
91.446870
 30
0.0
 11
3.930912
 21
91.535770
 31
0.0
  0
LINE
  5
22f
100
AcDbEntity
  8
text
 62
7
100
AcDbLine
 10
3.930912
 20
91.535770
 30
0.0
 11
3.840601
 21
91.624670
 31
0.0
  0
LINE
  5
230
100
AcDbEntity
  8
text
 62
7
100
AcDbLine
 10
3.840601
 20
91.624670
 30
0.0
 11
3.753111
 21
91.802471
 31
0.0
  0
LINE
  5
231
100
AcDbEntity
  8
text
 62
7
100
AcDbLine
 10
5.618601
 20
91.892782
 30
0.0
 11
5.531111
 21
91.802471
 31
0.0
  0
LINE
  5
232
100
AcDbEntity
  8
text
 62
7
100
AcDbLine
 10
5.531111
 20
91.802471
 30
0.0
 11
5.618601
 21
91.713571
 31
0.0
  0
LINE
  5
233
100
AcDbEntity
  8
text
 62
7
100
AcDbLine
 10
5.618601
 20
91.713571
 30
0.0
 11
5.708912
 21
91.802471
 31
0.0
  0
LINE
  5
234
100
AcDbEntity
  8
text
 62
7
100
AcDbLine
 10
5.708912
 20
91.802471
 30
0.0
 11
5.618601
 21
91.892782
 31
0.0
  0
LINE
  5
235
100
AcDbEntity
  8
text
 62
7
100
AcDbLine
 10
6.420112
 20
93.315186
 30
0.0
 11
7.396604
 21
93.315186
 31
0.0
  0
LINE
  5
236
100
AcDbEntity
  8
text
 62
7
100
AcDbLine
 10
7.396604
 20
93.315186
 30
0.0
 11
6.866024
 21
92.603984
 31
0.0
  0
LINE
  5
237
100
AcDbEntity
  8
text
 62
7
100
AcDbLine
 10
6.866024
 20
92.603984
 30
0.0
 11
7.131314
 21
92.603984
 31
0.0
  0
LINE
  5
238
100
AcDbEntity
  8
text
 62
7
100
AcDbLine
 10
7.131314
 20
92.603984
 30
0.0
 11
7.309114
 21
92.513673
 31
0.0
  0
LINE
  5
239
100
AcDbEntity
  8
text
 62
7
100
AcDbLine
 10
7.309114
 20
92.513673
 30
0.0
 11
7.396604
 21
92.423362
 31
0.0
  0
LINE
  5
23a
100
AcDbEntity
  8
text
 62
7
100
AcDbLine
 10
7.396604
 20
92.423362
 30
0.0
 11
7.486915
 21
92.158072
 31
0.0
  0
LINE
  5
23b
100
AcDbEntity
  8
text
 62
7
100
AcDbLine
 10
7.486915
 20
92.158072
 30
0.0
 11
7.486915
 21
91.980271
 31
0.0
  0
LINE
  5
23c
100
AcDbEntity
  8
text
 62
7
100
AcDbLine
 10
7.486915
 20
91.980271
 30
0.0
 11
7.396604
 21
91.713571
 31
0.0
  0
LINE
  5
23d
100
AcDbEntity
  8
text
 62
7
100
AcDbLine
 10
7.396604
 20
91.713571
 30
0.0
 11
7.221625
 21
91.535770
 31
0.0
  0
LINE
  5
23e
100
AcDbEntity
  8
text
 62
7
100
AcDbLine
 10
7.221625
 20
91.535770
 30
0.0
 11
6.953513
 21
91.446870
 31
0.0
  0
LINE
  5
23f
100
AcDbEntity
  8
text
 62
7
100
AcDbLine
 10
6.953513
 20
91.446870
 30
0.0
 11
6.685402
 21
91.446870
 31
0.0
  0
LINE
  5
240
100
AcDbEntity
  8
text
 62
7
100
AcDbLine
 10
6.685402
 20
91.446870
 30
0.0
 11
6.420112
 21
91.535770
 31
0.0
  0
LINE
  5
241
100
AcDbEntity
  8
text
 62
7
100
AcDbLine
 10
6.420112
 20
91.535770
 30
0.0
 11
6.329801
 21
91.624670
 31
0.0
  0
LINE
  5
242
100
AcDbEntity
  8
text
 62
7
100
AcDbLine
 10
6.329801
 20
91.624670
 30
0.0
 11
6.242311
 21
91.802471
 31
0.0
  0
LINE
  5
243
100
AcDbEntity
  8
text
 62
7
100
AcDbLine
 10
7.842521
 20
93.315186
 30
0.0
 11
8.553723
 21
91.446870
 31
0.0
  0
LINE
  5
244
100
AcDbEntity
  8
text
 62
7
100
AcDbLine
 10
9.264925
 20
93.315186
 30
0.0
 11
8.553723
 21
91.446870
 31
0.0
  0
LINE
  5
245
100
AcDbEntity
  8
text
 62
7
100
AcDbLine
 10
2.330704
 20
88.050954
 30
0.0
 11
2.330704
 21
86.450750
 31
0.0
  0
LINE
  5
246
100
AcDbEntity
  8
text
 62
7
100
AcDbLine
 10
1.529191
 20
87.252263
 30
0.0
 11
3.132217
 21
87.252263
 31
0.0
  0
LINE
  5
247
100
AcDbEntity
  8
text
 62
7
100
AcDbLine
 10
4.021223
 20
87.963465
 30
0.0
 11
4.196202
 21
88.050954
 31
0.0
  0
LINE
  5
248
100
AcDbEntity
  8
text
 62
7
100
AcDbLine
 10
4.196202
 20
88.050954
 30
0.0
 11
4.464313
 21
88.319066
 31
0.0
  0
LINE
  5
249
100
AcDbEntity
  8
text
 62
7
100
AcDbLine
 10
4.464313
 20
88.319066
 30
0.0
 11
4.464313
 21
86.450750
 31
0.0
  0
LINE
  5
24a
100
AcDbEntity
  8
text
 62
7
100
AcDbLine
 10
5.353311
 20
88.319066
 30
0.0
 11
6.064513
 21
86.450750
 31
0.0
  0
LINE
  5
24b
100
AcDbEntity
  8
text
 62
7
100
AcDbLine
 10
6.775715
 20
88.319066
 30
0.0
 11
6.064513
 21
86.450750
 31
0.0
  0
LINE
  5
24c
100
AcDbEntity
  8
text
 62
7
100
AcDbLine
 10
1.529191
 20
82.256153
 30
0.0
 11
3.132217
 21
82.256153
 31
0.0
  0
LINE
  5
24d
100
AcDbEntity
  8
text
 62
7
100
AcDbLine
 10
4.021223
 20
82.967355
 30
0.0
 11
4.196202
 21
83.054844
 31
0.0
  0
LINE
  5
24e
100
AcDbEntity
  8
text
 62
7
100
AcDbLine
 10
4.196202
 20
83.054844
 30
0.0
 11
4.464313
 21
83.322956
 31
0.0
  0
LINE
  5
24f
100
AcDbEntity
  8
text
 62
7
100
AcDbLine
 10
4.464313
 20
83.322956
 30
0.0
 11
4.464313
 21
81.454640
 31
0.0
  0
LINE
  5
250
100
AcDbEntity
  8
text
 62
7
100
AcDbLine
 10
5.353311
 20
83.322956
 30
0.0
 11
6.064513
 21
81.454640
 31
0.0
  0
LINE
  5
251
100
AcDbEntity
  8
text
 62
7
100
AcDbLine
 10
6.775715
 20
83.322956
 30
0.0
 11
6.064513
 21
81.454640
 31
0.0
  0
LINE
  5
252
100
AcDbEntity
  8
text
 62
7
100
AcDbLine
 10
1.529191
 20
77.260033
 30
0.0
 11
3.132217
 21
77.260033
 31
0.0
  0
LINE
  5
253
100
AcDbEntity
  8
text
 62
7
100
AcDbLine
 10
3.930912
 20
78.326836
 30
0.0
 11
4.907404
 21
78.326836
 31
0.0
  0
LINE
  5
254
100
AcDbEntity
  8
text
 62
7
100
AcDbLine
 10
4.907404
 20
78.326836
 30
0.0
 11
4.376824
 21
77.615634
 31
0.0
  0
LINE
  5
255
100
AcDbEntity
  8
text
 62
7
100
AcDbLine
 10
4.376824
 20
77.615634
 30
0.0
 11
4.642114
 21
77.615634
 31
0.0
  0
LINE
  5
256
100
AcDbEntity
  8
text
 62
7
100
AcDbLine
 10
4.642114
 20
77.615634
 30
0.0
 11
4.819914
 21
77.525323
 31
0.0
  0
LINE
  5
257
100
AcDbEntity
  8
text
 62
7
100
AcDbLine
 10
4.819914
 20
77.525323
 30
0.0
 11
4.907404
 21
77.435012
 31
0.0
  0
LINE
  5
258
100
AcDbEntity
  8
text
 62
7
100
AcDbLine
 10
4.907404
 20
77.435012
 30
0.0
 11
4.997715
 21
77.169722
 31
0.0
  0
LINE
  5
259
100
AcDbEntity
  8
text
 62
7
100
AcDbLine
 10
4.997715
 20
77.169722
 30
0.0
 11
4.997715
 21
76.991921
 31
0.0
  0
LINE
  5
25a
100
AcDbEntity
  8
text
 62
7
100
AcDbLine
 10
4.997715
 20
76.991921
 30
0.0
 11
4.907404
 21
76.725221
 31
0.0
  0
LINE
  5
25b
100
AcDbEntity
  8
text
 62
7
100
AcDbLine
 10
4.907404
 20
76.725221
 30
0.0
 11
4.732425
 21
76.547420
 31
0.0
  0
LINE
  5
25c
100
AcDbEntity
  8
text
 62
7
100
AcDbLine
 10
4.732425
 20
76.547420
 30
0.0
 11
4.464313
 21
76.458520
 31
0.0
  0
LINE
  5
25d
100
AcDbEntity
  8
text
 62
7
100
AcDbLine
 10
4.464313
 20
76.458520
 30
0.0
 11
4.196202
 21
76.458520
 31
0.0
  0
LINE
  5
25e
100
AcDbEntity
  8
text
 62
7
100
AcDbLine
 10
4.196202
 20
76.458520
 30
0.0
 11
3.930912
 21
76.547420
 31
0.0
  0
LINE
  5
25f
100
AcDbEntity
  8
text
 62
7
100
AcDbLine
 10
3.930912
 20
76.547420
 30
0.0
 11
3.840601
 21
76.636320
 31
0.0
  0
LINE
  5
260
100
AcDbEntity
  8
text
 62
7
100
AcDbLine
 10
3.840601
 20
76.636320
 30
0.0
 11
3.753111
 21
76.814121
 31
0.0
  0
LINE
  5
261
100
AcDbEntity
  8
text
 62
7
100
AcDbLine
 10
5.618601
 20
76.904432
 30
0.0
 11
5.531111
 21
76.814121
 31
0.0
  0
LINE
  5
262
100
AcDbEntity
  8
text
 62
7
100
AcDbLine
 10
5.531111
 20
76.814121
 30
0.0
 11
5.618601
 21
76.725221
 31
0.0
  0
LINE
  5
263
100
AcDbEntity
  8
text
 62
7
100
AcDbLine
 10
5.618601
 20
76.725221
 30
0.0
 11
5.708912
 21
76.814121
 31
0.0
  0
LINE
  5
264
100
AcDbEntity
  8
text
 62
7
100
AcDbLine
 10
5.708912
 20
76.814121
 30
0.0
 11
5.618601
 21
76.904432
 31
0.0
  0
LINE
  5
265
100
AcDbEntity
  8
text
 62
7
100
AcDbLine
 10
6.420112
 20
78.326836
 30
0.0
 11
7.396604
 21
78.326836
 31
0.0
  0
LINE
  5
266
100
AcDbEntity
  8
text
 62
7
100
AcDbLine
 10
7.396604
 20
78.326836
 30
0.0
 11
6.866024
 21
77.615634
 31
0.0
  0
LINE
  5
267
100
AcDbEntity
  8
text
 62
7
100
AcDbLine
 10
6.866024
 20
77.615634
 30
0.0
 11
7.131314
 21
77.615634
 31
0.0
  0
LINE
  5
268
100
AcDbEntity
  8
text
 62
7
100
AcDbLine
 10
7.131314
 20
77.615634
 30
0.0
 11
7.309114
 21
77.525323
 31
0.0
  0
LINE
  5
269
100
AcDbEntity
  8
text
 62
7
100
AcDbLine
 10
7.309114
 20
77.525323
 30
0.0
 11
7.396604
 21
77.435012
 31
0.0
  0
LINE
  5
26a
100
AcDbEntity
  8
text
 62
7
100
AcDbLine
 10
7.396604
 20
77.435012
 30
0.0
 11
7.486915
 21
77.169722
 31
0.0
  0
LINE
  5
26b
100
AcDbEntity
  8
text
 62
7
100
AcDbLine
 10
7.486915
 20
77.169722
 30
0.0
 11
7.486915
 21
76.991921
 31
0.0
  0
LINE
  5
26c
100
AcDbEntity
  8
text
 62
7
100
AcDbLine
 10
7.486915
 20
76.991921
 30
0.0
 11
7.396604
 21
76.725221
 31
0.0
  0
LINE
  5
26d
100
AcDbEntity
  8
text
 62
7
100
AcDbLine
 10
7.396604
 20
76.725221
 30
0.0
 11
7.221625
 21
76.547420
 31
0.0
  0
LINE
  5
26e
100
AcDbEntity
  8
text
 62
7
100
AcDbLine
 10
7.221625
 20
76.547420
 30
0.0
 11
6.953513
 21
76.458520
 31
0.0
  0
LINE
  5
26f
100
AcDbEntity
  8
text
 62
7
100
AcDbLine
 10
6.953513
 20
76.458520
 30
0.0
 11
6.685402
 21
76.458520
 31
0.0
  0
LINE
  5
270
100
AcDbEntity
  8
text
 62
7
100
AcDbLine
 10
6.685402
 20
76.458520
 30
0.0
 11
6.420112
 21
76.547420
 31
0.0
  0
LINE
  5
271
100
AcDbEntity
  8
text
 62
7
100
AcDbLine
 10
6.420112
 20
76.547420
 30
0.0
 11
6.329801
 21
76.636320
 31
0.0
  0
LINE
  5
272
100
AcDbEntity
  8
text
 62
7
100
AcDbLine
 10
6.329801
 20
76.636320
 30
0.0
 11
6.242311
 21
76.814121
 31
0.0
  0
LINE
  5
273
100
AcDbEntity
  8
text
 62
7
100
AcDbLine
 10
7.842521
 20
78.326836
 30
0.0
 11
8.553723
 21
76.458520
 31
0.0
  0
LINE
  5
274
100
AcDbEntity
  8
text
 62
7
100
AcDbLine
 10
9.264925
 20
78.326836
 30
0.0
 11
8.553723
 21
76.458520
 31
0.0
  0
LINE
  5
275
100
AcDbEntity
  8
text
 62
7
100
AcDbLine
 10
1.529191
 20
72.263923
 30
0.0
 11
3.132217
 21
72.263923
 31
0.0
  0
LINE
  5
276
100
AcDbEntity
  8
text
 62
7
100
AcDbLine
 10
4.819914
 20
73.330726
 30
0.0
 11
3.930912
 21
73.330726
 31
0.0
  0
LINE
  5
277
100
AcDbEntity
  8
text
 62
7
100
AcDbLine
 10
3.930912
 20
73.330726
 30
0.0
 11
3.840601
 21
72.529213
 31
0.0
  0
LINE
  5
278
100
AcDbEntity
  8
text
 62
7
100
AcDbLine
 10
3.840601
 20
72.529213
 30
0.0
 11
3.930912
 21
72.619524
 31
0.0
  0
LINE
  5
279
100
AcDbEntity
  8
text
 62
7
100
AcDbLine
 10
3.930912
 20
72.619524
 30
0.0
 11
4.196202
 21
72.707013
 31
0.0
  0
LINE
  5
27a
100
AcDbEntity
  8
text
 62
7
100
AcDbLine
 10
4.196202
 20
72.707013
 30
0.0
 11
4.464313
 21
72.707013
 31
0.0
  0
LINE
  5
27b
100
AcDbEntity
  8
text
 62
7
100
AcDbLine
 10
4.464313
 20
72.707013
 30
0.0
 11
4.732425
 21
72.619524
 31
0.0
  0
LINE
  5
27c
100
AcDbEntity
  8
text
 62
7
100
AcDbLine
 10
4.732425
 20
72.619524
 30
0.0
 11
4.907404
 21
72.438902
 31
0.0
  0
LINE
  5
27d
100
AcDbEntity
  8
text
 62
7
100
AcDbLine
 10
4.907404
 20
72.438902
 30
0.0
 11
4.997715
 21
72.173612
 31
0.0
  0
LINE
  5
27e
100
AcDbEntity
  8
text
 62
7
100
AcDbLine
 10
4.997715
 20
72.173612
 30
0.0
 11
4.997715
 21
71.995811
 31
0.0
  0
LINE
  5
27f
100
AcDbEntity
  8
text
 62
7
100
AcDbLine
 10
4.997715
 20
71.995811
 30
0.0
 11
4.907404
 21
71.729111
 31
0.0
  0
LINE
  5
280
100
AcDbEntity
  8
text
 62
7
100
AcDbLine
 10
4.907404
 20
71.729111
 30
0.0
 11
4.732425
 21
71.551310
 31
0.0
  0
LINE
  5
281
100
AcDbEntity
  8
text
 62
7
100
AcDbLine
 10
4.732425
 20
71.551310
 30
0.0
 11
4.464313
 21
71.462410
 31
0.0
  0
LINE
  5
282
100
AcDbEntity
  8
text
 62
7
100
AcDbLine
 10
4.464313
 20
71.462410
 30
0.0
 11
4.196202
 21
71.462410
 31
0.0
  0
LINE
  5
283
100
AcDbEntity
  8
text
 62
7
100
AcDbLine
 10
4.196202
 20
71.462410
 30
0.0
 11
3.930912
 21
71.551310
 31
0.0
  0
LINE
  5
284
100
AcDbEntity
  8
text
 62
7
100
AcDbLine
 10
3.930912
 20
71.551310
 30
0.0
 11
3.840601
 21
71.640210
 31
0.0
  0
LINE
  5
285
100
AcDbEntity
  8
text
 62
7
100
AcDbLine
 10
3.840601
 20
71.640210
 30
0.0
 11
3.753111
 21
71.818011
 31
0.0
  0
LINE
  5
286
100
AcDbEntity
  8
text
 62
7
100
AcDbLine
 10
5.353311
 20
73.330726
 30
0.0
 11
6.064513
 21
71.462410
 31
0.0
  0
LINE
  5
287
100
AcDbEntity
  8
text
 62
7
100
AcDbLine
 10
6.775715
 20
73.330726
 30
0.0
 11
6.064513
 21
71.462410
 31
0.0
  0
LINE
  5
288
100
AcDbEntity
  8
text
 62
7
100
AcDbLine
 10
1.529191
 20
67.267813
 30
0.0
 11
3.132217
 21
67.267813
 31
0.0
  0
LINE
  5
289
100
AcDbEntity
  8
text
 62
7
100
AcDbLine
 10
4.021223
 20
67.979015
 30
0.0
 11
4.196202
 21
68.066504
 31
0.0
  0
LINE
  5
28a
100
AcDbEntity
  8
text
 62
7
100
AcDbLine
 10
4.196202
 20
68.066504
 30
0.0
 11
4.464313
 21
68.334616
 31
0.0
  0
LINE
  5
28b
100
AcDbEntity
  8
text
 62
7
100
AcDbLine
 10
4.464313
 20
68.334616
 30
0.0
 11
4.464313
 21
66.466300
 31
0.0
  0
LINE
  5
28c
100
AcDbEntity
  8
text
 62
7
100
AcDbLine
 10
6.064513
 20
68.334616
 30
0.0
 11
5.799223
 21
68.244305
 31
0.0
  0
LINE
  5
28d
100
AcDbEntity
  8
text
 62
7
100
AcDbLine
 10
5.799223
 20
68.244305
 30
0.0
 11
5.618601
 21
67.979015
 31
0.0
  0
LINE
  5
28e
100
AcDbEntity
  8
text
 62
7
100
AcDbLine
 10
5.618601
 20
67.979015
 30
0.0
 11
5.531111
 21
67.533103
 31
0.0
  0
LINE
  5
28f
100
AcDbEntity
  8
text
 62
7
100
AcDbLine
 10
5.531111
 20
67.533103
 30
0.0
 11
5.531111
 21
67.267813
 31
0.0
  0
LINE
  5
290
100
AcDbEntity
  8
text
 62
7
100
AcDbLine
 10
5.531111
 20
67.267813
 30
0.0
 11
5.618601
 21
66.821901
 31
0.0
  0
LINE
  5
291
100
AcDbEntity
  8
text
 62
7
100
AcDbLine
 10
5.618601
 20
66.821901
 30
0.0
 11
5.799223
 21
66.555200
 31
0.0
  0
LINE
  5
292
100
AcDbEntity
  8
text
 62
7
100
AcDbLine
 10
5.799223
 20
66.555200
 30
0.0
 11
6.064513
 21
66.466300
 31
0.0
  0
LINE
  5
293
100
AcDbEntity
  8
text
 62
7
100
AcDbLine
 10
6.064513
 20
66.466300
 30
0.0
 11
6.242313
 21
66.466300
 31
0.0
  0
LINE
  5
294
100
AcDbEntity
  8
text
 62
7
100
AcDbLine
 10
6.242313
 20
66.466300
 30
0.0
 11
6.510425
 21
66.555200
 31
0.0
  0
LINE
  5
295
100
AcDbEntity
  8
text
 62
7
100
AcDbLine
 10
6.510425
 20
66.555200
 30
0.0
 11
6.685404
 21
66.821901
 31
0.0
  0
LINE
  5
296
100
AcDbEntity
  8
text
 62
7
100
AcDbLine
 10
6.685404
 20
66.821901
 30
0.0
 11
6.775715
 21
67.267813
 31
0.0
  0
LINE
  5
297
100
AcDbEntity
  8
text
 62
7
100
AcDbLine
 10
6.775715
 20
67.267813
 30
0.0
 11
6.775715
 21
67.533103
 31
0.0
  0
LINE
  5
298
100
AcDbEntity
  8
text
 62
7
100
AcDbLine
 10
6.775715
 20
67.533103
 30
0.0
 11
6.685404
 21
67.979015
 31
0.0
  0
LINE
  5
299
100
AcDbEntity
  8
text
 62
7
100
AcDbLine
 10
6.685404
 20
67.979015
 30
0.0
 11
6.510425
 21
68.244305
 31
0.0
  0
LINE
  5
29a
100
AcDbEntity
  8
text
 62
7
100
AcDbLine
 10
6.510425
 20
68.244305
 30
0.0
 11
6.242313
 21
68.334616
 31
0.0
  0
LINE
  5
29b
100
AcDbEntity
  8
text
 62
7
100
AcDbLine
 10
6.242313
 20
68.334616
 30
0.0
 11
6.064513
 21
68.334616
 31
0.0
  0
LINE
  5
29c
100
AcDbEntity
  8
text
 62
7
100
AcDbLine
 10
7.131321
 20
68.334616
 30
0.0
 11
7.842523
 21
66.466300
 31
0.0
  0
LINE
  5
29d
100
AcDbEntity
  8
text
 62
7
100
AcDbLine
 10
8.553725
 20
68.334616
 30
0.0
 11
7.842523
 21
66.466300
 31
0.0
  0
LINE
  5
29e
100
AcDbEntity
  8
text
 62
7
100
AcDbLine
 10
2.330704
 20
63.070404
 30
0.0
 11
2.330704
 21
61.470200
 31
0.0
  0
LINE
  5
29f
100
AcDbEntity
  8
text
 62
7
100
AcDbLine
 10
1.529191
 20
62.271713
 30
0.0
 11
3.132217
 21
62.271713
 31
0.0
  0
LINE
  5
2a0
100
AcDbEntity
  8
text
 62
7
100
AcDbLine
 10
4.021223
 20
62.982915
 30
0.0
 11
4.196202
 21
63.070404
 31
0.0
  0
LINE
  5
2a1
100
AcDbEntity
  8
text
 62
7
100
AcDbLine
 10
4.196202
 20
63.070404
 30
0.0
 11
4.464313
 21
63.338516
 31
0.0
  0
LINE
  5
2a2
100
AcDbEntity
  8
text
 62
7
100
AcDbLine
 10
4.464313
 20
63.338516
 30
0.0
 11
4.464313
 21
61.470200
 31
0.0
  0
LINE
  5
2a3
100
AcDbEntity
  8
text
 62
7
100
AcDbLine
 10
6.064513
 20
63.338516
 30
0.0
 11
5.799223
 21
63.248205
 31
0.0
  0
LINE
  5
2a4
100
AcDbEntity
  8
text
 62
7
100
AcDbLine
 10
5.799223
 20
63.248205
 30
0.0
 11
5.618601
 21
62.982915
 31
0.0
  0
LINE
  5
2a5
100
AcDbEntity
  8
text
 62
7
100
AcDbLine
 10
5.618601
 20
62.982915
 30
0.0
 11
5.531111
 21
62.537003
 31
0.0
  0
LINE
  5
2a6
100
AcDbEntity
  8
text
 62
7
100
AcDbLine
 10
5.531111
 20
62.537003
 30
0.0
 11
5.531111
 21
62.271713
 31
0.0
  0
LINE
  5
2a7
100
AcDbEntity
  8
text
 62
7
100
AcDbLine
 10
5.531111
 20
62.271713
 30
0.0
 11
5.618601
 21
61.825801
 31
0.0
  0
LINE
  5
2a8
100
AcDbEntity
  8
text
 62
7
100
AcDbLine
 10
5.618601
 20
61.825801
 30
0.0
 11
5.799223
 21
61.559100
 31
0.0
  0
LINE
  5
2a9
100
AcDbEntity
  8
text
 62
7
100
AcDbLine
 10
5.799223
 20
61.559100
 30
0.0
 11
6.064513
 21
61.470200
 31
0.0
  0
LINE
  5
2aa
100
AcDbEntity
  8
text
 62
7
100
AcDbLine
 10
6.064513
 20
61.470200
 30
0.0
 11
6.242313
 21
61.470200
 31
0.0
  0
LINE
  5
2ab
100
AcDbEntity
  8
text
 62
7
100
AcDbLine
 10
6.242313
 20
61.470200
 30
0.0
 11
6.510425
 21
61.559100
 31
0.0
  0
LINE
  5
2ac
100
AcDbEntity
  8
text
 62
7
100
AcDbLine
 10
6.510425
 20
61.559100
 30
0.0
 11
6.685404
 21
61.825801
 31
0.0
  0
LINE
  5
2ad
100
AcDbEntity
  8
text
 62
7
100
AcDbLine
 10
6.685404
 20
61.825801
 30
0.0
 11
6.775715
 21
62.271713
 31
0.0
  0
LINE
  5
2ae
100
AcDbEntity
  8
text
 62
7
100
AcDbLine
 10
6.775715
 20
62.271713
 30
0.0
 11
6.775715
 21
62.537003
 31
0.0
  0
LINE
  5
2af
100
AcDbEntity
  8
text
 62
7
100
AcDbLine
 10
6.775715
 20
62.537003
 30
0.0
 11
6.685404
 21
62.982915
 31
0.0
  0
LINE
  5
2b0
100
AcDbEntity
  8
text
 62
7
100
AcDbLine
 10
6.685404
 20
62.982915
 30
0.0
 11
6.510425
 21
63.248205
 31
0.0
  0
LINE
  5
2b1
100
AcDbEntity
  8
text
 62
7
100
AcDbLine
 10
6.510425
 20
63.248205
 30
0.0
 11
6.242313
 21
63.338516
 31
0.0
  0
LINE
  5
2b2
100
AcDbEntity
  8
text
 62
7
100
AcDbLine
 10
6.242313
 20
63.338516
 30
0.0
 11
6.064513
 21
63.338516
 31
0.0
  0
LINE
  5
2b3
100
AcDbEntity
  8
text
 62
7
100
AcDbLine
 10
7.131321
 20
63.338516
 30
0.0
 11
7.842523
 21
61.470200
 31
0.0
  0
LINE
  5
2b4
100
AcDbEntity
  8
text
 62
7
100
AcDbLine
 10
8.553725
 20
63.338516
 30
0.0
 11
7.842523
 21
61.470200
 31
0.0
  0
LINE
  5
2b5
100
AcDbEntity
  8
text
 62
7
100
AcDbLine
 10
2.330704
 20
58.074304
 30
0.0
 11
2.330704
 21
56.474100
 31
0.0
  0
LINE
  5
2b6
100
AcDbEntity
  8
text
 62
7
100
AcDbLine
 10
1.529191
 20
57.275613
 30
0.0
 11
3.132217
 21
57.275613
 31
0.0
  0
LINE
  5
2b7
100
AcDbEntity
  8
text
 62
7
100
AcDbLine
 10
4.819914
 20
58.342416
 30
0.0
 11
3.930912
 21
58.342416
 31
0.0
  0
LINE
  5
2b8
100
AcDbEntity
  8
text
 62
7
100
AcDbLine
 10
3.930912
 20
58.342416
 30
0.0
 11
3.840601
 21
57.540903
 31
0.0
  0
LINE
  5
2b9
100
AcDbEntity
  8
text
 62
7
100
AcDbLine
 10
3.840601
 20
57.540903
 30
0.0
 11
3.930912
 21
57.631214
 31
0.0
  0
LINE
  5
2ba
100
AcDbEntity
  8
text
 62
7
100
AcDbLine
 10
3.930912
 20
57.631214
 30
0.0
 11
4.196202
 21
57.718703
 31
0.0
  0
LINE
  5
2bb
100
AcDbEntity
  8
text
 62
7
100
AcDbLine
 10
4.196202
 20
57.718703
 30
0.0
 11
4.464313
 21
57.718703
 31
0.0
  0
LINE
  5
2bc
100
AcDbEntity
  8
text
 62
7
100
AcDbLine
 10
4.464313
 20
57.718703
 30
0.0
 11
4.732425
 21
57.631214
 31
0.0
  0
LINE
  5
2bd
100
AcDbEntity
  8
text
 62
7
100
AcDbLine
 10
4.732425
 20
57.631214
 30
0.0
 11
4.907404
 21
57.450592
 31
0.0
  0
LINE
  5
2be
100
AcDbEntity
  8
text
 62
7
100
AcDbLine
 10
4.907404
 20
57.450592
 30
0.0
 11
4.997715
 21
57.185302
 31
0.0
  0
LINE
  5
2bf
100
AcDbEntity
  8
text
 62
7
100
AcDbLine
 10
4.997715
 20
57.185302
 30
0.0
 11
4.997715
 21
57.007501
 31
0.0
  0
LINE
  5
2c0
100
AcDbEntity
  8
text
 62
7
100
AcDbLine
 10
4.997715
 20
57.007501
 30
0.0
 11
4.907404
 21
56.740801
 31
0.0
  0
LINE
  5
2c1
100
AcDbEntity
  8
text
 62
7
100
AcDbLine
 10
4.907404
 20
56.740801
 30
0.0
 11
4.732425
 21
56.563000
 31
0.0
  0
LINE
  5
2c2
100
AcDbEntity
  8
text
 62
7
100
AcDbLine
 10
4.732425
 20
56.563000
 30
0.0
 11
4.464313
 21
56.474100
 31
0.0
  0
LINE
  5
2c3
100
AcDbEntity
  8
text
 62
7
100
AcDbLine
 10
4.464313
 20
56.474100
 30
0.0
 11
4.196202
 21
56.474100
 31
0.0
  0
LINE
  5
2c4
100
AcDbEntity
  8
text
 62
7
100
AcDbLine
 10
4.196202
 20
56.474100
 30
0.0
 11
3.930912
 21
56.563000
 31
0.0
  0
LINE
  5
2c5
100
AcDbEntity
  8
text
 62
7
100
AcDbLine
 10
3.930912
 20
56.563000
 30
0.0
 11
3.840601
 21
56.651900
 31
0.0
  0
LINE
  5
2c6
100
AcDbEntity
  8
text
 62
7
100
AcDbLine
 10
3.840601
 20
56.651900
 30
0.0
 11
3.753111
 21
56.829701
 31
0.0
  0
LINE
  5
2c7
100
AcDbEntity
  8
text
 62
7
100
AcDbLine
 10
5.353311
 20
58.342416
 30
0.0
 11
6.064513
 21
56.474100
 31
0.0
  0
LINE
  5
2c8
100
AcDbEntity
  8
text
 62
7
100
AcDbLine
 10
6.775715
 20
58.342416
 30
0.0
 11
6.064513
 21
56.474100
 31
0.0
  0
LINE
  5
2c9
100
AcDbEntity
  8
text
 62
7
100
AcDbLine
 10
2.330704
 20
53.078204
 30
0.0
 11
2.330704
 21
51.478000
 31
0.0
  0
LINE
  5
2ca
100
AcDbEntity
  8
text
 62
7
100
AcDbLine
 10
1.529191
 20
52.279513
 30
0.0
 11
3.132217
 21
52.279513
 31
0.0
  0
LINE
  5
2cb
100
AcDbEntity
  8
text
 62
7
100
AcDbLine
 10
3.930912
 20
53.346316
 30
0.0
 11
4.907404
 21
53.346316
 31
0.0
  0
LINE
  5
2cc
100
AcDbEntity
  8
text
 62
7
100
AcDbLine
 10
4.907404
 20
53.346316
 30
0.0
 11
4.376824
 21
52.635114
 31
0.0
  0
LINE
  5
2cd
100
AcDbEntity
  8
text
 62
7
100
AcDbLine
 10
4.376824
 20
52.635114
 30
0.0
 11
4.642114
 21
52.635114
 31
0.0
  0
LINE
  5
2ce
100
AcDbEntity
  8
text
 62
7
100
AcDbLine
 10
4.642114
 20
52.635114
 30
0.0
 11
4.819914
 21
52.544803
 31
0.0
  0
LINE
  5
2cf
100
AcDbEntity
  8
text
 62
7
100
AcDbLine
 10
4.819914
 20
52.544803
 30
0.0
 11
4.907404
 21
52.454492
 31
0.0
  0
LINE
  5
2d0
100
AcDbEntity
  8
text
 62
7
100
AcDbLine
 10
4.907404
 20
52.454492
 30
0.0
 11
4.997715
 21
52.189202
 31
0.0
  0
LINE
  5
2d1
100
AcDbEntity
  8
text
 62
7
100
AcDbLine
 10
4.997715
 20
52.189202
 30
0.0
 11
4.997715
 21
52.011401
 31
0.0
  0
LINE
  5
2d2
100
AcDbEntity
  8
text
 62
7
100
AcDbLine
 10
4.997715
 20
52.011401
 30
0.0
 11
4.907404
 21
51.744701
 31
0.0
  0
LINE
  5
2d3
100
AcDbEntity
  8
text
 62
7
100
AcDbLine
 10
4.907404
 20
51.744701
 30
0.0
 11
4.732425
 21
51.566900
 31
0.0
  0
LINE
  5
2d4
100
AcDbEntity
  8
text
 62
7
100
AcDbLine
 10
4.732425
 20
51.566900
 30
0.0
 11
4.464313
 21
51.478000
 31
0.0
  0
LINE
  5
2d5
100
AcDbEntity
  8
text
 62
7
100
AcDbLine
 10
4.464313
 20
51.478000
 30
0.0
 11
4.196202
 21
51.478000
 31
0.0
  0
LINE
  5
2d6
100
AcDbEntity
  8
text
 62
7
100
AcDbLine
 10
4.196202
 20
51.478000
 30
0.0
 11
3.930912
 21
51.566900
 31
0.0
  0
LINE
  5
2d7
100
AcDbEntity
  8
text
 62
7
100
AcDbLine
 10
3.930912
 20
51.566900
 30
0.0
 11
3.840601
 21
51.655800
 31
0.0
  0
LINE
  5
2d8
100
AcDbEntity
  8
text
 62
7
100
AcDbLine
 10
3.840601
 20
51.655800
 30
0.0
 11
3.753111
 21
51.833601
 31
0.0
  0
LINE
  5
2d9
100
AcDbEntity
  8
text
 62
7
100
AcDbLine
 10
5.618601
 20
51.923912
 30
0.0
 11
5.531111
 21
51.833601
 31
0.0
  0
LINE
  5
2da
100
AcDbEntity
  8
text
 62
7
100
AcDbLine
 10
5.531111
 20
51.833601
 30
0.0
 11
5.618601
 21
51.744701
 31
0.0
  0
LINE
  5
2db
100
AcDbEntity
  8
text
 62
7
100
AcDbLine
 10
5.618601
 20
51.744701
 30
0.0
 11
5.708912
 21
51.833601
 31
0.0
  0
LINE
  5
2dc
100
AcDbEntity
  8
text
 62
7
100
AcDbLine
 10
5.708912
 20
51.833601
 30
0.0
 11
5.618601
 21
51.923912
 31
0.0
  0
LINE
  5
2dd
100
AcDbEntity
  8
text
 62
7
100
AcDbLine
 10
6.420112
 20
53.346316
 30
0.0
 11
7.396604
 21
53.346316
 31
0.0
  0
LINE
  5
2de
100
AcDbEntity
  8
text
 62
7
100
AcDbLine
 10
7.396604
 20
53.346316
 30
0.0
 11
6.866024
 21
52.635114
 31
0.0
  0
LINE
  5
2df
100
AcDbEntity
  8
text
 62
7
100
AcDbLine
 10
6.866024
 20
52.635114
 30
0.0
 11
7.131314
 21
52.635114
 31
0.0
  0
LINE
  5
2e0
100
AcDbEntity
  8
text
 62
7
100
AcDbLine
 10
7.131314
 20
52.635114
 30
0.0
 11
7.309114
 21
52.544803
 31
0.0
  0
LINE
  5
2e1
100
AcDbEntity
  8
text
 62
7
100
AcDbLine
 10
7.309114
 20
52.544803
 30
0.0
 11
7.396604
 21
52.454492
 31
0.0
  0
LINE
  5
2e2
100
AcDbEntity
  8
text
 62
7
100
AcDbLine
 10
7.396604
 20
52.454492
 30
0.0
 11
7.486915
 21
52.189202
 31
0.0
  0
LINE
  5
2e3
100
AcDbEntity
  8
text
 62
7
100
AcDbLine
 10
7.486915
 20
52.189202
 30
0.0
 11
7.486915
 21
52.011401
 31
0.0
  0
LINE
  5
2e4
100
AcDbEntity
  8
text
 62
7
100
AcDbLine
 10
7.486915
 20
52.011401
 30
0.0
 11
7.396604
 21
51.744701
 31
0.0
  0
LINE
  5
2e5
100
AcDbEntity
  8
text
 62
7
100
AcDbLine
 10
7.396604
 20
51.744701
 30
0.0
 11
7.221625
 21
51.566900
 31
0.0
  0
LINE
  5
2e6
100
AcDbEntity
  8
text
 62
7
100
AcDbLine
 10
7.221625
 20
51.566900
 30
0.0
 11
6.953513
 21
51.478000
 31
0.0
  0
LINE
  5
2e7
100
AcDbEntity
  8
text
 62
7
100
AcDbLine
 10
6.953513
 20
51.478000
 30
0.0
 11
6.685402
 21
51.478000
 31
0.0
  0
LINE
  5
2e8
100
AcDbEntity
  8
text
 62
7
100
AcDbLine
 10
6.685402
 20
51.478000
 30
0.0
 11
6.420112
 21
51.566900
 31
0.0
  0
LINE
  5
2e9
100
AcDbEntity
  8
text
 62
7
100
AcDbLine
 10
6.420112
 20
51.566900
 30
0.0
 11
6.329801
 21
51.655800
 31
0.0
  0
LINE
  5
2ea
100
AcDbEntity
  8
text
 62
7
100
AcDbLine
 10
6.329801
 20
51.655800
 30
0.0
 11
6.242311
 21
51.833601
 31
0.0
  0
LINE
  5
2eb
100
AcDbEntity
  8
text
 62
7
100
AcDbLine
 10
7.842521
 20
53.346316
 30
0.0
 11
8.553723
 21
51.478000
 31
0.0
  0
LINE
  5
2ec
100
AcDbEntity
  8
text
 62
7
100
AcDbLine
 10
9.264925
 20
53.346316
 30
0.0
 11
8.553723
 21
51.478000
 31
0.0
  0
LINE
  5
2ed
100
AcDbEntity
  8
text
 62
7
100
AcDbLine
 10
2.330704
 20
48.082004
 30
0.0
 11
2.330704
 21
46.481800
 31
0.0
  0
LINE
  5
2ee
100
AcDbEntity
  8
text
 62
7
100
AcDbLine
 10
1.529191
 20
47.283313
 30
0.0
 11
3.132217
 21
47.283313
 31
0.0
  0
LINE
  5
2ef
100
AcDbEntity
  8
text
 62
7
100
AcDbLine
 10
4.021223
 20
47.994515
 30
0.0
 11
4.196202
 21
48.082004
 31
0.0
  0
LINE
  5
2f0
100
AcDbEntity
  8
text
 62
7
100
AcDbLine
 10
4.196202
 20
48.082004
 30
0.0
 11
4.464313
 21
48.350116
 31
0.0
  0
LINE
  5
2f1
100
AcDbEntity
  8
text
 62
7
100
AcDbLine
 10
4.464313
 20
48.350116
 30
0.0
 11
4.464313
 21
46.481800
 31
0.0
  0
LINE
  5
2f2
100
AcDbEntity
  8
text
 62
7
100
AcDbLine
 10
5.353311
 20
48.350116
 30
0.0
 11
6.064513
 21
46.481800
 31
0.0
  0
LINE
  5
2f3
100
AcDbEntity
  8
text
 62
7
100
AcDbLine
 10
6.775715
 20
48.350116
 30
0.0
 11
6.064513
 21
46.481800
 31
0.0
  0
LINE
  5
2f4
100
AcDbEntity
  8
text
 62
7
100
AcDbLine
 10
1.529191
 20
42.287213
 30
0.0
 11
3.132217
 21
42.287213
 31
0.0
  0
LINE
  5
2f5
100
AcDbEntity
  8
text
 62
7
100
AcDbLine
 10
4.021223
 20
42.998415
 30
0.0
 11
4.196202
 21
43.085904
 31
0.0
  0
LINE
  5
2f6
100
AcDbEntity
  8
text
 62
7
100
AcDbLine
 10
4.196202
 20
43.085904
 30
0.0
 11
4.464313
 21
43.354016
 31
0.0
  0
LINE
  5
2f7
100
AcDbEntity
  8
text
 62
7
100
AcDbLine
 10
4.464313
 20
43.354016
 30
0.0
 11
4.464313
 21
41.485700
 31
0.0
  0
LINE
  5
2f8
100
AcDbEntity
  8
text
 62
7
100
AcDbLine
 10
5.353311
 20
43.354016
 30
0.0
 11
6.064513
 21
41.485700
 31
0.0
  0
LINE
  5
2f9
100
AcDbEntity
  8
text
 62
7
100
AcDbLine
 10
6.775715
 20
43.354016
 30
0.0
 11
6.064513
 21
41.485700
 31
0.0
  0
LINE
  5
2fa
100
AcDbEntity
  8
text
 62
7
100
AcDbLine
 10
1.529191
 20
37.291113
 30
0.0
 11
3.132217
 21
37.291113
 31
0.0
  0
LINE
  5
2fb
100
AcDbEntity
  8
text
 62
7
100
AcDbLine
 10
3.930912
 20
38.357916
 30
0.0
 11
4.907404
 21
38.357916
 31
0.0
  0
LINE
  5
2fc
100
AcDbEntity
  8
text
 62
7
100
AcDbLine
 10
4.907404
 20
38.357916
 30
0.0
 11
4.376824
 21
37.646714
 31
0.0
  0
LINE
  5
2fd
100
AcDbEntity
  8
text
 62
7
100
AcDbLine
 10
4.376824
 20
37.646714
 30
0.0
 11
4.642114
 21
37.646714
 31
0.0
  0
LINE
  5
2fe
100
AcDbEntity
  8
text
 62
7
100
AcDbLine
 10
4.642114
 20
37.646714
 30
0.0
 11
4.819914
 21
37.556403
 31
0.0
  0
LINE
  5
2ff
100
AcDbEntity
  8
text
 62
7
100
AcDbLine
 10
4.819914
 20
37.556403
 30
0.0
 11
4.907404
 21
37.466092
 31
0.0
  0
LINE
  5
300
100
AcDbEntity
  8
text
 62
7
100
AcDbLine
 10
4.907404
 20
37.466092
 30
0.0
 11
4.997715
 21
37.200802
 31
0.0
  0
LINE
  5
301
100
AcDbEntity
  8
text
 62
7
100
AcDbLine
 10
4.997715
 20
37.200802
 30
0.0
 11
4.997715
 21
37.023001
 31
0.0
  0
LINE
  5
302
100
AcDbEntity
  8
text
 62
7
100
AcDbLine
 10
4.997715
 20
37.023001
 30
0.0
 11
4.907404
 21
36.756301
 31
0.0
  0
LINE
  5
303
100
AcDbEntity
  8
text
 62
7
100
AcDbLine
 10
4.907404
 20
36.756301
 30
0.0
 11
4.732425
 21
36.578500
 31
0.0
  0
LINE
  5
304
100
AcDbEntity
  8
text
 62
7
100
AcDbLine
 10
4.732425
 20
36.578500
 30
0.0
 11
4.464313
 21
36.489600
 31
0.0
  0
LINE
  5
305
100
AcDbEntity
  8
text
 62
7
100
AcDbLine
 10
4.464313
 20
36.489600
 30
0.0
 11
4.196202
 21
36.489600
 31
0.0
  0
LINE
  5
306
100
AcDbEntity
  8
text
 62
7
100
AcDbLine
 10
4.196202
 20
36.489600
 30
0.0
 11
3.930912
 21
36.578500
 31
0.0
  0
LINE
  5
307
100
AcDbEntity
  8
text
 62
7
100
AcDbLine
 10
3.930912
 20
36.578500
 30
0.0
 11
3.840601
 21
36.667400
 31
0.0
  0
LINE
  5
308
100
AcDbEntity
  8
text
 62
7
100
AcDbLine
 10
3.840601
 20
36.667400
 30
0.0
 11
3.753111
 21
36.845201
 31
0.0
  0
LINE
  5
309
100
AcDbEntity
  8
text
 62
7
100
AcDbLine
 10
5.618601
 20
36.935512
 30
0.0
 11
5.531111
 21
36.845201
 31
0.0
  0
LINE
  5
30a
100
AcDbEntity
  8
text
 62
7
100
AcDbLine
 10
5.531111
 20
36.845201
 30
0.0
 11
5.618601
 21
36.756301
 31
0.0
  0
LINE
  5
30b
100
AcDbEntity
  8
text
 62
7
100
AcDbLine
 10
5.618601
 20
36.756301
 30
0.0
 11
5.708912
 21
36.845201
 31
0.0
  0
LINE
  5
30c
100
AcDbEntity
  8
text
 62
7
100
AcDbLine
 10
5.708912
 20
36.845201
 30
0.0
 11
5.618601
 21
36.935512
 31
0.0
  0
LINE
  5
30d
100
AcDbEntity
  8
text
 62
7
100
AcDbLine
 10
6.420112
 20
38.357916
 30
0.0
 11
7.396604
 21
38.357916
 31
0.0
  0
LINE
  5
30e
100
AcDbEntity
  8
text
 62
7
100
AcDbLine
 10
7.396604
 20
38.357916
 30
0.0
 11
6.866024
 21
37.646714
 31
0.0
  0
LINE
  5
30f
100
AcDbEntity
  8
text
 62
7
100
AcDbLine
 10
6.866024
 20
37.646714
 30
0.0
 11
7.131314
 21
37.646714
 31
0.0
  0
LINE
  5
310
100
AcDbEntity
  8
text
 62
7
100
AcDbLine
 10
7.131314
 20
37.646714
 30
0.0
 11
7.309114
 21
37.556403
 31
0.0
  0
LINE
  5
311
100
AcDbEntity
  8
text
 62
7
100
AcDbLine
 10
7.309114
 20
37.556403
 30
0.0
 11
7.396604
 21
37.466092
 31
0.0
  0
LINE
  5
312
100
AcDbEntity
  8
text
 62
7
100
AcDbLine
 10
7.396604
 20
37.466092
 30
0.0
 11
7.486915
 21
37.200802
 31
0.0
  0
LINE
  5
313
100
AcDbEntity
  8
text
 62
7
100
AcDbLine
 10
7.486915
 20
37.200802
 30
0.0
 11
7.486915
 21
37.023001
 31
0.0
  0
LINE
  5
314
100
AcDbEntity
  8
text
 62
7
100
AcDbLine
 10
7.486915
 20
37.023001
 30
0.0
 11
7.396604
 21
36.756301
 31
0.0
  0
LINE
  5
315
100
AcDbEntity
  8
text
 62
7
100
AcDbLine
 10
7.396604
 20
36.756301
 30
0.0
 11
7.221625
 21
36.578500
 31
0.0
  0
LINE
  5
316
100
AcDbEntity
  8
text
 62
7
100
AcDbLine
 10
7.221625
 20
36.578500
 30
0.0
 11
6.953513
 21
36.489600
 31
0.0
  0
LINE
  5
317
100
AcDbEntity
  8
text
 62
7
100
AcDbLine
 10
6.953513
 20
36.489600
 30
0.0
 11
6.685402
 21
36.489600
 31
0.0
  0
LINE
  5
318
100
AcDbEntity
  8
text
 62
7
100
AcDbLine
 10
6.685402
 20
36.489600
 30
0.0
 11
6.420112
 21
36.578500
 31
0.0
  0
LINE
  5
319
100
AcDbEntity
  8
text
 62
7
100
AcDbLine
 10
6.420112
 20
36.578500
 30
0.0
 11
6.329801
 21
36.667400
 31
0.0
  0
LINE
  5
31a
100
AcDbEntity
  8
text
 62
7
100
AcDbLine
 10
6.329801
 20
36.667400
 30
0.0
 11
6.242311
 21
36.845201
 31
0.0
  0
LINE
  5
31b
100
AcDbEntity
  8
text
 62
7
100
AcDbLine
 10
7.842521
 20
38.357916
 30
0.0
 11
8.553723
 21
36.489600
 31
0.0
  0
LINE
  5
31c
100
AcDbEntity
  8
text
 62
7
100
AcDbLine
 10
9.264925
 20
38.357916
 30
0.0
 11
8.553723
 21
36.489600
 31
0.0
  0
LINE
  5
31d
100
AcDbEntity
  8
text
 62
7
100
AcDbLine
 10
1.529191
 20
32.295013
 30
0.0
 11
3.132217
 21
32.295013
 31
0.0
  0
LINE
  5
31e
100
AcDbEntity
  8
text
 62
7
100
AcDbLine
 10
4.819914
 20
33.361816
 30
0.0
 11
3.930912
 21
33.361816
 31
0.0
  0
LINE
  5
31f
100
AcDbEntity
  8
text
 62
7
100
AcDbLine
 10
3.930912
 20
33.361816
 30
0.0
 11
3.840601
 21
32.560303
 31
0.0
  0
LINE
  5
320
100
AcDbEntity
  8
text
 62
7
100
AcDbLine
 10
3.840601
 20
32.560303
 30
0.0
 11
3.930912
 21
32.650614
 31
0.0
  0
LINE
  5
321
100
AcDbEntity
  8
text
 62
7
100
AcDbLine
 10
3.930912
 20
32.650614
 30
0.0
 11
4.196202
 21
32.738103
 31
0.0
  0
LINE
  5
322
100
AcDbEntity
  8
text
 62
7
100
AcDbLine
 10
4.196202
 20
32.738103
 30
0.0
 11
4.464313
 21
32.738103
 31
0.0
  0
LINE
  5
323
100
AcDbEntity
  8
text
 62
7
100
AcDbLine
 10
4.464313
 20
32.738103
 30
0.0
 11
4.732425
 21
32.650614
 31
0.0
  0
LINE
  5
324
100
AcDbEntity
  8
text
 62
7
100
AcDbLine
 10
4.732425
 20
32.650614
 30
0.0
 11
4.907404
 21
32.469992
 31
0.0
  0
LINE
  5
325
100
AcDbEntity
  8
text
 62
7
100
AcDbLine
 10
4.907404
 20
32.469992
 30
0.0
 11
4.997715
 21
32.204702
 31
0.0
  0
LINE
  5
326
100
AcDbEntity
  8
text
 62
7
100
AcDbLine
 10
4.997715
 20
32.204702
 30
0.0
 11
4.997715
 21
32.026901
 31
0.0
  0
LINE
  5
327
100
AcDbEntity
  8
text
 62
7
100
AcDbLine
 10
4.997715
 20
32.026901
 30
0.0
 11
4.907404
 21
31.760201
 31
0.0
  0
LINE
  5
328
100
AcDbEntity
  8
text
 62
7
100
AcDbLine
 10
4.907404
 20
31.760201
 30
0.0
 11
4.732425
 21
31.582400
 31
0.0
  0
LINE
  5
329
100
AcDbEntity
  8
text
 62
7
100
AcDbLine
 10
4.732425
 20
31.582400
 30
0.0
 11
4.464313
 21
31.493500
 31
0.0
  0
LINE
  5
32a
100
AcDbEntity
  8
text
 62
7
100
AcDbLine
 10
4.464313
 20
31.493500
 30
0.0
 11
4.196202
 21
31.493500
 31
0.0
  0
LINE
  5
32b
100
AcDbEntity
  8
text
 62
7
100
AcDbLine
 10
4.196202
 20
31.493500
 30
0.0
 11
3.930912
 21
31.582400
 31
0.0
  0
LINE
  5
32c
100
AcDbEntity
  8
text
 62
7
100
AcDbLine
 10
3.930912
 20
31.582400
 30
0.0
 11
3.840601
 21
31.671300
 31
0.0
  0
LINE
  5
32d
100
AcDbEntity
  8
text
 62
7
100
AcDbLine
 10
3.840601
 20
31.671300
 30
0.0
 11
3.753111
 21
31.849101
 31
0.0
  0
LINE
  5
32e
100
AcDbEntity
  8
text
 62
7
100
AcDbLine
 10
5.353311
 20
33.361816
 30
0.0
 11
6.064513
 21
31.493500
 31
0.0
  0
LINE
  5
32f
100
AcDbEntity
  8
text
 62
7
100
AcDbLine
 10
6.775715
 20
33.361816
 30
0.0
 11
6.064513
 21
31.493500
 31
0.0
  0
LINE
  5
330
100
AcDbEntity
  8
text
 62
7
100
AcDbLine
 10
1.579191
 20
27.298913
 30
0.0
 11
3.182217
 21
27.298913
 31
0.0
  0
LINE
  5
331
100
AcDbEntity
  8
text
 62
7
100
AcDbLine
 10
4.071223
 20
28.010115
 30
0.0
 11
4.246202
 21
28.097604
 31
0.0
  0
LINE
  5
332
100
AcDbEntity
  8
text
 62
7
100
AcDbLine
 10
4.246202
 20
28.097604
 30
0.0
 11
4.514313
 21
28.365716
 31
0.0
  0
LINE
  5
333
100
AcDbEntity
  8
text
 62
7
100
AcDbLine
 10
4.514313
 20
28.365716
 30
0.0
 11
4.514313
 21
26.497400
 31
0.0
  0
LINE
  5
334
100
AcDbEntity
  8
text
 62
7
100
AcDbLine
 10
6.114513
 20
28.365716
 30
0.0
 11
5.849223
 21
28.275405
 31
0.0
  0
LINE
  5
335
100
AcDbEntity
  8
text
 62
7
100
AcDbLine
 10
5.849223
 20
28.275405
 30
0.0
 11
5.668601
 21
28.010115
 31
0.0
  0
LINE
  5
336
100
AcDbEntity
  8
text
 62
7
100
AcDbLine
 10
5.668601
 20
28.010115
 30
0.0
 11
5.581111
 21
27.564203
 31
0.0
  0
LINE
  5
337
100
AcDbEntity
  8
text
 62
7
100
AcDbLine
 10
5.581111
 20
27.564203
 30
0.0
 11
5.581111
 21
27.298913
 31
0.0
  0
LINE
  5
338
100
AcDbEntity
  8
text
 62
7
100
AcDbLine
 10
5.581111
 20
27.298913
 30
0.0
 11
5.668601
 21
26.853001
 31
0.0
  0
LINE
  5
339
100
AcDbEntity
  8
text
 62
7
100
AcDbLine
 10
5.668601
 20
26.853001
 30
0.0
 11
5.849223
 21
26.586300
 31
0.0
  0
LINE
  5
33a
100
AcDbEntity
  8
text
 62
7
100
AcDbLine
 10
5.849223
 20
26.586300
 30
0.0
 11
6.114513
 21
26.497400
 31
0.0
  0
LINE
  5
33b
100
AcDbEntity
  8
text
 62
7
100
AcDbLine
 10
6.114513
 20
26.497400
 30
0.0
 11
6.292313
 21
26.497400
 31
0.0
  0
LINE
  5
33c
100
AcDbEntity
  8
text
 62
7
100
AcDbLine
 10
6.292313
 20
26.497400
 30
0.0
 11
6.560425
 21
26.586300
 31
0.0
  0
LINE
  5
33d
100
AcDbEntity
  8
text
 62
7
100
AcDbLine
 10
6.560425
 20
26.586300
 30
0.0
 11
6.735404
 21
26.853001
 31
0.0
  0
LINE
  5
33e
100
AcDbEntity
  8
text
 62
7
100
AcDbLine
 10
6.735404
 20
26.853001
 30
0.0
 11
6.825715
 21
27.298913
 31
0.0
  0
LINE
  5
33f
100
AcDbEntity
  8
text
 62
7
100
AcDbLine
 10
6.825715
 20
27.298913
 30
0.0
 11
6.825715
 21
27.564203
 31
0.0
  0
LINE
  5
340
100
AcDbEntity
  8
text
 62
7
100
AcDbLine
 10
6.825715
 20
27.564203
 30
0.0
 11
6.735404
 21
28.010115
 31
0.0
  0
LINE
  5
341
100
AcDbEntity
  8
text
 62
7
100
AcDbLine
 10
6.735404
 20
28.010115
 30
0.0
 11
6.560425
 21
28.275405
 31
0.0
  0
LINE
  5
342
100
AcDbEntity
  8
text
 62
7
100
AcDbLine
 10
6.560425
 20
28.275405
 30
0.0
 11
6.292313
 21
28.365716
 31
0.0
  0
LINE
  5
343
100
AcDbEntity
  8
text
 62
7
100
AcDbLine
 10
6.292313
 20
28.365716
 30
0.0
 11
6.114513
 21
28.365716
 31
0.0
  0
LINE
  5
344
100
AcDbEntity
  8
text
 62
7
100
AcDbLine
 10
7.181321
 20
28.365716
 30
0.0
 11
7.892523
 21
26.497400
 31
0.0
  0
LINE
  5
345
100
AcDbEntity
  8
text
 62
7
100
AcDbLine
 10
8.603725
 20
28.365716
 30
0.0
 11
7.892523
 21
26.497400
 31
0.0
  0
LINE
  5
346
100
AcDbEntity
  8
text
 62
7
100
AcDbLine
 10
3.827791
 20
123.049576
 30
0.0
 11
3.827791
 21
121.181260
 31
0.0
  0
LINE
  5
347
100
AcDbEntity
  8
text
 62
7
100
AcDbLine
 10
3.827791
 20
123.049576
 30
0.0
 11
4.629304
 21
123.049576
 31
0.0
  0
LINE
  5
348
100
AcDbEntity
  8
text
 62
7
100
AcDbLine
 10
4.629304
 20
123.049576
 30
0.0
 11
4.894594
 21
122.959265
 31
0.0
  0
LINE
  5
349
100
AcDbEntity
  8
text
 62
7
100
AcDbLine
 10
4.894594
 20
122.959265
 30
0.0
 11
4.984905
 21
122.868954
 31
0.0
  0
LINE
  5
34a
100
AcDbEntity
  8
text
 62
7
100
AcDbLine
 10
4.984905
 20
122.868954
 30
0.0
 11
5.075216
 21
122.693975
 31
0.0
  0
LINE
  5
34b
100
AcDbEntity
  8
text
 62
7
100
AcDbLine
 10
5.075216
 20
122.693975
 30
0.0
 11
5.075216
 21
122.513353
 31
0.0
  0
LINE
  5
34c
100
AcDbEntity
  8
text
 62
7
100
AcDbLine
 10
5.075216
 20
122.513353
 30
0.0
 11
4.984905
 21
122.338374
 31
0.0
  0
LINE
  5
34d
100
AcDbEntity
  8
text
 62
7
100
AcDbLine
 10
4.984905
 20
122.338374
 30
0.0
 11
4.894594
 21
122.248063
 31
0.0
  0
LINE
  5
34e
100
AcDbEntity
  8
text
 62
7
100
AcDbLine
 10
4.894594
 20
122.248063
 30
0.0
 11
4.629304
 21
122.157752
 31
0.0
  0
LINE
  5
34f
100
AcDbEntity
  8
text
 62
7
100
AcDbLine
 10
4.629304
 20
122.157752
 30
0.0
 11
3.827791
 21
122.157752
 31
0.0
  0
LINE
  5
350
100
AcDbEntity
  8
text
 62
7
100
AcDbLine
 10
4.451503
 20
122.157752
 30
0.0
 11
5.075216
 21
121.181260
 31
0.0
  0
LINE
  5
351
100
AcDbEntity
  8
text
 62
7
100
AcDbLine
 10
6.051712
 20
122.425863
 30
0.0
 11
5.876733
 21
122.338374
 31
0.0
  0
LINE
  5
352
100
AcDbEntity
  8
text
 62
7
100
AcDbLine
 10
5.876733
 20
122.338374
 30
0.0
 11
5.696111
 21
122.157752
 31
0.0
  0
LINE
  5
353
100
AcDbEntity
  8
text
 62
7
100
AcDbLine
 10
5.696111
 20
122.157752
 30
0.0
 11
5.608621
 21
121.892462
 31
0.0
  0
LINE
  5
354
100
AcDbEntity
  8
text
 62
7
100
AcDbLine
 10
5.608621
 20
121.892462
 30
0.0
 11
5.608621
 21
121.714661
 31
0.0
  0
LINE
  5
355
100
AcDbEntity
  8
text
 62
7
100
AcDbLine
 10
5.608621
 20
121.714661
 30
0.0
 11
5.696111
 21
121.447961
 31
0.0
  0
LINE
  5
356
100
AcDbEntity
  8
text
 62
7
100
AcDbLine
 10
5.696111
 20
121.447961
 30
0.0
 11
5.876733
 21
121.270160
 31
0.0
  0
LINE
  5
357
100
AcDbEntity
  8
text
 62
7
100
AcDbLine
 10
5.876733
 20
121.270160
 30
0.0
 11
6.051712
 21
121.181260
 31
0.0
  0
LINE
  5
358
100
AcDbEntity
  8
text
 62
7
100
AcDbLine
 10
6.051712
 20
121.181260
 30
0.0
 11
6.319823
 21
121.181260
 31
0.0
  0
LINE
  5
359
100
AcDbEntity
  8
text
 62
7
100
AcDbLine
 10
6.319823
 20
121.181260
 30
0.0
 11
6.497624
 21
121.270160
 31
0.0
  0
LINE
  5
35a
100
AcDbEntity
  8
text
 62
7
100
AcDbLine
 10
6.497624
 20
121.270160
 30
0.0
 11
6.675424
 21
121.447961
 31
0.0
  0
LINE
  5
35b
100
AcDbEntity
  8
text
 62
7
100
AcDbLine
 10
6.675424
 20
121.447961
 30
0.0
 11
6.762914
 21
121.714661
 31
0.0
  0
LINE
  5
35c
100
AcDbEntity
  8
text
 62
7
100
AcDbLine
 10
6.762914
 20
121.714661
 30
0.0
 11
6.762914
 21
121.892462
 31
0.0
  0
LINE
  5
35d
100
AcDbEntity
  8
text
 62
7
100
AcDbLine
 10
6.762914
 20
121.892462
 30
0.0
 11
6.675424
 21
122.157752
 31
0.0
  0
LINE
  5
35e
100
AcDbEntity
  8
text
 62
7
100
AcDbLine
 10
6.675424
 20
122.157752
 30
0.0
 11
6.497624
 21
122.338374
 31
0.0
  0
LINE
  5
35f
100
AcDbEntity
  8
text
 62
7
100
AcDbLine
 10
6.497624
 20
122.338374
 30
0.0
 11
6.319823
 21
122.425863
 31
0.0
  0
LINE
  5
360
100
AcDbEntity
  8
text
 62
7
100
AcDbLine
 10
6.319823
 20
122.425863
 30
0.0
 11
6.051712
 21
122.425863
 31
0.0
  0
LINE
  5
361
100
AcDbEntity
  8
text
 62
7
100
AcDbLine
 10
7.383801
 20
123.049576
 30
0.0
 11
7.383801
 21
121.181260
 31
0.0
  0
LINE
  5
362
100
AcDbEntity
  8
text
 62
7
100
AcDbLine
 10
7.383801
 20
122.157752
 30
0.0
 11
7.564423
 21
122.338374
 31
0.0
  0
LINE
  5
363
100
AcDbEntity
  8
text
 62
7
100
AcDbLine
 10
7.564423
 20
122.338374
 30
0.0
 11
7.739402
 21
122.425863
 31
0.0
  0
LINE
  5
364
100
AcDbEntity
  8
text
 62
7
100
AcDbLine
 10
7.739402
 20
122.425863
 30
0.0
 11
8.007513
 21
122.425863
 31
0.0
  0
LINE
  5
365
100
AcDbEntity
  8
text
 62
7
100
AcDbLine
 10
8.007513
 20
122.425863
 30
0.0
 11
8.185314
 21
122.338374
 31
0.0
  0
LINE
  5
366
100
AcDbEntity
  8
text
 62
7
100
AcDbLine
 10
8.185314
 20
122.338374
 30
0.0
 11
8.363114
 21
122.157752
 31
0.0
  0
LINE
  5
367
100
AcDbEntity
  8
text
 62
7
100
AcDbLine
 10
8.363114
 20
122.157752
 30
0.0
 11
8.450604
 21
121.892462
 31
0.0
  0
LINE
  5
368
100
AcDbEntity
  8
text
 62
7
100
AcDbLine
 10
8.450604
 20
121.892462
 30
0.0
 11
8.450604
 21
121.714661
 31
0.0
  0
LINE
  5
369
100
AcDbEntity
  8
text
 62
7
100
AcDbLine
 10
8.450604
 20
121.714661
 30
0.0
 11
8.363114
 21
121.447961
 31
0.0
  0
LINE
  5
36a
100
AcDbEntity
  8
text
 62
7
100
AcDbLine
 10
8.363114
 20
121.447961
 30
0.0
 11
8.185314
 21
121.270160
 31
0.0
  0
LINE
  5
36b
100
AcDbEntity
  8
text
 62
7
100
AcDbLine
 10
8.185314
 20
121.270160
 30
0.0
 11
8.007513
 21
121.181260
 31
0.0
  0
LINE
  5
36c
100
AcDbEntity
  8
text
 62
7
100
AcDbLine
 10
8.007513
 20
121.181260
 30
0.0
 11
7.739402
 21
121.181260
 31
0.0
  0
LINE
  5
36d
100
AcDbEntity
  8
text
 62
7
100
AcDbLine
 10
7.739402
 20
121.181260
 30
0.0
 11
7.564423
 21
121.270160
 31
0.0
  0
LINE
  5
36e
100
AcDbEntity
  8
text
 62
7
100
AcDbLine
 10
7.564423
 20
121.270160
 30
0.0
 11
7.383801
 21
121.447961
 31
0.0
  0
LINE
  5
36f
100
AcDbEntity
  8
text
 62
7
100
AcDbLine
 10
9.427092
 20
122.425863
 30
0.0
 11
9.252113
 21
122.338374
 31
0.0
  0
LINE
  5
370
100
AcDbEntity
  8
text
 62
7
100
AcDbLine
 10
9.252113
 20
122.338374
 30
0.0
 11
9.071491
 21
122.157752
 31
0.0
  0
LINE
  5
371
100
AcDbEntity
  8
text
 62
7
100
AcDbLine
 10
9.071491
 20
122.157752
 30
0.0
 11
8.984001
 21
121.892462
 31
0.0
  0
LINE
  5
372
100
AcDbEntity
  8
text
 62
7
100
AcDbLine
 10
8.984001
 20
121.892462
 30
0.0
 11
8.984001
 21
121.714661
 31
0.0
  0
LINE
  5
373
100
AcDbEntity
  8
text
 62
7
100
AcDbLine
 10
8.984001
 20
121.714661
 30
0.0
 11
9.071491
 21
121.447961
 31
0.0
  0
LINE
  5
374
100
AcDbEntity
  8
text
 62
7
100
AcDbLine
 10
9.071491
 20
121.447961
 30
0.0
 11
9.252113
 21
121.270160
 31
0.0
  0
LINE
  5
375
100
AcDbEntity
  8
text
 62
7
100
AcDbLine
 10
9.252113
 20
121.270160
 30
0.0
 11
9.427092
 21
121.181260
 31
0.0
  0
LINE
  5
376
100
AcDbEntity
  8
text
 62
7
100
AcDbLine
 10
9.427092
 20
121.181260
 30
0.0
 11
9.695203
 21
121.181260
 31
0.0
  0
LINE
  5
377
100
AcDbEntity
  8
text
 62
7
100
AcDbLine
 10
9.695203
 20
121.181260
 30
0.0
 11
9.873004
 21
121.270160
 31
0.0
  0
LINE
  5
378
100
AcDbEntity
  8
text
 62
7
100
AcDbLine
 10
9.873004
 20
121.270160
 30
0.0
 11
10.050804
 21
121.447961
 31
0.0
  0
LINE
  5
379
100
AcDbEntity
  8
text
 62
7
100
AcDbLine
 10
10.050804
 20
121.447961
 30
0.0
 11
10.138294
 21
121.714661
 31
0.0
  0
LINE
  5
37a
100
AcDbEntity
  8
text
 62
7
100
AcDbLine
 10
10.138294
 20
121.714661
 30
0.0
 11
10.138294
 21
121.892462
 31
0.0
  0
LINE
  5
37b
100
AcDbEntity
  8
text
 62
7
100
AcDbLine
 10
10.138294
 20
121.892462
 30
0.0
 11
10.050804
 21
122.157752
 31
0.0
  0
LINE
  5
37c
100
AcDbEntity
  8
text
 62
7
100
AcDbLine
 10
10.050804
 20
122.157752
 30
0.0
 11
9.873004
 21
122.338374
 31
0.0
  0
LINE
  5
37d
100
AcDbEntity
  8
text
 62
7
100
AcDbLine
 10
9.873004
 20
122.338374
 30
0.0
 11
9.695203
 21
122.425863
 31
0.0
  0
LINE
  5
37e
100
AcDbEntity
  8
text
 62
7
100
AcDbLine
 10
9.695203
 20
122.425863
 30
0.0
 11
9.427092
 21
122.425863
 31
0.0
  0
LINE
  5
37f
100
AcDbEntity
  8
text
 62
7
100
AcDbLine
 10
10.849502
 20
123.049576
 30
0.0
 11
10.849502
 21
121.536861
 31
0.0
  0
LINE
  5
380
100
AcDbEntity
  8
text
 62
7
100
AcDbLine
 10
10.849502
 20
121.536861
 30
0.0
 11
10.939813
 21
121.270160
 31
0.0
  0
LINE
  5
381
100
AcDbEntity
  8
text
 62
7
100
AcDbLine
 10
10.939813
 20
121.270160
 30
0.0
 11
11.114792
 21
121.181260
 31
0.0
  0
LINE
  5
382
100
AcDbEntity
  8
text
 62
7
100
AcDbLine
 10
11.114792
 20
121.181260
 30
0.0
 11
11.295414
 21
121.181260
 31
0.0
  0
LINE
  5
383
100
AcDbEntity
  8
text
 62
7
100
AcDbLine
 10
10.584212
 20
122.425863
 30
0.0
 11
11.205103
 21
122.425863
 31
0.0
  0
LINE
  5
384
100
AcDbEntity
  8
text
 62
7
100
AcDbLine
 10
3.047191
 20
120.725166
 30
0.0
 11
3.047191
 21
118.856850
 31
0.0
  0
LINE
  5
385
100
AcDbEntity
  8
text
 62
7
100
AcDbLine
 10
3.047191
 20
120.725166
 30
0.0
 11
3.670903
 21
120.725166
 31
0.0
  0
LINE
  5
386
100
AcDbEntity
  8
text
 62
7
100
AcDbLine
 10
3.670903
 20
120.725166
 30
0.0
 11
3.939015
 21
120.634855
 31
0.0
  0
LINE
  5
387
100
AcDbEntity
  8
text
 62
7
100
AcDbLine
 10
3.939015
 20
120.634855
 30
0.0
 11
4.113994
 21
120.457054
 31
0.0
  0
LINE
  5
388
100
AcDbEntity
  8
text
 62
7
100
AcDbLine
 10
4.113994
 20
120.457054
 30
0.0
 11
4.204305
 21
120.279254
 31
0.0
  0
LINE
  5
389
100
AcDbEntity
  8
text
 62
7
100
AcDbLine
 10
4.204305
 20
120.279254
 30
0.0
 11
4.294616
 21
120.013964
 31
0.0
  0
LINE
  5
38a
100
AcDbEntity
  8
text
 62
7
100
AcDbLine
 10
4.294616
 20
120.013964
 30
0.0
 11
4.294616
 21
119.568052
 31
0.0
  0
LINE
  5
38b
100
AcDbEntity
  8
text
 62
7
100
AcDbLine
 10
4.294616
 20
119.568052
 30
0.0
 11
4.204305
 21
119.302762
 31
0.0
  0
LINE
  5
38c
100
AcDbEntity
  8
text
 62
7
100
AcDbLine
 10
4.204305
 20
119.302762
 30
0.0
 11
4.113994
 21
119.123551
 31
0.0
  0
LINE
  5
38d
100
AcDbEntity
  8
text
 62
7
100
AcDbLine
 10
4.113994
 20
119.123551
 30
0.0
 11
3.939015
 21
118.945750
 31
0.0
  0
LINE
  5
38e
100
AcDbEntity
  8
text
 62
7
100
AcDbLine
 10
3.939015
 20
118.945750
 30
0.0
 11
3.670903
 21
118.856850
 31
0.0
  0
LINE
  5
38f
100
AcDbEntity
  8
text
 62
7
100
AcDbLine
 10
3.670903
 20
118.856850
 30
0.0
 11
3.047191
 21
118.856850
 31
0.0
  0
LINE
  5
390
100
AcDbEntity
  8
text
 62
7
100
AcDbLine
 10
4.828021
 20
120.725166
 30
0.0
 11
4.915511
 21
120.634855
 31
0.0
  0
LINE
  5
391
100
AcDbEntity
  8
text
 62
7
100
AcDbLine
 10
4.915511
 20
120.634855
 30
0.0
 11
5.005822
 21
120.725166
 31
0.0
  0
LINE
  5
392
100
AcDbEntity
  8
text
 62
7
100
AcDbLine
 10
5.005822
 20
120.725166
 30
0.0
 11
4.915511
 21
120.812655
 31
0.0
  0
LINE
  5
393
100
AcDbEntity
  8
text
 62
7
100
AcDbLine
 10
4.915511
 20
120.812655
 30
0.0
 11
4.828021
 21
120.725166
 31
0.0
  0
LINE
  5
394
100
AcDbEntity
  8
text
 62
7
100
AcDbLine
 10
4.915511
 20
120.101453
 30
0.0
 11
4.915511
 21
118.856850
 31
0.0
  0
LINE
  5
395
100
AcDbEntity
  8
text
 62
7
100
AcDbLine
 10
6.606024
 20
120.101453
 30
0.0
 11
6.606024
 21
118.856850
 31
0.0
  0
LINE
  5
396
100
AcDbEntity
  8
text
 62
7
100
AcDbLine
 10
6.606024
 20
119.833342
 30
0.0
 11
6.428224
 21
120.013964
 31
0.0
  0
LINE
  5
397
100
AcDbEntity
  8
text
 62
7
100
AcDbLine
 10
6.428224
 20
120.013964
 30
0.0
 11
6.250423
 21
120.101453
 31
0.0
  0
LINE
  5
398
100
AcDbEntity
  8
text
 62
7
100
AcDbLine
 10
6.250423
 20
120.101453
 30
0.0
 11
5.982312
 21
120.101453
 31
0.0
  0
LINE
  5
399
100
AcDbEntity
  8
text
 62
7
100
AcDbLine
 10
5.982312
 20
120.101453
 30
0.0
 11
5.807333
 21
120.013964
 31
0.0
  0
LINE
  5
39a
100
AcDbEntity
  8
text
 62
7
100
AcDbLine
 10
5.807333
 20
120.013964
 30
0.0
 11
5.626711
 21
119.833342
 31
0.0
  0
LINE
  5
39b
100
AcDbEntity
  8
text
 62
7
100
AcDbLine
 10
5.626711
 20
119.833342
 30
0.0
 11
5.539221
 21
119.568052
 31
0.0
  0
LINE
  5
39c
100
AcDbEntity
  8
text
 62
7
100
AcDbLine
 10
5.539221
 20
119.568052
 30
0.0
 11
5.539221
 21
119.390251
 31
0.0
  0
LINE
  5
39d
100
AcDbEntity
  8
text
 62
7
100
AcDbLine
 10
5.539221
 20
119.390251
 30
0.0
 11
5.626711
 21
119.123551
 31
0.0
  0
LINE
  5
39e
100
AcDbEntity
  8
text
 62
7
100
AcDbLine
 10
5.626711
 20
119.123551
 30
0.0
 11
5.807333
 21
118.945750
 31
0.0
  0
LINE
  5
39f
100
AcDbEntity
  8
text
 62
7
100
AcDbLine
 10
5.807333
 20
118.945750
 30
0.0
 11
5.982312
 21
118.856850
 31
0.0
  0
LINE
  5
3a0
100
AcDbEntity
  8
text
 62
7
100
AcDbLine
 10
5.982312
 20
118.856850
 30
0.0
 11
6.250423
 21
118.856850
 31
0.0
  0
LINE
  5
3a1
100
AcDbEntity
  8
text
 62
7
100
AcDbLine
 10
6.250423
 20
118.856850
 30
0.0
 11
6.428224
 21
118.945750
 31
0.0
  0
LINE
  5
3a2
100
AcDbEntity
  8
text
 62
7
100
AcDbLine
 10
6.428224
 20
118.945750
 30
0.0
 11
6.606024
 21
119.123551
 31
0.0
  0
LINE
  5
3a3
100
AcDbEntity
  8
text
 62
7
100
AcDbLine
 10
7.314401
 20
120.725166
 30
0.0
 11
7.314401
 21
118.856850
 31
0.0
  0
LINE
  5
3a4
100
AcDbEntity
  8
text
 62
7
100
AcDbLine
 10
8.381202
 20
120.101453
 30
0.0
 11
8.206223
 21
120.013964
 31
0.0
  0
LINE
  5
3a5
100
AcDbEntity
  8
text
 62
7
100
AcDbLine
 10
8.206223
 20
120.013964
 30
0.0
 11
8.025601
 21
119.833342
 31
0.0
  0
LINE
  5
3a6
100
AcDbEntity
  8
text
 62
7
100
AcDbLine
 10
8.025601
 20
119.833342
 30
0.0
 11
7.938111
 21
119.568052
 31
0.0
  0
LINE
  5
3a7
100
AcDbEntity
  8
text
 62
7
100
AcDbLine
 10
7.938111
 20
119.568052
 30
0.0
 11
7.938111
 21
119.390251
 31
0.0
  0
LINE
  5
3a8
100
AcDbEntity
  8
text
 62
7
100
AcDbLine
 10
7.938111
 20
119.390251
 30
0.0
 11
8.025601
 21
119.123551
 31
0.0
  0
LINE
  5
3a9
100
AcDbEntity
  8
text
 62
7
100
AcDbLine
 10
8.025601
 20
119.123551
 30
0.0
 11
8.206223
 21
118.945750
 31
0.0
  0
LINE
  5
3aa
100
AcDbEntity
  8
text
 62
7
100
AcDbLine
 10
8.206223
 20
118.945750
 30
0.0
 11
8.381202
 21
118.856850
 31
0.0
  0
LINE
  5
3ab
100
AcDbEntity
  8
text
 62
7
100
AcDbLine
 10
8.381202
 20
118.856850
 30
0.0
 11
8.649313
 21
118.856850
 31
0.0
  0
LINE
  5
3ac
100
AcDbEntity
  8
text
 62
7
100
AcDbLine
 10
8.649313
 20
118.856850
 30
0.0
 11
8.827114
 21
118.945750
 31
0.0
  0
LINE
  5
3ad
100
AcDbEntity
  8
text
 62
7
100
AcDbLine
 10
8.827114
 20
118.945750
 30
0.0
 11
9.004914
 21
119.123551
 31
0.0
  0
LINE
  5
3ae
100
AcDbEntity
  8
text
 62
7
100
AcDbLine
 10
9.004914
 20
119.123551
 30
0.0
 11
9.092404
 21
119.390251
 31
0.0
  0
LINE
  5
3af
100
AcDbEntity
  8
text
 62
7
100
AcDbLine
 10
9.092404
 20
119.390251
 30
0.0
 11
9.092404
 21
119.568052
 31
0.0
  0
LINE
  5
3b0
100
AcDbEntity
  8
text
 62
7
100
AcDbLine
 10
9.092404
 20
119.568052
 30
0.0
 11
9.004914
 21
119.833342
 31
0.0
  0
LINE
  5
3b1
100
AcDbEntity
  8
text
 62
7
100
AcDbLine
 10
9.004914
 20
119.833342
 30
0.0
 11
8.827114
 21
120.013964
 31
0.0
  0
LINE
  5
3b2
100
AcDbEntity
  8
text
 62
7
100
AcDbLine
 10
8.827114
 20
120.013964
 30
0.0
 11
8.649313
 21
120.101453
 31
0.0
  0
LINE
  5
3b3
100
AcDbEntity
  8
text
 62
7
100
AcDbLine
 10
8.649313
 20
120.101453
 30
0.0
 11
8.381202
 21
120.101453
 31
0.0
  0
LINE
  5
3b4
100
AcDbEntity
  8
text
 62
7
100
AcDbLine
 10
10.692614
 20
120.101453
 30
0.0
 11
10.692614
 21
118.679050
 31
0.0
  0
LINE
  5
3b5
100
AcDbEntity
  8
text
 62
7
100
AcDbLine
 10
10.692614
 20
118.679050
 30
0.0
 11
10.605125
 21
118.410938
 31
0.0
  0
LINE
  5
3b6
100
AcDbEntity
  8
text
 62
7
100
AcDbLine
 10
10.605125
 20
118.410938
 30
0.0
 11
10.514814
 21
118.323449
 31
0.0
  0
LINE
  5
3b7
100
AcDbEntity
  8
text
 62
7
100
AcDbLine
 10
10.514814
 20
118.323449
 30
0.0
 11
10.337013
 21
118.235959
 31
0.0
  0
LINE
  5
3b8
100
AcDbEntity
  8
text
 62
7
100
AcDbLine
 10
10.337013
 20
118.235959
 30
0.0
 11
10.068902
 21
118.235959
 31
0.0
  0
LINE
  5
3b9
100
AcDbEntity
  8
text
 62
7
100
AcDbLine
 10
10.068902
 20
118.235959
 30
0.0
 11
9.893923
 21
118.323449
 31
0.0
  0
LINE
  5
3ba
100
AcDbEntity
  8
text
 62
7
100
AcDbLine
 10
10.692614
 20
119.833342
 30
0.0
 11
10.514814
 21
120.013964
 31
0.0
  0
LINE
  5
3bb
100
AcDbEntity
  8
text
 62
7
100
AcDbLine
 10
10.514814
 20
120.013964
 30
0.0
 11
10.337013
 21
120.101453
 31
0.0
  0
LINE
  5
3bc
100
AcDbEntity
  8
text
 62
7
100
AcDbLine
 10
10.337013
 20
120.101453
 30
0.0
 11
10.068902
 21
120.101453
 31
0.0
  0
LINE
  5
3bd
100
AcDbEntity
  8
text
 62
7
100
AcDbLine
 10
10.068902
 20
120.101453
 30
0.0
 11
9.893923
 21
120.013964
 31
0.0
  0
LINE
  5
3be
100
AcDbEntity
  8
text
 62
7
100
AcDbLine
 10
9.893923
 20
120.013964
 30
0.0
 11
9.713301
 21
119.833342
 31
0.0
  0
LINE
  5
3bf
100
AcDbEntity
  8
text
 62
7
100
AcDbLine
 10
9.713301
 20
119.833342
 30
0.0
 11
9.625811
 21
119.568052
 31
0.0
  0
LINE
  5
3c0
100
AcDbEntity
  8
text
 62
7
100
AcDbLine
 10
9.625811
 20
119.568052
 30
0.0
 11
9.625811
 21
119.390251
 31
0.0
  0
LINE
  5
3c1
100
AcDbEntity
  8
text
 62
7
100
AcDbLine
 10
9.625811
 20
119.390251
 30
0.0
 11
9.713301
 21
119.123551
 31
0.0
  0
LINE
  5
3c2
100
AcDbEntity
  8
text
 62
7
100
AcDbLine
 10
9.713301
 20
119.123551
 30
0.0
 11
9.893923
 21
118.945750
 31
0.0
  0
LINE
  5
3c3
100
AcDbEntity
  8
text
 62
7
100
AcDbLine
 10
9.893923
 20
118.945750
 30
0.0
 11
10.068902
 21
118.856850
 31
0.0
  0
LINE
  5
3c4
100
AcDbEntity
  8
text
 62
7
100
AcDbLine
 10
10.068902
 20
118.856850
 30
0.0
 11
10.337013
 21
118.856850
 31
0.0
  0
LINE
  5
3c5
100
AcDbEntity
  8
text
 62
7
100
AcDbLine
 10
10.337013
 20
118.856850
 30
0.0
 11
10.514814
 21
118.945750
 31
0.0
  0
LINE
  5
3c6
100
AcDbEntity
  8
text
 62
7
100
AcDbLine
 10
10.514814
 20
118.945750
 30
0.0
 11
10.692614
 21
119.123551
 31
0.0
  0
LINE
  5
3c7
100
AcDbEntity
  8
text
 62
7
100
AcDbLine
 10
12.292815
 20
119.833342
 30
0.0
 11
12.202504
 21
120.013964
 31
0.0
  0
LINE
  5
3c8
100
AcDbEntity
  8
text
 62
7
100
AcDbLine
 10
12.202504
 20
120.013964
 30
0.0
 11
11.937214
 21
120.101453
 31
0.0
  0
LINE
  5
3c9
100
AcDbEntity
  8
text
 62
7
100
AcDbLine
 10
11.937214
 20
120.101453
 30
0.0
 11
11.669102
 21
120.101453
 31
0.0
  0
LINE
  5
3ca
100
AcDbEntity
  8
text
 62
7
100
AcDbLine
 10
11.669102
 20
120.101453
 30
0.0
 11
11.400991
 21
120.013964
 31
0.0
  0
LINE
  5
3cb
100
AcDbEntity
  8
text
 62
7
100
AcDbLine
 10
11.400991
 20
120.013964
 30
0.0
 11
11.313501
 21
119.833342
 31
0.0
  0
LINE
  5
3cc
100
AcDbEntity
  8
text
 62
7
100
AcDbLine
 10
11.313501
 20
119.833342
 30
0.0
 11
11.400991
 21
119.658363
 31
0.0
  0
LINE
  5
3cd
100
AcDbEntity
  8
text
 62
7
100
AcDbLine
 10
11.400991
 20
119.658363
 30
0.0
 11
11.581613
 21
119.568052
 31
0.0
  0
LINE
  5
3ce
100
AcDbEntity
  8
text
 62
7
100
AcDbLine
 10
11.581613
 20
119.568052
 30
0.0
 11
12.024703
 21
119.477741
 31
0.0
  0
LINE
  5
3cf
100
AcDbEntity
  8
text
 62
7
100
AcDbLine
 10
12.024703
 20
119.477741
 30
0.0
 11
12.202504
 21
119.390251
 31
0.0
  0
LINE
  5
3d0
100
AcDbEntity
  8
text
 62
7
100
AcDbLine
 10
12.202504
 20
119.390251
 30
0.0
 11
12.292815
 21
119.212451
 31
0.0
  0
LINE
  5
3d1
100
AcDbEntity
  8
text
 62
7
100
AcDbLine
 10
12.292815
 20
119.212451
 30
0.0
 11
12.292815
 21
119.123551
 31
0.0
  0
LINE
  5
3d2
100
AcDbEntity
  8
text
 62
7
100
AcDbLine
 10
12.292815
 20
119.123551
 30
0.0
 11
12.202504
 21
118.945750
 31
0.0
  0
LINE
  5
3d3
100
AcDbEntity
  8
text
 62
7
100
AcDbLine
 10
12.202504
 20
118.945750
 30
0.0
 11
11.937214
 21
118.856850
 31
0.0
  0
LINE
  5
3d4
100
AcDbEntity
  8
text
 62
7
100
AcDbLine
 10
11.937214
 20
118.856850
 30
0.0
 11
11.669102
 21
118.856850
 31
0.0
  0
LINE
  5
3d5
100
AcDbEntity
  8
text
 62
7
100
AcDbLine
 10
11.669102
 20
118.856850
 30
0.0
 11
11.400991
 21
118.945750
 31
0.0
  0
LINE
  5
3d6
100
AcDbEntity
  8
text
 62
7
100
AcDbLine
 10
11.400991
 20
118.945750
 30
0.0
 11
11.313501
 21
119.123551
 31
0.0
  0
LINE
  5
3d7
100
AcDbEntity
  8
text
 62
7
100
AcDbLine
 10
1.089991
 20
116.582106
 30
0.0
 11
1.089991
 21
114.713790
 31
0.0
  0
LINE
  5
3d8
100
AcDbEntity
  8
text
 62
7
100
AcDbLine
 10
1.089991
 20
116.582106
 30
0.0
 11
1.713703
 21
116.582106
 31
0.0
  0
LINE
  5
3d9
100
AcDbEntity
  8
text
 62
7
100
AcDbLine
 10
1.713703
 20
116.582106
 30
0.0
 11
1.981815
 21
116.491795
 31
0.0
  0
LINE
  5
3da
100
AcDbEntity
  8
text
 62
7
100
AcDbLine
 10
1.981815
 20
116.491795
 30
0.0
 11
2.156794
 21
116.313994
 31
0.0
  0
LINE
  5
3db
100
AcDbEntity
  8
text
 62
7
100
AcDbLine
 10
2.156794
 20
116.313994
 30
0.0
 11
2.247105
 21
116.136194
 31
0.0
  0
LINE
  5
3dc
100
AcDbEntity
  8
text
 62
7
100
AcDbLine
 10
2.247105
 20
116.136194
 30
0.0
 11
2.337416
 21
115.870904
 31
0.0
  0
LINE
  5
3dd
100
AcDbEntity
  8
text
 62
7
100
AcDbLine
 10
2.337416
 20
115.870904
 30
0.0
 11
2.337416
 21
115.424992
 31
0.0
  0
LINE
  5
3de
100
AcDbEntity
  8
text
 62
7
100
AcDbLine
 10
2.337416
 20
115.424992
 30
0.0
 11
2.247105
 21
115.159702
 31
0.0
  0
LINE
  5
3df
100
AcDbEntity
  8
text
 62
7
100
AcDbLine
 10
2.247105
 20
115.159702
 30
0.0
 11
2.156794
 21
114.980491
 31
0.0
  0
LINE
  5
3e0
100
AcDbEntity
  8
text
 62
7
100
AcDbLine
 10
2.156794
 20
114.980491
 30
0.0
 11
1.981815
 21
114.802690
 31
0.0
  0
LINE
  5
3e1
100
AcDbEntity
  8
text
 62
7
100
AcDbLine
 10
1.981815
 20
114.802690
 30
0.0
 11
1.713703
 21
114.713790
 31
0.0
  0
LINE
  5
3e2
100
AcDbEntity
  8
text
 62
7
100
AcDbLine
 10
1.713703
 20
114.713790
 30
0.0
 11
1.089991
 21
114.713790
 31
0.0
  0
LINE
  5
3e3
100
AcDbEntity
  8
text
 62
7
100
AcDbLine
 10
2.958311
 20
116.582106
 30
0.0
 11
2.958311
 21
114.713790
 31
0.0
  0
LINE
  5
3e4
100
AcDbEntity
  8
text
 62
7
100
AcDbLine
 10
2.958311
 20
116.582106
 30
0.0
 11
4.115425
 21
116.582106
 31
0.0
  0
LINE
  5
3e5
100
AcDbEntity
  8
text
 62
7
100
AcDbLine
 10
2.958311
 20
115.690282
 30
0.0
 11
3.669513
 21
115.690282
 31
0.0
  0
LINE
  5
3e6
100
AcDbEntity
  8
text
 62
7
100
AcDbLine
 10
2.958311
 20
114.713790
 30
0.0
 11
4.115425
 21
114.713790
 31
0.0
  0
LINE
  5
3e7
100
AcDbEntity
  8
text
 62
7
100
AcDbLine
 10
5.001602
 20
116.582106
 30
0.0
 11
5.001602
 21
114.713790
 31
0.0
  0
LINE
  5
3e8
100
AcDbEntity
  8
text
 62
7
100
AcDbLine
 10
4.380711
 20
116.582106
 30
0.0
 11
5.625314
 21
116.582106
 31
0.0
  0
LINE
  5
3e9
100
AcDbEntity
  8
text
 62
7
100
AcDbLine
 10
6.068401
 20
116.582106
 30
0.0
 11
6.068401
 21
114.713790
 31
0.0
  0
LINE
  5
3ea
100
AcDbEntity
  8
text
 62
7
100
AcDbLine
 10
6.068401
 20
116.582106
 30
0.0
 11
7.225515
 21
116.582106
 31
0.0
  0
LINE
  5
3eb
100
AcDbEntity
  8
text
 62
7
100
AcDbLine
 10
6.068401
 20
115.690282
 30
0.0
 11
6.779603
 21
115.690282
 31
0.0
  0
LINE
  5
3ec
100
AcDbEntity
  8
text
 62
7
100
AcDbLine
 10
6.068401
 20
114.713790
 30
0.0
 11
7.225515
 21
114.713790
 31
0.0
  0
LINE
  5
3ed
100
AcDbEntity
  8
text
 62
7
100
AcDbLine
 10
9.003526
 20
116.136194
 30
0.0
 11
8.913215
 21
116.313994
 31
0.0
  0
LINE
  5
3ee
100
AcDbEntity
  8
text
 62
7
100
AcDbLine
 10
8.913215
 20
116.313994
 30
0.0
 11
8.735414
 21
116.491795
 31
0.0
  0
LINE
  5
3ef
100
AcDbEntity
  8
text
 62
7
100
AcDbLine
 10
8.735414
 20
116.491795
 30
0.0
 11
8.557614
 21
116.582106
 31
0.0
  0
LINE
  5
3f0
100
AcDbEntity
  8
text
 62
7
100
AcDbLine
 10
8.557614
 20
116.582106
 30
0.0
 11
8.202013
 21
116.582106
 31
0.0
  0
LINE
  5
3f1
100
AcDbEntity
  8
text
 62
7
100
AcDbLine
 10
8.202013
 20
116.582106
 30
0.0
 11
8.024212
 21
116.491795
 31
0.0
  0
LINE
  5
3f2
100
AcDbEntity
  8
text
 62
7
100
AcDbLine
 10
8.024212
 20
116.491795
 30
0.0
 11
7.846412
 21
116.313994
 31
0.0
  0
LINE
  5
3f3
100
AcDbEntity
  8
text
 62
7
100
AcDbLine
 10
7.846412
 20
116.313994
 30
0.0
 11
7.756101
 21
116.136194
 31
0.0
  0
LINE
  5
3f4
100
AcDbEntity
  8
text
 62
7
100
AcDbLine
 10
7.756101
 20
116.136194
 30
0.0
 11
7.668611
 21
115.870904
 31
0.0
  0
LINE
  5
3f5
100
AcDbEntity
  8
text
 62
7
100
AcDbLine
 10
7.668611
 20
115.870904
 30
0.0
 11
7.668611
 21
115.424992
 31
0.0
  0
LINE
  5
3f6
100
AcDbEntity
  8
text
 62
7
100
AcDbLine
 10
7.668611
 20
115.424992
 30
0.0
 11
7.756101
 21
115.159702
 31
0.0
  0
LINE
  5
3f7
100
AcDbEntity
  8
text
 62
7
100
AcDbLine
 10
7.756101
 20
115.159702
 30
0.0
 11
7.846412
 21
114.980491
 31
0.0
  0
LINE
  5
3f8
100
AcDbEntity
  8
text
 62
7
100
AcDbLine
 10
7.846412
 20
114.980491
 30
0.0
 11
8.024212
 21
114.802690
 31
0.0
  0
LINE
  5
3f9
100
AcDbEntity
  8
text
 62
7
100
AcDbLine
 10
8.024212
 20
114.802690
 30
0.0
 11
8.202013
 21
114.713790
 31
0.0
  0
LINE
  5
3fa
100
AcDbEntity
  8
text
 62
7
100
AcDbLine
 10
8.202013
 20
114.713790
 30
0.0
 11
8.557614
 21
114.713790
 31
0.0
  0
LINE
  5
3fb
100
AcDbEntity
  8
text
 62
7
100
AcDbLine
 10
8.557614
 20
114.713790
 30
0.0
 11
8.735414
 21
114.802690
 31
0.0
  0
LINE
  5
3fc
100
AcDbEntity
  8
text
 62
7
100
AcDbLine
 10
8.735414
 20
114.802690
 30
0.0
 11
8.913215
 21
114.980491
 31
0.0
  0
LINE
  5
3fd
100
AcDbEntity
  8
text
 62
7
100
AcDbLine
 10
8.913215
 20
114.980491
 30
0.0
 11
9.003526
 21
115.159702
 31
0.0
  0
LINE
  5
3fe
100
AcDbEntity
  8
text
 62
7
100
AcDbLine
 10
9.980012
 20
116.582106
 30
0.0
 11
9.980012
 21
114.713790
 31
0.0
  0
LINE
  5
3ff
100
AcDbEntity
  8
text
 62
7
100
AcDbLine
 10
9.359121
 20
116.582106
 30
0.0
 11
10.603724
 21
116.582106
 31
0.0
  0
LINE
  5
400
100
AcDbEntity
  8
text
 62
7
100
AcDbLine
 10
11.492733
 20
116.582106
 30
0.0
 11
11.314932
 21
116.491795
 31
0.0
  0
LINE
  5
401
100
AcDbEntity
  8
text
 62
7
100
AcDbLine
 10
11.314932
 20
116.491795
 30
0.0
 11
11.137132
 21
116.313994
 31
0.0
  0
LINE
  5
402
100
AcDbEntity
  8
text
 62
7
100
AcDbLine
 10
11.137132
 20
116.313994
 30
0.0
 11
11.046821
 21
116.136194
 31
0.0
  0
LINE
  5
403
100
AcDbEntity
  8
text
 62
7
100
AcDbLine
 10
11.046821
 20
116.136194
 30
0.0
 11
10.959331
 21
115.870904
 31
0.0
  0
LINE
  5
404
100
AcDbEntity
  8
text
 62
7
100
AcDbLine
 10
10.959331
 20
115.870904
 30
0.0
 11
10.959331
 21
115.424992
 31
0.0
  0
LINE
  5
405
100
AcDbEntity
  8
text
 62
7
100
AcDbLine
 10
10.959331
 20
115.424992
 30
0.0
 11
11.046821
 21
115.159702
 31
0.0
  0
LINE
  5
406
100
AcDbEntity
  8
text
 62
7
100
AcDbLine
 10
11.046821
 20
115.159702
 30
0.0
 11
11.137132
 21
114.980491
 31
0.0
  0
LINE
  5
407
100
AcDbEntity
  8
text
 62
7
100
AcDbLine
 10
11.137132
 20
114.980491
 30
0.0
 11
11.314932
 21
114.802690
 31
0.0
  0
LINE
  5
408
100
AcDbEntity
  8
text
 62
7
100
AcDbLine
 10
11.314932
 20
114.802690
 30
0.0
 11
11.492733
 21
114.713790
 31
0.0
  0
LINE
  5
409
100
AcDbEntity
  8
text
 62
7
100
AcDbLine
 10
11.492733
 20
114.713790
 30
0.0
 11
11.848334
 21
114.713790
 31
0.0
  0
LINE
  5
40a
100
AcDbEntity
  8
text
 62
7
100
AcDbLine
 10
11.848334
 20
114.713790
 30
0.0
 11
12.026134
 21
114.802690
 31
0.0
  0
LINE
  5
40b
100
AcDbEntity
  8
text
 62
7
100
AcDbLine
 10
12.026134
 20
114.802690
 30
0.0
 11
12.203935
 21
114.980491
 31
0.0
  0
LINE
  5
40c
100
AcDbEntity
  8
text
 62
7
100
AcDbLine
 10
12.203935
 20
114.980491
 30
0.0
 11
12.294246
 21
115.159702
 31
0.0
  0
LINE
  5
40d
100
AcDbEntity
  8
text
 62
7
100
AcDbLine
 10
12.294246
 20
115.159702
 30
0.0
 11
12.381735
 21
115.424992
 31
0.0
  0
LINE
  5
40e
100
AcDbEntity
  8
text
 62
7
100
AcDbLine
 10
12.381735
 20
115.424992
 30
0.0
 11
12.381735
 21
115.870904
 31
0.0
  0
LINE
  5
40f
100
AcDbEntity
  8
text
 62
7
100
AcDbLine
 10
12.381735
 20
115.870904
 30
0.0
 11
12.294246
 21
116.136194
 31
0.0
  0
LINE
  5
410
100
AcDbEntity
  8
text
 62
7
100
AcDbLine
 10
12.294246
 20
116.136194
 30
0.0
 11
12.203935
 21
116.313994
 31
0.0
  0
LINE
  5
411
100
AcDbEntity
  8
text
 62
7
100
AcDbLine
 10
12.203935
 20
116.313994
 30
0.0
 11
12.026134
 21
116.491795
 31
0.0
  0
LINE
  5
412
100
AcDbEntity
  8
text
 62
7
100
AcDbLine
 10
12.026134
 20
116.491795
 30
0.0
 11
11.848334
 21
116.582106
 31
0.0
  0
LINE
  5
413
100
AcDbEntity
  8
text
 62
7
100
AcDbLine
 10
11.848334
 20
116.582106
 30
0.0
 11
11.492733
 21
116.582106
 31
0.0
  0
LINE
  5
414
100
AcDbEntity
  8
text
 62
7
100
AcDbLine
 10
13.002591
 20
116.582106
 30
0.0
 11
13.002591
 21
114.713790
 31
0.0
  0
LINE
  5
415
100
AcDbEntity
  8
text
 62
7
100
AcDbLine
 10
13.002591
 20
116.582106
 30
0.0
 11
13.804104
 21
116.582106
 31
0.0
  0
LINE
  5
416
100
AcDbEntity
  8
text
 62
7
100
AcDbLine
 10
13.804104
 20
116.582106
 30
0.0
 11
14.069394
 21
116.491795
 31
0.0
  0
LINE
  5
417
100
AcDbEntity
  8
text
 62
7
100
AcDbLine
 10
14.069394
 20
116.491795
 30
0.0
 11
14.159705
 21
116.401484
 31
0.0
  0
LINE
  5
418
100
AcDbEntity
  8
text
 62
7
100
AcDbLine
 10
14.159705
 20
116.401484
 30
0.0
 11
14.250016
 21
116.226505
 31
0.0
  0
LINE
  5
419
100
AcDbEntity
  8
text
 62
7
100
AcDbLine
 10
14.250016
 20
116.226505
 30
0.0
 11
14.250016
 21
116.045883
 31
0.0
  0
LINE
  5
41a
100
AcDbEntity
  8
text
 62
7
100
AcDbLine
 10
14.250016
 20
116.045883
 30
0.0
 11
14.159705
 21
115.870904
 31
0.0
  0
LINE
  5
41b
100
AcDbEntity
  8
text
 62
7
100
AcDbLine
 10
14.159705
 20
115.870904
 30
0.0
 11
14.069394
 21
115.780593
 31
0.0
  0
LINE
  5
41c
100
AcDbEntity
  8
text
 62
7
100
AcDbLine
 10
14.069394
 20
115.780593
 30
0.0
 11
13.804104
 21
115.690282
 31
0.0
  0
LINE
  5
41d
100
AcDbEntity
  8
text
 62
7
100
AcDbLine
 10
13.804104
 20
115.690282
 30
0.0
 11
13.002591
 21
115.690282
 31
0.0
  0
LINE
  5
41e
100
AcDbEntity
  8
text
 62
7
100
AcDbLine
 10
13.626303
 20
115.690282
 30
0.0
 11
14.250016
 21
114.713790
 31
0.0
  0
LINE
  5
41f
100
AcDbEntity
  8
other
 62
7
100
AcDbLine
 10
14.190180
 20
64.900453
 30
0.0
 11
1.000000
 21
64.900453
 31
0.0
  0
ENDSEC
  0
SECTION
  2
OBJECTS
  0
DICTIONARY
  5
C
330
0
100
AcDbDictionary
  3
ACAD_GROUP
350
D
  3
ACAD_MLINESTYLE
350
17
  0
DICTIONARY
  5
D
330
C
100
AcDbDictionary
  0
DICTIONARY
  5
1A
330
C
100
AcDbDictionary
  0
DICTIONARY
  5
17
330
C
100
AcDbDictionary
  3
STANDARD
350
18
  0
DICTIONARY
  5
19
330
C
100
AcDbDictionary
  0
ENDSEC
  0
EOF
